<?xml version="1.0" encoding="UTF-8"?>
<svg width="26px" height="21px" viewBox="0 0 26 21" version="1.1" xmlns="http://www.w3.org/2000/svg" xmlns:xlink="http://www.w3.org/1999/xlink">
    <!-- Generator: Sketch 52.4 (67378) - http://www.bohemiancoding.com/sketch -->
    <title>Twitter@2x</title>
    <desc>Created with Sketch.</desc>
    <g id="Page-1" stroke="none" stroke-width="1" fill="none" fill-rule="evenodd">
        <g id="Twitter" fill="#010002" fill-rule="nonzero">
            <g id="twitter" transform="translate(0.000000, 0.000000)">
                <path d="M25.8071867,2.48023494 C24.8573373,2.90112048 23.8381627,3.18656024 22.7673313,3.31399398 C23.8607229,2.65924096 24.6976867,1.62071084 25.0943675,0.387024096 C24.068741,0.99336747 22.9366386,1.4336506 21.7303614,1.6723253 C20.7644036,0.641849398 19.3904217,0 17.8664458,0 C14.9427229,0 12.5721265,2.37059639 12.5721265,5.29271687 C12.5721265,5.7071506 12.6188916,6.11192771 12.7092169,6.49899398 C8.30992771,6.27803012 4.40894578,4.17031325 1.79807229,0.967560241 C1.34168072,1.74810241 1.08204819,2.65759639 1.08204819,3.62844578 C1.08204819,5.46527108 2.01739157,7.08598193 3.43653614,8.03418675 C2.56891566,8.0051747 1.75290964,7.7665 1.03853012,7.36977711 L1.03853012,7.43589759 C1.03853012,10.000006 2.86405422,12.1399819 5.28462048,12.6270301 C4.84113253,12.7463675 4.37348193,12.812488 3.88968072,12.812488 C3.54781928,12.812488 3.21721687,12.7786265 2.89306627,12.7141084 C3.56713253,14.8186205 5.52169277,16.349006 7.83746988,16.3909639 C6.02645181,17.8101084 3.74293373,18.6535241 1.2626988,18.6535241 C0.835361446,18.6535241 0.414433735,18.6277169 0,18.5809518 C2.34318675,20.0855723 5.12501205,20.9628494 8.11485542,20.9628494 C17.8536265,20.9628494 23.177,12.8963614 23.177,5.90070482 L23.159247,5.21533735 C24.1993795,4.47346386 25.0992169,3.54136747 25.8071867,2.48023494 Z" id="Shape"></path>
            </g>
        </g>
    </g>
</svg>