<svg id="Capa_1" data-name="Capa 1" xmlns="http://www.w3.org/2000/svg" xmlns:xlink="http://www.w3.org/1999/xlink" viewBox="0 0 168.9 49.51"><defs><style>.cls-1{fill:url(#Degradado_sin_nombre_18);}.cls-2{fill:#1d1d1b;}.cls-3{fill:url(#Degradado_sin_nombre_12);}.cls-4{fill:none;stroke:#1d1d1b;stroke-miterlimit:10;stroke-width:2px;}</style><linearGradient id="Degradado_sin_nombre_18" x1="123.48" y1="43.88" x2="172.18" y2="43.88" gradientUnits="userSpaceOnUse"><stop offset="0.64" stop-color="#282826"/><stop offset="0.99" stop-color="#fff" stop-opacity="0"/></linearGradient><linearGradient id="Degradado_sin_nombre_12" x1="93.58" y1="5.34" x2="93.58" y2="54.36" gradientUnits="userSpaceOnUse"><stop offset="0" stop-color="#fff" stop-opacity="0"/><stop offset="0.17" stop-color="#282826"/><stop offset="1"/></linearGradient></defs><title>Logo</title><path class="cls-1" d="M141.08,38.05,130.53,49.44h41.65v4.92h-48.7V49.69L134,38.32H123.63V33.4h17.45Z" transform="translate(-3.27 -5.34)"/><path class="cls-2" d="M124.77,45h-15.2a5,5,0,0,0,1.6,3.3,5.73,5.73,0,0,0,5.94.56,3.39,3.39,0,0,0,1.58-1.7h5.72a9.52,9.52,0,0,1-3.62,5.18,10.37,10.37,0,0,1-6.3,2,10.09,10.09,0,0,1-7.6-3.08,11,11,0,0,1-3-7.92,10.9,10.9,0,0,1,3-7.8,10,10,0,0,1,7.56-3.12,9.78,9.78,0,0,1,7.5,3.1,11,11,0,0,1,2.9,7.82Zm-9.55-8a4.66,4.66,0,0,0-3.16,1.06,4.9,4.9,0,0,0-1.6,2.9H120a4.87,4.87,0,0,0-1.56-2.88A4.71,4.71,0,0,0,115.22,37Z" transform="translate(-3.27 -5.34)"/><path class="cls-3" d="M98.46,36.45V5.34h5.47v49h-5V51.52c-1.34,1.9-3.47,2.84-6.39,2.84a8.45,8.45,0,0,1-6.77-2.91,10.82,10.82,0,0,1-2.51-7.31,10.83,10.83,0,0,1,2.51-7.32,8.45,8.45,0,0,1,6.77-2.91,8.27,8.27,0,0,1,3.56.73A6.34,6.34,0,0,1,98.46,36.45ZM97.07,48a6.05,6.05,0,0,0,1.4-4.1,6.06,6.06,0,0,0-1.4-4.11,5,5,0,0,0-7.39,0,6,6,0,0,0-1.41,4.11A6,6,0,0,0,89.68,48a5,5,0,0,0,7.39,0Z" transform="translate(-3.27 -5.34)"/><path class="cls-4" d="M67.25,53.37V31.89h5.68V53.37Z" transform="translate(-3.27 -5.34)"/><path class="cls-4" d="M52.55,32.41V35c1.1-2,3.18-3,6.24-3a7.25,7.25,0,0,1,5.72,2.26,8.85,8.85,0,0,1,2,6.1V53.37H60.83V40.93c0-2.74-1.18-4.12-3.56-4.12A4.09,4.09,0,0,0,54.11,38,4.8,4.8,0,0,0,53,41.37v12H47.31v-21Z" transform="translate(-3.27 -5.34)"/><path class="cls-4" d="M42.07,32.41h5.24v21H42.07V50.81c-1.38,2-3.6,3-6.64,3a8.69,8.69,0,0,1-7-3.12,11.84,11.84,0,0,1-2.6-7.84,11.86,11.86,0,0,1,2.6-7.84,8.69,8.69,0,0,1,7-3.12c3,0,5.26,1,6.64,3Zm-1.7,14.76a6.37,6.37,0,0,0,1.42-4.28,6.39,6.39,0,0,0-1.42-4.28,5,5,0,0,0-7.48,0,6.44,6.44,0,0,0-1.42,4.28,6.42,6.42,0,0,0,1.42,4.28,5,5,0,0,0,7.48,0Z" transform="translate(-3.27 -5.34)"/><path class="cls-4" d="M20.11,34.65V19.29h5.68V53.37H20.55V50.81c-1.38,2-3.6,3-6.64,3a8.69,8.69,0,0,1-7-3.12,11.84,11.84,0,0,1-2.6-7.84,11.86,11.86,0,0,1,2.6-7.84,8.69,8.69,0,0,1,7-3.12,8.42,8.42,0,0,1,3.7.78A6.7,6.7,0,0,1,20.11,34.65ZM18.85,47.17a6.37,6.37,0,0,0,1.42-4.28,6.39,6.39,0,0,0-1.42-4.28,4.64,4.64,0,0,0-3.74-1.68,4.67,4.67,0,0,0-3.74,1.68A6.44,6.44,0,0,0,10,42.89a6.42,6.42,0,0,0,1.42,4.28,4.67,4.67,0,0,0,3.74,1.68A4.64,4.64,0,0,0,18.85,47.17Z" transform="translate(-3.27 -5.34)"/><path class="cls-4" d="M72.48,24.7a3.4,3.4,0,0,1-4.59,0A3,3,0,0,1,67,22.44a3.11,3.11,0,0,1,.89-2.28,3.35,3.35,0,0,1,4.59,0,3.11,3.11,0,0,1,.89,2.28A3,3,0,0,1,72.48,24.7Z" transform="translate(-3.27 -5.34)"/><path class="cls-2" d="M83.48,30.65h3.94v4.5H83.48V54.36h-6.9V35.15H72.93V30.89l3.65,0v-4c0-3,.77-5.21,2.31-6.71a8.73,8.73,0,0,1,6.34-2.23l2,.1v5.93a6.56,6.56,0,0,0-1.07-.05c-1.81,0-2.72.94-2.72,2.82Z" transform="translate(-3.27 -5.34)"/></svg>