<?xml version="1.0" encoding="UTF-8"?>
<svg width="28px" height="15px" viewBox="0 0 28 15" version="1.1" xmlns="http://www.w3.org/2000/svg" xmlns:xlink="http://www.w3.org/1999/xlink">
    <!-- Generator: Sketch 53 (72520) - https://sketchapp.com -->
    <title>Group 2</title>
    <desc>Created with Sketch.</desc>
    <g id="Design" stroke="none" stroke-width="1" fill="none" fill-rule="evenodd">
        <g id="Capstone-Copy" transform="translate(-272.000000, -48.000000)">
            <g id="Group-2" transform="translate(269.000000, 39.000000)">
                <g id="Logo" transform="translate(16.970563, 16.970563) rotate(-315.000000) translate(-16.970563, -16.970563) translate(4.970563, 4.970563)" fill="#000000" fill-rule="nonzero">
                    <path d="M7.05862403,20.5989451 C4.9595308,20.5989451 3.25202978,18.9266289 3.25202978,16.8707897 C3.25202978,14.8149505 4.9595308,13.1426344 7.05862403,13.1426344 C9.15771726,13.1426344 10.8652183,14.8151452 10.8652183,16.8707897 C10.8652183,18.9264342 9.15751848,20.5989451 7.05862403,20.5989451 Z M7.05862403,14.1160431 C5.50815744,14.1160431 4.24591862,15.3518828 4.24591862,16.8707897 C4.24591862,18.3896967 5.50756111,19.6255364 7.05862403,19.6255364 C8.60968695,19.6255364 9.87132944,18.3898914 9.87132944,16.8707897 C9.87132944,15.3516881 8.60948817,14.1160431 7.05862403,14.1160431 Z" id="Shape"></path>
                    <path d="M10.2795963,17.2861262 C10.0294773,17.2861262 9.82671574,17.081337 9.82671574,16.8287168 C9.82671574,15.4015996 8.67676144,14.2397798 7.26341181,14.2397798 C7.01329279,14.2397798 6.81053126,14.0349907 6.81053126,13.7823705 C6.81053126,13.5297503 7.01329279,13.3249611 7.26341181,13.3249611 C9.17619812,13.3249611 10.7324769,14.8968026 10.7324769,16.8287168 C10.7324769,17.081337 10.5297153,17.2861262 10.2795963,17.2861262 Z" id="Path"></path>
                    <path d="M23.2846363,7.69919306 C23.0179617,7.69919306 22.8017792,7.47578111 22.8017792,7.20018851 C22.8139419,4.99307511 21.6815415,2.94821877 19.8339779,1.84101766 C17.9864144,0.733816562 15.7066054,0.733816562 13.8590418,1.84101766 C12.0114783,2.94821877 10.8790779,4.99307511 10.8912406,7.20018851 C10.8912406,7.47578111 10.6750581,7.69919306 10.4083835,7.69919306 C10.1417089,7.69919306 9.92552642,7.47578111 9.92552642,7.20018851 C9.91241822,4.63586936 11.2286759,2.26052325 13.3754208,0.974437205 C15.5221656,-0.311648842 18.1708541,-0.311648842 20.317599,0.974437205 C22.4643438,2.26052325 23.7806015,4.63586936 23.7674933,7.20018851 C23.7674933,7.33253274 23.716621,7.4594565 23.6260678,7.55303801 C23.5355145,7.64661952 23.4126979,7.69919306 23.2846363,7.69919306 L23.2846363,7.69919306 Z" id="Path"></path>
                    <path d="M10.4028184,17.2047493 C10.1479912,17.2047493 9.941413,16.9866215 9.941413,16.7175472 L9.941413,6.97350482 C9.941413,6.70443052 10.1479912,6.4863027 10.4028184,6.4863027 C10.6576455,6.4863027 10.8642237,6.70443052 10.8642237,6.97350482 L10.8642237,16.7175472 C10.8642237,16.9866215 10.6576455,17.2047493 10.4028184,17.2047493 L10.4028184,17.2047493 Z" id="Path"></path>
                    <path d="M13.665447,17.2047493 C13.4106198,17.2047493 13.2040416,16.9866215 13.2040416,16.7175472 L13.2040416,6.97350482 C13.2040416,6.70443052 13.4106198,6.4863027 13.665447,6.4863027 C13.9202741,6.4863027 14.1268523,6.70443052 14.1268523,6.97350482 L14.1268523,16.7175472 C14.1268523,16.9866215 13.9202741,17.2047493 13.665447,17.2047493 Z" id="Path"></path>
                    <path d="M20.3901488,7.48669388 C20.115694,7.48669388 19.8932044,7.26985831 19.8932044,7.00237808 C19.8932044,5.49131281 18.6313631,4.2611507 17.080499,4.2611507 C15.5296348,4.2611507 14.2677935,5.49092536 14.2677935,7.00237808 C14.2677935,7.26985831 14.045304,7.48669388 13.7708491,7.48669388 C13.4963943,7.48669388 13.2739047,7.26985831 13.2739047,7.00237808 C13.2739047,4.95682191 14.9814057,3.29251912 17.080499,3.29251912 C19.1795922,3.29251912 20.8870932,4.95682191 20.8870932,7.00237808 C20.8870932,7.26985831 20.6646036,7.48669388 20.3901488,7.48669388 Z" id="Path"></path>
                    <path d="M7.14028632,23.8118165 C5.30423665,23.8132629 3.54297407,23.0793865 2.2446905,21.7719375 C0.946406934,20.4644885 0.217675069,18.690792 0.219111407,16.8417805 C0.219111407,16.5732195 0.435296843,16.3555079 0.701975092,16.3555079 C0.968653341,16.3555079 1.18483878,16.5732195 1.18483878,16.8417805 C1.17267594,18.9925797 2.30509187,20.9852619 4.15268074,22.064213 C6.00026962,23.1431641 8.28010988,23.1431641 10.1276987,22.064213 C11.9752876,20.9852619 13.1077036,18.9925797 13.0955407,16.8417805 C13.0955407,16.5732195 13.3117262,16.3555079 13.5784044,16.3555079 C13.8450826,16.3555079 14.0612681,16.5732195 14.0612681,16.8417805 C14.0627044,18.6907583 13.333999,20.4644252 12.0357572,21.7718686 C10.7375155,23.079312 8.97630253,23.8132113 7.14028632,23.8118165 L7.14028632,23.8118165 Z" id="Path"></path>
                    <path d="M15.4997224,10.663918 L11.8311716,10.663918 C11.5700782,10.663918 11.3584202,10.455274 11.3584202,10.1978986 C11.3584202,9.94052313 11.5700782,9.73187913 11.8311716,9.73187913 L15.4997224,9.73187913 C15.7608158,9.73187913 15.9724738,9.94052313 15.9724738,10.1978986 C15.9724738,10.455274 15.7608158,10.663918 15.4997224,10.663918 Z" id="Path"></path>
                    <path d="M0.678741788,16.988299 C0.543252344,16.988299 0.433416447,16.8791181 0.433416447,16.7444367 C0.433396231,16.4071651 0.458586894,16.0703582 0.508780392,15.7367976 C0.520534352,15.6495299 0.578699158,15.5753367 0.660957804,15.542685 C0.743216449,15.5100332 0.836794082,15.5239937 0.905786299,15.5792099 C0.974778516,15.6344262 1.00847076,15.7223231 0.993935786,15.8091759 C0.947428812,16.118785 0.924075266,16.4313952 0.924067129,16.7444367 C0.924119255,16.8091289 0.898289292,16.8711863 0.852270562,16.9169306 C0.806251831,16.9626749 0.74382208,16.9883508 0.678741788,16.988299 L0.678741788,16.988299 Z M1.16821491,14.5159252 C1.08654029,14.5155806 1.01038513,14.4748859 0.965043472,14.4073572 C0.91970181,14.3398286 0.911110512,14.254308 0.942123074,14.1792001 C1.07146494,13.8670439 1.2241918,13.5649769 1.39901699,13.2755439 C1.44350846,13.1995539 1.52570638,13.1532544 1.61414967,13.1543664 C1.70259297,13.1554784 1.78358647,13.2038298 1.82613011,13.2809142 C1.86867375,13.3579985 1.86617978,13.4518795 1.81960275,13.5266245 C1.65743729,13.7953169 1.51579714,14.075734 1.39587682,14.3655109 C1.35768228,14.4568902 1.26776059,14.5163007 1.16821491,14.5159252 Z M2.56931699,12.4155878 C2.47032884,12.4156082 2.38102667,12.356491 2.34288425,12.2656912 C2.30474182,12.1748915 2.32523314,12.0702015 2.39484161,12.0002415 C2.63355093,11.7605589 2.88985337,11.5388463 3.1616305,11.3369359 C3.23174754,11.2846618 3.32459361,11.2735423 3.40519449,11.3077663 C3.48579537,11.3419902 3.54190587,11.416358 3.5523897,11.5028561 C3.56287353,11.5893542 3.52613795,11.6748415 3.4560209,11.7271157 C3.20389037,11.9146603 2.9660911,12.1205238 2.74457742,12.3430143 C2.69833629,12.3896255 2.63517249,12.4157809 2.56931699,12.4155878 L2.56931699,12.4155878 Z M10.3388687,11.2702152 C10.2980762,11.2702713 10.2579228,11.2601419 10.2220938,11.2407566 C10.003994,11.1230149 9.77907955,11.0181987 9.54852854,10.9268571 C9.42555376,10.8751964 9.36671303,10.7352689 9.41612074,10.6119819 C9.46552844,10.4886948 9.6050441,10.4273141 9.7300693,10.4738584 C9.97863767,10.5722531 10.2211176,10.6852133 10.4562323,10.8121442 C10.5548646,10.8654882 10.6044734,10.9785877 10.5766735,11.0867291 C10.5488737,11.1948705 10.4507619,11.2704471 10.3384761,11.2702152 L10.3388687,11.2702152 Z M4.66557296,11.0002108 C4.54902941,11.0001277 4.44863037,10.9185515 4.42536268,10.8050352 C4.40209498,10.6915189 4.46238156,10.5773983 4.56960169,10.5319952 C4.88210086,10.40012 5.20416165,10.2918632 5.53304337,10.208146 C5.66430554,10.174745 5.79795386,10.2534426 5.83155524,10.383922 C5.86515662,10.5144014 5.78598691,10.6472527 5.65472474,10.6806536 C5.34976233,10.7582661 5.05112307,10.8586319 4.76134798,10.9808969 C4.73106029,10.9936905 4.6984817,11.0002602 4.66557296,11.0002108 Z M8.12524905,10.5470171 C8.11389089,10.5470079 8.10254669,10.5462257 8.09129602,10.544676 C7.77915918,10.5021212 7.46428491,10.4825589 7.14924671,10.4861491 L7.14649907,10.4861491 C7.01100963,10.4869033 6.90055866,10.3783338 6.89979992,10.2436524 C6.89904118,10.1089709 7.00826199,9.99917863 7.14375142,9.99842441 C7.48321263,9.9947049 7.82248704,10.0158972 8.15880955,10.0618286 C8.28702103,10.0788423 8.37991676,10.1918852 8.37110269,10.3201638 C8.36228863,10.4484424 8.25479331,10.5478802 8.12544531,10.5474073 L8.12524905,10.5470171 Z" id="Shape"></path>
                    <path d="M16.7590322,13.8578069 C16.4488314,13.8578152 16.138993,13.8364989 15.8316856,13.794007 C15.7458074,13.7820874 15.6727784,13.725017 15.6401079,13.6442935 C15.6074375,13.5635701 15.620089,13.4714575 15.6732968,13.4026536 C15.7265045,13.3338497 15.8121851,13.2988075 15.8980633,13.3107271 C16.1833207,13.3499873 16.4709198,13.3695439 16.7588382,13.3692592 C16.7825167,13.3692592 16.8061953,13.3692592 16.8298739,13.3692592 C16.9638629,13.3678045 17.0736555,13.4758157 17.0751026,13.6105089 C17.0765496,13.7452021 16.9691032,13.8555718 16.8351143,13.8570265 C16.809883,13.8578069 16.7844576,13.8578069 16.7590322,13.8578069 Z M18.3682057,13.6562615 C18.2461552,13.6557927 18.1434201,13.5643176 18.1282209,13.4425798 C18.1130218,13.3208419 18.1900831,13.2066824 18.3082329,13.1759082 C18.609818,13.0982889 18.9051499,12.9979144 19.1917159,12.8756386 C19.3141459,12.826719 19.4530375,12.8849623 19.5045915,13.006841 C19.5561454,13.1287197 19.5015173,13.2696835 19.3815327,13.3243846 C19.0724167,13.4562418 18.7538604,13.5645072 18.4285667,13.6482621 C18.4088664,13.6534969 18.3885825,13.656185 18.3682057,13.6562615 Z M14.3676891,13.4000861 C14.336978,13.4000322 14.3065541,13.3941405 14.278021,13.3827215 C13.9909234,13.2676981 13.7120691,13.1328837 13.4434479,12.9792404 C13.3269847,12.9125942 13.2863175,12.7636584 13.3526153,12.6465831 C13.418913,12.5295077 13.56707,12.4886268 13.6835332,12.555273 C13.9326506,12.6977965 14.1912734,12.8228331 14.4575513,12.9294881 C14.5658697,12.9726596 14.6283587,13.0871449 14.6063927,13.2021786 C14.5844266,13.3172122 14.4842102,13.4003009 14.3676891,13.4000861 L14.3676891,13.4000861 Z M20.6287344,12.5681501 C20.5242367,12.5681783 20.431462,12.5009398 20.3984698,12.4012658 C20.3654776,12.3015919 20.3996817,12.1918803 20.4833634,12.1289644 C20.7327479,11.9414609 20.9679178,11.7355757 21.1869279,11.5130118 C21.2823004,11.426057 21.4286339,11.4291427 21.5202952,11.5200413 C21.6119565,11.6109399 21.6170154,11.757987 21.5318201,11.8550342 C21.2957436,12.0947262 21.0422805,12.3164575 20.7735231,12.5183978 C20.7316014,12.5500572 20.6805858,12.5671746 20.6281521,12.5671746 L20.6287344,12.5681501 Z M22.3095258,10.6990257 C22.2221496,10.698878 22.1415907,10.6515468 22.098582,10.5750886 C22.0555732,10.4986304 22.0567483,10.4048382 22.1016589,10.3294931 C22.2620747,10.0608028 22.402148,9.78035756 22.5206922,9.4905333 C22.5491932,9.40380076 22.623517,9.34034891 22.7132728,9.32612306 C22.8030287,9.31189721 22.893168,9.34928247 22.946833,9.42299211 C23.000498,9.49670175 23.0086911,9.59437751 22.9680623,9.67607999 C22.8401535,9.98826381 22.689118,10.2903573 22.5162283,10.5798153 C22.4723641,10.6532452 22.3933715,10.6981343 22.3081672,10.6980501 L22.3095258,10.6990257 Z M23.157685,8.32691554 C23.1455378,8.3268718 23.1334091,8.325959 23.1213908,8.32418404 C23.0577341,8.31460169 23.0004745,8.27998276 22.9622167,8.22794798 C22.9239589,8.1759132 22.9078391,8.11072808 22.9174056,8.04674198 C22.9634046,7.73710658 22.9864996,7.42446848 22.9865005,7.11139933 C22.9865005,6.9767061 23.09512,6.86751567 23.229109,6.86751567 C23.3630979,6.86751567 23.4717174,6.9767061 23.4717174,7.11139933 C23.4717482,7.44870084 23.4468364,7.78553803 23.3971881,8.11912665 C23.3790461,8.23826163 23.2769952,8.32616988 23.1571028,8.32594 L23.157685,8.32691554 Z" id="Shape"></path>
                </g>
                <rect id="Rectangle" x="1" y="1" width="32" height="32"></rect>
            </g>
        </g>
    </g>
</svg>