<?xml version="1.0" encoding="utf-8"?>
<!-- Generator: Adobe Illustrator 23.0.3, SVG Export Plug-In . SVG Version: 6.00 Build 0)  -->
<svg version="1.1" id="Capa_1" xmlns="http://www.w3.org/2000/svg" xmlns:xlink="http://www.w3.org/1999/xlink" x="0px" y="0px"
	 viewBox="0 0 146.1 42.1" style="enable-background:new 0 0 146.1 42.1;" xml:space="preserve">
<style type="text/css">
	.st0{fill:url(#SVGID_1_);}
	.st1{display:none;fill:#1D1D1B;}
</style>
<g>
	<g>
		<g>
			<g>
				
					<linearGradient id="SVGID_1_" gradientUnits="userSpaceOnUse" x1="123.6" y1="13.64" x2="141.2" y2="13.64" gradientTransform="matrix(1 0 0 -1 0 41.89)">
					<stop  offset="0.4656" style="stop-color:#000000"/>
					<stop  offset="1" style="stop-color:#181818;stop-opacity:0.9458"/>
				</linearGradient>
				<path class="st0" d="M141.2,22.4l-10.6,11.4h10.5v4.9h-17.5V34l12.3-13.1h-12.1v-3.1h17.4V22.4L141.2,22.4z"/>
				<path d="M98.1,21V3.9h5.4v34.7h-4.9v-2.8c-1.3,1.9-3.4,2.8-6.3,2.8c-2.8,0-5-1-6.7-2.9s-2.5-4.3-2.5-7.2s0.8-5.3,2.5-7.2
					c1.7-1.9,3.8-2.9,6.7-2.9c1.3,0,2.5,0.2,3.5,0.7C96.7,19.8,97.5,20.4,98.1,21z"/>
				<path class="st1" d="M79.4,39.3h-6.2l0.1-36.1h22v6H79.4l0.1,9.7h7.8v5.7h-7.9V39.3z"/>
			</g>
		</g>
		<g>
			<path class="st1" d="M87.6,16h3.2v4.9h-3.2v17.9h-5.7V20.9h-3V16h3v-1.8c0-2.7,0.6-4.7,1.9-6s3-2,5.2-2l1.7,0.1v5.3
				c-0.2,0-0.5,0-0.9,0c-1.5,0-2.2,0.8-2.2,2.5V16z"/>
		</g>
		<path d="M67.8,38.4V16.8h5.7v21.6H67.8z"/>
		<path d="M52.6,17.3v2.6c1.1-2,3.2-3,6.2-3c2.5,0,4.4,0.8,5.7,2.3c1.3,1.5,2,3.5,2,6.1v13.1h-5.7V25.8c0-2.7-1.2-4.1-3.6-4.1
			c-1.4,0-2.4,0.4-3.2,1.2s-1,2-1,3.4v12h-5.7v-21H52.6z"/>
		<path d="M41.4,17.2h5.2v21h-5.2v-2.6c-1.4,2-3.6,3-6.6,3s-5.3-1-7-3.1s-2.6-4.7-2.6-7.8s0.9-5.8,2.6-7.8c1.7-2.1,4.1-3.1,7-3.1
			c3,0,5.3,1,6.6,3V17.2z"/>
		<path d="M19.2,19.5V4.1h5.7v34.1h-5.2v-2.6c-1.4,2-3.6,3-6.6,3s-5.3-1-7-3.1s-2.7-4.7-2.7-7.8s0.9-5.8,2.6-7.8
			c1.7-2.1,4.1-3.1,7-3.1c1.4,0,2.6,0.3,3.7,0.8S18.6,18.7,19.2,19.5z"/>
	</g>
	<path d="M73,9.4c-0.6,0.6-1.4,0.9-2.3,0.9S69,10,68.4,9.4s-0.9-1.3-0.9-2.3c0-0.9,0.3-1.7,0.9-2.3s1.4-0.9,2.3-0.9s1.7,0.3,2.3,0.9
		c0.6,0.6,0.9,1.4,0.9,2.3C73.9,8.1,73.6,8.8,73,9.4z"/>
	<g>
		<path d="M82.1,16.8h59v4.1h-59v17.8h-6.6V20.9H13.7v-4.1h61.9v-4.4c0-2.9,0.8-5,2.2-6.4c1.4-1.4,3.5-2.1,6-2.1h5.4v5.6
			c-0.2,0-4,0.1-4.5,0.1c-1.7,0-2.6,0.9-2.6,2.7V16V16.8z"/>
	</g>
	<g>
		<path d="M124.8,29.4h-15.1c0.2,1.4,0.7,2.5,1.6,3.3c0.9,0.8,2,1.1,3.5,1.1c0.9,0,1.7-0.2,2.5-0.6c0.7-0.4,1.3-1,1.6-1.7h5.7
			c-0.6,2.1-1.8,3.8-3.6,5.2c-1.8,1.3-3.9,2-6.3,2c-3.1,0-5.6-1-7.6-3.1c-2-2-3-4.7-3-7.9c0-3.1,1-5.7,3-7.8s4.5-3.1,7.5-3.1
			s5.5,1,7.5,3.1c1.9,2.1,2.9,4.7,2.9,7.8L124.8,29.4z"/>
	</g>
</g>
</svg>
