<?xml version="1.0" encoding="utf-8"?>
<!-- Generator: Adobe Illustrator 23.0.3, SVG Export Plug-In . SVG Version: 6.00 Build 0)  -->
<svg version="1.1" id="Capa_1" xmlns="http://www.w3.org/2000/svg" xmlns:xlink="http://www.w3.org/1999/xlink" x="0px" y="0px"
	 viewBox="0 0 88 22" style="enable-background:new 0 0 88 22;" xml:space="preserve">
<style type="text/css">
	.st0{enable-background:new    ;}
	.st1{fill:#FFFFFF;}
</style>
<title>Group</title>
<desc>Created with Sketch.</desc>
<g id="Page-1">
	<g id="Artboard" transform="translate(-211.000000, -136.000000)">
		<g id="Group" transform="translate(211.000000, 126.000000)">
			<g class="st0">
				<path d="M11.9,15.4c0.6,0.6,0.8,1.4,0.8,2.3c0,0.7-0.3,1.6-0.8,2.6c-0.6,1.1-1.3,2.2-2.2,3.2c-0.1,0.1-0.2,0.3-0.4,0.5
					c-0.4,0.5-0.7,0.8-0.9,1c-0.6,0.6-1.3,1.2-2,1.9c-0.6,0.5-1.2,1.1-2,1.8c-0.3,0.2-0.6,0.5-1.2,0.9l-0.3,0.2c0,0-0.1,0.1-0.2,0.1
					c0,0-0.1,0-0.1,0h0c-0.1,0-0.2-0.1-0.2-0.2c0-0.1,0-0.1,0-0.1c0,0-0.1,0-0.1-0.1c-0.1-0.1-0.1-0.1-0.2-0.1l0,0l0-0.2
					c-0.1,0-0.2-0.1-0.3-0.1C1.6,29,1.6,29,1.5,29l0,0v0c0-0.1,0-0.2-0.2-0.3c0,0-0.1-0.1-0.1-0.2c0,0-0.1-0.1-0.1-0.1
					c0,0-0.1,0-0.1,0c-0.1,0-0.1,0-0.1-0.1c0,0-0.1,0-0.1,0c0,0-0.1,0.1-0.1,0.1l0,0l-0.1-0.2l-0.3,0.2h0C0.1,28.4,0,28.3,0,28.1v0
					c0-0.7,0.2-1.6,0.5-2.8c0.1-0.4,0.2-0.9,0.3-1.5L1,23.4c0.2-0.8,0.4-1.5,0.5-1.9c0.3-0.9,0.7-2,1.2-3.5c0.1-0.3,0.2-0.7,0.5-1.2
					c0.1-0.2,0.2-0.4,0.2-0.5v-0.1l0.2,0.1l0.2-0.2h0c0,0,0.1,0,0.2,0c0.1,0,0.1-0.1,0.2-0.1c0.1,0,0.2,0,0.3-0.1
					c0.1,0,0.1,0,0.2-0.1h0l0.1,0.1L5,16l0.1,0.1c0,0,0,0,0,0c0,0,0,0,0,0c0.2-0.2,0.3-0.2,0.5-0.2l0,0c0.1,0,0.1,0,0.1,0
					c0,0,0.1,0.1,0.1,0c0,0,0,0,0.1,0c0,0,0,0,0.1,0l0.2-0.1v0.1c0,0,0,0.1-0.1,0.1c0,0.1,0,0.2-0.1,0.3c-0.1,0.2-0.2,0.4-0.3,0.8
					c-0.2,0.6-0.4,1-0.5,1.3c-0.2,0.5-0.4,1.1-0.7,2c-0.3,0.8-0.5,1.5-0.7,2.1c-0.1,0.4-0.4,1.1-0.6,2c-0.1,0.3-0.2,0.6-0.2,0.8
					c0,0.2-0.1,0.4-0.2,0.7l-0.1,0.2l0,0C3,26,3,25.9,3,25.9c0.1,0,0.2-0.2,0.4-0.3c0.5-0.5,0.9-0.8,1.2-1.1l0.2-0.2
					c0.8-0.8,1.4-1.4,1.8-1.8c1.5-1.6,2.6-3,3.3-4.4c0.1-0.1,0.2-0.3,0.3-0.5c0-0.1,0.1-0.2,0.1-0.3c0.2-0.4,0.2-0.8,0-1.2
					c-0.1-0.2-0.2-0.3-0.3-0.4c-0.8-0.5-1.5-0.7-2.3-0.6c-0.2,0-0.5,0.1-0.9,0.1c-0.4,0-0.6,0-0.8,0.1c-0.1,0-0.4,0.1-0.7,0.1
					c-0.2,0-0.4,0.1-0.5,0.1c-0.1,0-0.2,0-0.3,0c0,0-0.1,0-0.2,0H4.2l0.1-0.2l-0.5-0.3l0.1-0.1c-0.1,0-0.3-0.1-0.5-0.2l-0.1-0.1
					l0.2-0.1l-0.4-0.3l0.1-0.1l-0.5-0.2l0.1-0.1l-0.1-0.1l0.1-0.3h0c0.1,0,0.2,0,0.3-0.1c0.3,0,0.5-0.1,0.6-0.1c0.1,0,0.2,0,0.4-0.1
					c0.7-0.1,1.3-0.2,1.6-0.2l0.2,0c1.1-0.1,1.9-0.1,2.4,0c0.8,0.1,1.4,0.4,1.9,0.9c0.1,0.1,0.2,0.2,0.4,0.4
					C11.2,14.7,11.6,15.1,11.9,15.4z"/>
				<path d="M21.6,13.9L21.6,13.9L21.6,13.9c0.1,0.1,0.1,0.1,0.1,0.1c0,0.1,0,0.2,0,0.2c-0.1,0.9-0.3,2-0.6,3.1
					c-0.2,0.8-0.5,1.8-0.8,3c-0.1,0.5-0.4,1.2-0.6,2.2c-0.2,0.7-0.3,1.1-0.4,1.4l-0.2,0.6c-0.3,1-0.5,1.7-0.6,2.2
					c-0.1,0.4-0.3,1.1-0.6,2.1c-0.1,0.3-0.1,0.5-0.1,0.6c0,0.1,0,0.2-0.1,0.3c0,0.1,0,0.2-0.1,0.3c0,0,0,0.1-0.1,0.1c0,0,0,0,0,0.1
					l0,0l-0.2-0.1l-0.5,0.3l-0.1-0.1c0,0-0.1,0.1-0.2,0.2c-0.1,0.1-0.2,0.1-0.2,0.2l0,0L16,30.7L15.6,31l0-0.1l-0.4,0.3l-0.1-0.1
					c0,0-0.1,0.1-0.1,0.1c0,0-0.1,0-0.2-0.1h-0.1l-0.1,0l0-0.4c0-0.3,0-0.6,0.1-0.7c0-0.7,0-1.2,0-1.7c0-0.1,0-0.2,0-0.3
					c0-0.3-0.1-0.6-0.1-0.8c-0.2-0.8-0.5-1.6-1-2.2c0,0,0,0,0,0c-0.8,1.3-1.4,2.5-1.9,3.5l0,0h0c-0.2,0-0.4,0-0.6,0.2l0,0L11,28.6
					l-0.5,0.3l-0.1-0.1L10.3,29c-0.2,0.1-0.4,0.2-0.5,0.3c-0.1,0-0.3,0.1-0.5,0c0,0-0.1,0-0.1,0H9.1V29l0,0l0,0c0,0,0.1,0,0.1,0
					c0-0.1,0.1-0.2,0.2-0.3c-0.1-0.1-0.2-0.3-0.1-0.5c0.3-0.4,0.6-0.9,0.9-1.4c0.3-0.5,0.7-1.1,1.1-1.6c0.4-0.6,0.7-1,0.9-1.4
					c-0.1-0.1-0.2-0.2-0.4-0.2l0,0c-0.1-0.1-0.3-0.2-0.6-0.3c-0.1,0-0.2-0.1-0.2-0.1l-0.4-0.2l0-0.1l0.3,0l-0.1-0.1l0.3-0.1
					c0.2-0.1,0.4-0.2,0.5-0.2c0.1,0,0.1,0,0.2-0.1c0.1,0,0.2-0.1,0.3-0.1c0.1-0.1,0.2-0.1,0.4-0.2c0.2,0,0.4-0.1,0.7-0.1
					c0.1,0,0.3,0,0.4,0h0c0.4-0.6,0.6-1,0.7-1.1c0.3-0.4,0.5-0.8,0.8-1.1l1.4-2c0.1-0.1,0.2-0.3,0.4-0.5c0.2-0.2,0.3-0.4,0.4-0.6
					c0.1-0.2,0.3-0.4,0.4-0.5c0.4-0.5,0.7-0.7,0.9-0.8c0,0,0,0,0.1,0c0.1,0,0.1,0,0.1-0.1c0.1,0,0.2-0.1,0.3,0c0,0,0.1,0,0.1,0
					c0.1,0,0.1,0,0.1-0.1c0.1,0,0.2-0.1,0.4-0.2c0,0,0.1,0,0.1-0.1c0,0,0.1,0,0.1,0h0h0c0,0,0.1,0,0.1,0s0,0,0,0c0,0,0.1-0.1,0.2,0
					c0,0,0.1,0,0.1-0.1c0-0.1,0.2-0.2,0.4-0.3c0,0,0.1,0,0.1,0c0,0,0,0,0.1,0c0.1,0,0.2,0,0.3,0C21.5,13.9,21.5,13.9,21.6,13.9z
					 M16.6,23.9C17,22.6,17.4,21,18,19l-2.7,3.5c0,0,0.1,0.1,0.1,0.1c0.2,0.1,0.3,0.2,0.4,0.3c0.1,0.1,0.3,0.3,0.5,0.5
					c0,0,0.1,0.1,0.2,0.2C16.5,23.8,16.5,23.8,16.6,23.9z"/>
				<path d="M31.4,14.2c0,0.2,0,0.5,0,0.7v0c0,0.3-0.1,0.7-0.1,0.9c-0.1,0.6-0.2,1.3-0.4,2.1c0,0.1,0,0.4-0.1,0.8
					c0,0.4-0.1,0.6-0.1,0.8c0,0.1,0,0.3-0.1,0.5c0,0.3-0.1,0.4-0.1,0.6c0,0.1,0,0.3-0.1,0.7c0,0.2-0.1,0.3-0.1,0.5
					c0,0.2-0.1,0.6-0.2,1c-0.1,0.7-0.2,1.2-0.3,1.5c0,0.2-0.1,0.5-0.2,0.9c-0.1,0.4-0.2,0.8-0.2,1c-0.1,0.6-0.3,1.2-0.5,1.9
					c-0.2,0.5-0.3,0.9-0.5,1.2c-0.2,0.3-0.4,0.4-0.6,0.4c0,0,0,0-0.1,0c-0.2,0.1-0.5,0.2-0.7,0.3c0,0-0.1,0-0.1,0
					c-0.1,0-0.3,0-0.5,0.1c-0.1,0-0.2,0-0.3,0.1c-0.1,0-0.1,0-0.2,0c-0.1,0-0.3,0-0.4-0.1c-0.2-0.2-0.4-0.4-0.5-0.7
					c-0.3-0.6-0.5-1.1-0.7-1.5c-0.4-0.9-0.8-2.3-1.2-4c0,0,0-0.1,0-0.1L23,24c-0.7,2-1.3,3.5-1.8,4.4v0h-0.1c-0.2,0-0.3,0-0.5,0.1
					l0,0l-0.1-0.1c0,0,0,0-0.1,0.1c-0.1,0.1-0.2,0.1-0.2,0.1c0,0-0.1,0-0.1,0c0,0-0.1,0-0.1,0c-0.1,0-0.2,0.1-0.4,0.1
					c0,0-0.1,0-0.2,0.1c-0.2,0.1-0.3,0.1-0.5,0l0,0v0c0-0.1,0.1-0.2,0.1-0.3c0.1-0.3,0.2-0.5,0.2-0.6c0-0.2,0.1-0.4,0.2-0.6
					c0.3-0.8,0.5-1.4,0.6-1.8c0.2-0.6,0.4-1.3,0.5-1.9c0.2-0.9,0.5-1.8,0.7-2.9c0.1-0.5,0.2-1.2,0.4-2.2c0-0.2,0.1-0.5,0.1-0.7
					c0-0.8,0-1.4,0.1-1.9v-0.1c0.1-0.3,0.2-0.6,0.3-0.8l0,0l0.1,0.1l0.2-0.2h0.1l0.9-0.5l0.1,0.1l0.1-0.1l0.1,0l0,0
					c0,0,0.1-0.1,0.1-0.1c0.1-0.1,0.2-0.2,0.3-0.2c0,0,0.1,0,0.2-0.1c0,0,0,0,0.1-0.1h0.1l0.1,0.1l0.4-0.2l0,0.1l0,0
					c0,0.1,0,0.1,0,0.1c0,0.3,0,0.5-0.1,0.7c0,0.5-0.1,0.9-0.2,1.3c0,0.3-0.1,0.5-0.1,0.6c-0.1,0.3-0.1,0.6,0,1.1
					c0.1,0.5,0.2,1.1,0.3,1.9c0,0.2,0.1,0.6,0.2,1.2c0.1,0.4,0.1,0.7,0.2,0.9c0,0.1,0.1,0.3,0.1,0.5c0.1,0.3,0.1,0.6,0.1,0.7
					c0.1,0.5,0.2,1,0.4,1.7c0.1,0.3,0.2,0.8,0.4,1.4l0.1,0.5c0,0,0,0.1,0.1,0.2v0l0.1-0.4c0.1-0.8,0.2-1.3,0.2-1.7
					c0-0.1,0.1-0.7,0.2-1.6c0.2-1.3,0.3-2.2,0.4-2.7l0.1-0.7c0.1-0.7,0.1-1.2,0.2-1.5c0-0.2,0.1-0.5,0.1-0.9c0-0.4,0-0.6,0.1-0.7
					v-0.1l0-0.1l0,0l0-0.1c0,0,0-0.1,0-0.1s0-0.1,0-0.1c0-0.1,0.1-0.2,0.1-0.3c0,0,0.1-0.1,0.1-0.1s0.1,0,0.1,0.1v0.1
					c0,0,0.1,0.1,0,0.1c0,0,0,0,0,0.1c0,0,0,0.1,0,0.1c0-0.1,0.1-0.2,0.1-0.3c0-0.2,0.1-0.3,0.1-0.3c0-0.1,0.1-0.2,0.1-0.3
					c0.1-0.1,0.1-0.2,0.1-0.2c0,0,0.1-0.2,0.2-0.5s0.2-0.5,0.4-0.7c0,0,0.1-0.1,0.1,0c0,0,0.1,0,0.1,0.1c0,0.1,0,0.3,0,0.4
					c0-0.1,0.1-0.3,0.1-0.4c0,0,0.1-0.1,0.1-0.1c0.1,0,0.1,0,0.1,0.1c0,0,0,0.1,0,0.1c0-0.1,0.1-0.2,0.1-0.3s0.1-0.1,0.2-0.1
					c0.1,0.1,0.1,0.3,0.1,0.7c0,0,0,0,0,0c0,0,0.1,0,0.1,0c0.1,0,0.1,0.1,0.1,0.1c0,0.3,0,0.6-0.1,0.9c0.1-0.1,0.2-0.3,0.2-0.5
					c0.1-0.2,0.2-0.4,0.2-0.4C31.2,14.1,31.2,14.1,31.4,14.2C31.3,14.1,31.4,14.2,31.4,14.2z"/>
				<path d="M39.1,14.7c0,0,0.1,0,0.1,0.1c0,0.1,0,0.1,0,0.1c-0.2,0-0.3,0.1-0.5,0.2c0.1,0,0.1,0.1,0.1,0.1c0.1,0,0.1,0,0.1,0.1
					c0,0.1,0,0.1-0.1,0.1c-0.1,0-0.3,0.1-0.4,0.1v0c0,0,0,0,0.1,0c0,0,0.1,0,0.1,0c0.1,0,0.1,0,0.1,0.1h0c0.1,0,0.1,0,0.1,0.1
					c0,0.1,0,0.1-0.1,0.1c-0.2,0.1-0.4,0.2-0.6,0.2c0.1,0,0.1,0,0.2,0c0,0,0.1,0,0.1,0c0,0,0,0.1,0,0.1c0,0,0,0,0.1,0s0,0,0.1,0
					c0,0,0.1,0,0.1,0.1c0,0.1,0,0.1-0.1,0.1c-0.4,0.1-0.9,0.2-1.3,0.2c-0.1,0.1-0.2,0.3-0.3,0.6c-0.1,0.2-0.2,0.5-0.3,0.8
					c-0.1,0.3-0.1,0.5-0.2,0.5c-0.2,0.6-0.5,1.2-0.8,1.8c0,0,0,0,0,0.1c-1,2.8-1.6,4.4-1.8,4.9c-0.1,0.3-0.3,0.8-0.6,1.6
					c0,0,0,0.1,0,0.2c0,0,0,0,0.1,0c0,0,0,0,0.1-0.1c0.1,0,0.2,0,0.3-0.1c0.1,0,0.1,0,0.1-0.1c0.1,0,0.2,0,0.3,0c0,0,0,0,0,0.1
					c0,0,0.1,0,0.2,0c0.1,0,0.1,0,0.1,0.1c0.1,0,0.1,0,0.2,0c0.1,0,0.1,0,0.2,0.1c0,0.1,0,0.1-0.1,0.1c0,0,0,0.1,0,0.1c0,0,0,0,0,0
					c0,0,0,0,0,0c0,0,0.1,0,0.1,0c0,0,0,0,0.1,0.1c0,0.1,0,0.1,0,0.2c0.1,0,0.1,0,0.1,0.1c0,0.2-0.1,0.4-0.3,0.6h0
					c0.1,0,0.1,0,0.1,0.1c0,0.1,0,0.1,0,0.1c-0.1,0.1-0.2,0.1-0.4,0.2c0,0,0.1,0.1,0.1,0.1c0,0,0.1,0.1,0.1,0.1c0,0.1,0,0.1-0.1,0.1
					c-0.1,0-0.2,0.1-0.4,0.1l0,0c0,0,0,0-0.1,0c0,0,0,0-0.1,0v0v0c-0.2,0-0.4,0-0.5,0.1c-0.2,0-0.5,0.1-0.7,0.1
					c-0.2,0-0.5,0.1-0.9,0.2c-0.4,0.1-0.6,0.1-0.7,0.2c-0.3,0.1-0.5,0-0.6-0.2c0,0,0-0.1-0.1-0.1c0,0-0.1-0.1-0.1-0.1
					c0,0,0-0.1-0.1-0.1c0,0-0.1-0.1-0.1-0.1c0,0-0.1-0.1-0.3-0.2c0,0,0-0.1,0.1-0.1c-0.1,0-0.2-0.1-0.1-0.1
					c-0.1-0.1-0.2-0.1-0.2-0.1c0,0-0.1,0-0.1-0.1c0,0,0-0.1,0-0.2c0-0.1,0-0.1-0.1-0.2l-0.2,0c0,0,0-0.1,0-0.1
					c0-0.1,0.1-0.2,0.3-0.3c0,0,0.2,0,0.5-0.1c0.3-0.1,0.5-0.1,0.6-0.2c0.2,0,0.3-0.1,0.3-0.3c0.6-2.2,1.3-4.6,2.2-7.1
					c0.2-0.4,0.4-1.1,0.8-2c0,0,0,0,0-0.1c0.1-0.2,0.2-0.4,0.2-0.7c0-0.1,0-0.1,0-0.2l0,0c0,0,0,0-0.1,0c-0.2,0.1-0.4,0.2-0.7,0.3
					c0,0,0,0.1,0,0.1h0c-0.1,0-0.1,0-0.1-0.1c-0.1,0-0.1,0-0.1-0.1s0-0.1,0.1-0.2c-0.1,0-0.2,0-0.3,0c0,0-0.1,0-0.1-0.1
					c0-0.1,0-0.1,0-0.1c0,0,0-0.1,0.1-0.1c0,0,0-0.1,0-0.1s0,0,0-0.1c0,0,0,0,0-0.1c0,0-0.1,0-0.1,0c0,0-0.1,0-0.1-0.1
					c0-0.1,0-0.1,0-0.1c0.1-0.1,0.2-0.3,0.3-0.5c0,0-0.1-0.1-0.1-0.1s0-0.1,0.1-0.1l0,0c0-0.1,0.1-0.2,0.2-0.3c0,0-0.1,0-0.1,0
					c0,0,0-0.1,0-0.1c0.3-0.2,0.9-0.4,1.8-0.6c0,0,0,0,0,0c0,0,0,0,0,0c0.5-0.1,1.1-0.2,1.6-0.3c0.4-0.1,0.9-0.1,1.4-0.2
					c0.1,0,0.1,0,0.1,0.1c0.1,0,0.2,0,0.2,0c0,0,0.1,0,0.1,0.1c0,0.1,0,0.1,0,0.1C38.9,14.7,39,14.7,39.1,14.7z"/>
				<path d="M57.4,16l0.1,0l-0.1,0.1c-0.1,0.2-0.3,0.2-0.6,0.2c-0.2,0-0.4,0-0.6,0c-0.3,0-0.6,0-0.7,0c-0.8,0.1-1.6,0.2-2.5,0.4
					c-0.9,0.2-1.8,0.5-2.7,0.9c0,0,0,0-0.1,0c-0.3,0.1-0.6,0.2-1,0.3c-0.1,0.3-0.2,0.6-0.4,1.1s-0.3,0.8-0.4,1
					c0.6-0.2,1.2-0.3,1.7-0.5c1-0.4,2.1-0.7,3.2-1c0,0,0.1,0.1,0.2,0.1c0.6,0,1,0.1,1.3,0.2c-0.1,0.1-0.1,0.3,0,0.4
					c-0.2,0.3-0.4,0.5-0.6,0.6c-0.1,0-0.1,0.1-0.1,0.2c0,0,0,0,0,0.1s0,0,0,0c0,0,0,0-0.1,0c0,0.1,0,0.2-0.1,0.3
					c-0.3,0.2-0.6,0.4-1,0.6c-0.4,0.2-0.8,0.3-1.3,0.5c-0.5,0.2-0.9,0.3-1.1,0.4c-0.7,0.2-1.2,0.5-1.8,0.7c-0.6,0.3-1,0.5-1.2,0.6
					c-0.4,1.1-0.8,2.3-1.3,3.7c-0.1,0.4-0.3,0.9-0.5,1.5c-0.3,1.1-0.6,1.9-0.8,2.5l0,0.1h-0.1l-0.5,0.1l-0.6,0l0-0.1
					c0,0-0.1,0-0.1,0.1c-0.2,0.1-0.4,0.1-0.5,0.1h0l0-0.1L43,31.6l0-0.3c0-0.1,0-0.3,0-0.4c0-0.4,0-0.7,0.1-0.8
					c0.3-1.3,0.6-2.7,1.1-4.2c0.3-1,0.7-2,1.1-3.1c-0.1-0.1-0.1-0.2-0.2-0.3c0-0.1,0-0.2,0.1-0.2c0-0.1,0-0.2,0.1-0.2
					c0,0,0.1,0,0.1-0.1h-0.1c-0.1,0-0.2,0-0.3-0.1c-0.1-0.1,0-0.3,0.1-0.4c0.2-0.1,0.4-0.3,0.6-0.4c0,0,0.1-0.1,0.1-0.1
					c0,0,0,0,0.1,0c0,0,0,0,0.1,0c0.1-0.6,0.3-1.2,0.6-1.8c-0.2,0.1-0.5,0.3-0.9,0.5c-0.4,0.2-0.7,0.4-0.9,0.5
					c-0.1,0-0.1-0.1-0.1-0.3c0,0,0-0.1,0-0.2c-0.1-0.1-0.1-0.3,0-0.4l0.1-0.1c0-0.1,0-0.2,0-0.3c0.1-0.1,0.2-0.3,0.4-0.4
					c0-0.1,0-0.1,0.1-0.2s0.1-0.1,0.2-0.1c0.1,0,0.1-0.1,0.2-0.1s0.1-0.1,0.1-0.1c0,0,0.1-0.1,0.2-0.1c0.1,0,0.1-0.1,0.1-0.1
					c0-0.1,0-0.2,0.1-0.2c0.1-0.1,0.2-0.2,0.3-0.3c0-0.1,0-0.2,0-0.2c0-0.2,0.2-0.3,0.3-0.3c0.2-0.1,0.4-0.3,0.6-0.6l0,0v0
					c0,0,0,0,0.1,0c0.1-0.1,0.1-0.2,0.1-0.2c0-0.1,0.1-0.1,0.1-0.1c0.1,0,0.1,0.1,0.1,0.1v0v0c0.1-0.2,0.1-0.4,0.2-0.5
					c0,0,0-0.1,0.1-0.1c0,0,0.1,0,0.1,0c0,0,0.1-0.1,0.1-0.1s0.1,0,0.1,0.1c0-0.1,0.1-0.2,0.2-0.3c0.1-0.1,0.1-0.1,0.2,0v0.1
					c0,0,0,0.1,0,0.1l0-0.1c0-0.1,0.1-0.1,0.2-0.1c0,0,0,0.1,0,0.1c0,0,0,0,0,0.1s0,0,0,0.1v0c0,0,0-0.1,0.1-0.2
					c0,0,0.1-0.1,0.1-0.1c0,0,0.1,0,0.1,0c0,0,0.1-0.1,0.1,0c0-0.1,0-0.2,0-0.2c0,0,0.1-0.1,0.1-0.1c0,0,0.1,0,0.1,0
					c0,0,0.1,0,0.1,0.1c0,0,0,0.1,0,0.1s0,0.1,0,0.1c0,0,0,0.1,0,0.1c0,0,0,0.1,0,0.1c0.2,0,0.4-0.1,0.5-0.1h0
					c0.9-0.3,1.8-0.5,2.5-0.6c0.7-0.1,1.4-0.1,2.1-0.1c0.3,0,0.5,0,0.7,0.1c0.3,0,0.5,0.2,0.8,0.4c0,0,0.1,0.1,0.2,0.1
					c0.2,0.1,0.3,0.3,0.4,0.4c0,0,0.1,0,0.1,0c0,0,0,0,0.1,0c0.1,0.1,0.2,0.2,0.2,0.2C57.2,15.9,57.3,16,57.4,16z"/>
				<path d="M65.1,15.4c0.6,0.6,0.8,1.4,0.8,2.3c0,0.7-0.3,1.6-0.8,2.6c-0.6,1.1-1.3,2.2-2.2,3.2c-0.1,0.1-0.2,0.3-0.4,0.5
					c-0.4,0.5-0.7,0.8-0.9,1c-0.6,0.6-1.3,1.2-2,1.9c-0.6,0.5-1.2,1.1-2,1.8c-0.3,0.2-0.6,0.5-1.2,0.9l-0.3,0.2c0,0-0.1,0.1-0.2,0.1
					c0,0-0.1,0-0.1,0h0c-0.1,0-0.2-0.1-0.2-0.2c0-0.1,0-0.1,0-0.1c0,0-0.1,0-0.1-0.1c-0.1-0.1-0.1-0.1-0.2-0.1l0,0l0-0.2
					c-0.1,0-0.2-0.1-0.3-0.1c-0.1,0-0.1-0.1-0.2-0.1l0,0v0c0-0.1,0-0.2-0.2-0.3c0,0-0.1-0.1-0.1-0.2c0,0-0.1-0.1-0.1-0.1
					c0,0-0.1,0-0.1,0c-0.1,0-0.1,0-0.1-0.1c0,0-0.1,0-0.1,0c0,0-0.1,0.1-0.1,0.1l0,0l-0.1-0.2l-0.3,0.2h0c-0.1-0.1-0.1-0.2-0.1-0.4
					v0c0-0.7,0.2-1.6,0.5-2.8c0.1-0.4,0.2-0.9,0.3-1.5l0.1-0.4c0.2-0.8,0.4-1.5,0.5-1.9c0.3-0.9,0.7-2,1.2-3.5
					c0.1-0.3,0.2-0.7,0.5-1.2c0.1-0.2,0.2-0.4,0.2-0.5v-0.1l0.2,0.1l0.2-0.2h0c0,0,0.1,0,0.2,0c0.1,0,0.1-0.1,0.2-0.1
					c0.1,0,0.2,0,0.3-0.1c0.1,0,0.1,0,0.2-0.1h0l0.1,0.1l0.1-0.1l0.1,0.1c0,0,0,0,0,0s0,0,0,0c0.2-0.2,0.3-0.2,0.5-0.2l0,0
					c0.1,0,0.1,0,0.1,0c0,0,0.1,0.1,0.1,0c0,0,0,0,0.1,0c0,0,0,0,0.1,0l0.2-0.1v0.1c0,0,0,0.1-0.1,0.1c0,0.1,0,0.2-0.1,0.3
					c-0.1,0.2-0.2,0.4-0.3,0.8c-0.2,0.6-0.4,1-0.5,1.3c-0.2,0.5-0.4,1.1-0.7,2c-0.3,0.8-0.5,1.5-0.7,2.1c-0.1,0.4-0.4,1.1-0.6,2
					c-0.1,0.3-0.2,0.6-0.2,0.8c0,0.2-0.1,0.4-0.2,0.7L56,26.1l0,0c0.1,0,0.2-0.1,0.2-0.1c0.1,0,0.2-0.2,0.4-0.3
					c0.5-0.5,0.9-0.8,1.2-1.1l0.2-0.2c0.8-0.8,1.4-1.4,1.8-1.8c1.5-1.6,2.6-3,3.3-4.4c0.1-0.1,0.2-0.3,0.3-0.5
					c0-0.1,0.1-0.2,0.1-0.3c0.2-0.4,0.2-0.8,0-1.2c-0.1-0.2-0.2-0.3-0.3-0.4c-0.8-0.5-1.5-0.7-2.3-0.6c-0.2,0-0.5,0.1-0.9,0.1
					c-0.3,0-0.6,0-0.8,0.1c-0.1,0-0.4,0.1-0.7,0.1c-0.2,0-0.4,0.1-0.5,0.1c-0.1,0-0.2,0-0.3,0c0,0-0.1,0-0.2,0h-0.1l0.1-0.2L57,14.9
					l0.1-0.1c-0.1,0-0.3-0.1-0.5-0.2l-0.1-0.1l0.2-0.1l-0.4-0.3l0.1-0.1l-0.5-0.2l0.1-0.1l-0.1-0.1l0.1-0.3h0c0.1,0,0.2,0,0.3-0.1
					c0.3,0,0.5-0.1,0.6-0.1c0.1,0,0.2,0,0.4-0.1c0.7-0.1,1.3-0.2,1.6-0.2l0.2,0c1.1-0.1,1.9-0.1,2.5,0c0.8,0.1,1.4,0.4,1.9,0.9
					c0.1,0.1,0.2,0.2,0.4,0.4C64.4,14.7,64.8,15.1,65.1,15.4z"/>
				<path d="M75.8,19.1c0.1,0,0.1,0,0.1,0.1c0,0.1,0,0.1-0.1,0.1c0,0-0.1,0-0.1,0c-0.1,0-0.1,0-0.1,0c0,0,0,0.1,0,0.1
					c0,0,0,0.1-0.1,0.1c-0.4,0.1-0.7,0.1-0.9,0.2l0,0c0,0-0.1,0-0.1,0.1c0,0-0.1,0-0.1,0c0,0,0.2,0,0.5-0.1c0,0,0.1,0,0.1,0.1v0
					c0.1,0,0.1,0,0.1,0.1c0,0,0.1,0.1,0.1,0.1c0,0.1,0,0.1-0.1,0.1c0,0-0.2,0.1-0.4,0.1l-0.1,0h0c0,0,0.1,0,0.1,0.1l0,0.1
					c0,0-0.1,0-0.1,0c0,0-0.1,0-0.1,0.1c0.1,0.1,0.1,0.1,0,0.2c0,0,0,0-0.1,0c0.1,0,0.1,0,0.1,0.1c0,0.1,0,0.1-0.1,0.1
					c0,0-0.1,0-0.1,0.1c-0.1,0-0.1,0-0.1,0.1c0,0,0,0-0.1,0c-0.3,0.1-0.6,0.2-0.8,0.4c0,0,0,0.1,0,0.1l-0.9,0.2
					c-0.1,0-0.2,0-0.4,0.1c-0.2,0.1-0.4,0.1-0.5,0.1c-0.3,0.1-0.5,0.2-0.8,0.2c0,0,0,0-0.1,0c-0.1,0-0.2,0.1-0.3,0.1
					c-0.1,0-0.2,0.1-0.3,0.1c-0.1,0-0.3,0.1-0.5,0.1s-0.3,0.1-0.5,0.2c-0.2,0.1-0.4,0.1-0.5,0.2c0,0-0.1,0-0.1,0.1
					c-0.1,0.1-0.3,0.6-0.6,1.4v0c0,0.1-0.1,0.2-0.1,0.3c0,0,0,0.1,0,0.1c0,0,0,0,0,0c-0.1,0.1-0.1,0.2-0.1,0.3c0,0,0,0.1,0,0.1
					c-0.1,0.1-0.1,0.2-0.1,0.3c0,0.1,0,0.1,0,0.2v0c0,0.1,0,0.2,0.1,0.2c0.2,0.1,0.5,0.1,0.9-0.1c0.6,0,1.5-0.3,2.8-0.8
					c0.3-0.1,0.6-0.3,0.9-0.4c0,0,0,0,0.1,0c0.4-0.1,0.7-0.2,1-0.3c0,0,0,0,0.1,0c0,0,0,0,0.1,0c0.3-0.1,0.6-0.2,1-0.2
					c0.1,0,0.2,0,0.2-0.1c0.1,0,0.1,0,0.2,0c0.2-0.1,0.3-0.2,0.4-0.2c0.1,0,0.2,0,0.3,0c0.1-0.1,0.3-0.1,0.4-0.1c0.1,0,0.1,0,0.2,0
					s0.1,0.1,0.1,0.2s-0.1,0.1-0.1,0.2c0,0.1,0,0.2-0.1,0.2c-0.1,0-0.2,0.1-0.3,0.1c0,0,0,0-0.1,0.1c0,0.1,0,0.2,0,0.3
					c0.1,0.2,0.1,0.4-0.1,0.5c0,0.1,0,0.2-0.1,0.2c0,0,0,0-0.1,0s0,0,0,0.1h0c-0.1,0.1-0.2,0.1-0.4,0.2c0,0.1,0,0.2-0.1,0.2
					s-0.1,0.1-0.2,0.1c0,0,0,0,0,0c0,0.2-0.1,0.3-0.2,0.4c-0.1,0-0.2,0.1-0.4,0.2c0,0-0.1,0.1-0.1,0.1c-0.2,0.2-0.5,0.3-0.8,0.2
					c-0.2,0-0.3,0.1-0.5,0.2c0,0,0,0,0,0.1c0,0-0.1,0.1-0.1,0.1c-0.1,0-0.2,0.1-0.4,0.1c0,0-0.1,0-0.1,0c0,0-0.1,0-0.2,0.1
					c-0.1,0-0.2,0.1-0.2,0.1c0,0-0.1,0-0.1,0c-0.8,0.3-1.6,0.5-2.4,0.7c-0.1,0-0.4,0.1-0.7,0.2c-0.3,0.1-0.6,0.2-0.8,0.2
					c-0.2,0.1-0.4,0.1-0.7,0.2c-0.3,0-0.5,0.1-0.8,0.1c-0.3,0-0.7-0.1-1-0.4c-0.3-0.2-0.5-0.5-0.5-0.9c0,0,0-0.1,0-0.2h0
					c0,0,0-0.1,0-0.1c0,0,0-0.1,0-0.1c0.1-0.3,0.2-0.6,0.2-0.8c0,0,0-0.1,0.1-0.1c0,0,0-0.1,0-0.1c0.1-0.3,0.2-0.5,0.2-0.7
					c0.2-0.7,0.4-1.4,0.8-2.1c0,0,0-0.1,0.1-0.1s0-0.1,0.1-0.1c-0.4,0.1-0.8,0.2-1.1,0.3c0,0,0.1-0.1,0.2-0.3s0.2-0.4,0.2-0.5
					c0.1-0.1,0.2-0.2,0.3-0.2c0.1,0,0.1-0.1,0.1-0.2c0,0,0-0.1,0-0.2c0-0.1,0-0.2,0.1-0.2c0.1,0,0.2-0.1,0.3-0.2
					c0.1-0.1,0.2-0.2,0.3-0.2c0.1-0.1,0.3-0.3,0.4-0.5c0,0,0-0.1,0.1-0.2l0,0c0.4-0.3,0.9-0.6,1.5-0.7c0.3-0.1,0.7-0.2,1.2-0.4
					c0.1,0,0.2-0.1,0.3-0.1c0.1,0,0.2-0.1,0.3-0.1c0.9-0.3,1.7-0.5,2.3-0.6c0.4-0.1,0.9-0.2,1.3-0.1c0,0,0,0,0.1,0
					c0.1,0,0.2,0,0.3-0.1c0.4-0.1,0.8-0.2,1.2-0.2c0,0,0.1,0,0.1,0c0,0.1,0,0.2-0.1,0.2c0,0,0,0-0.1,0
					C75.3,19.1,75.6,19.1,75.8,19.1z M78.1,15.5c0,0,0.1,0.1,0.1,0.1c0,0.1,0,0.1-0.1,0.1c0,0,0,0-0.1,0h0c-0.4,0-0.8,0.1-1.3,0.2v0
					c0.2,0,0.6,0,1.3-0.1c0,0,0.1,0,0.1,0.1c0,0.1,0,0.1-0.1,0.1c0,0-0.1,0-0.3,0.1c0,0.1,0,0.2-0.1,0.2c-0.2,0-0.4,0.1-0.7,0.1
					c0,0,0,0.1,0,0.1c-0.1,0.1-0.3,0.2-0.5,0.2c0,0,0,0-0.1,0l-0.1,0c-0.1,0-0.1,0-0.1,0h0c-0.9,0.2-1.5,0.3-1.8,0.3
					c-1.1,0.2-2.3,0.6-3.7,1.2c-0.2,0.1-0.4,0.2-0.7,0.3c-0.3,0.1-0.5,0.2-0.6,0.2c-0.4,0.1-0.8,0.3-1.2,0.6
					c-0.1,0.1-0.4,0.2-0.7,0.4c-0.2,0.1-0.4,0-0.5-0.2c-0.1-0.2-0.1-0.3,0-0.5c0.2-0.3,0.4-0.5,0.6-0.7c0,0,0.1-0.2,0.2-0.4
					c0,0,0-0.1,0.1-0.1c0,0,0-0.1,0-0.1c0,0,0-0.1,0.1-0.1c0-0.1,0-0.1,0.1-0.2c0.1-0.2,0.2-0.4,0.2-0.4c0.1,0,0.2-0.2,0.3-0.4
					c0.1-0.2,0.3-0.3,0.6-0.5c0.2-0.1,0.4-0.2,0.7-0.3c0.3-0.2,0.5-0.3,0.6-0.3c0.1,0,0.1-0.1,0.1-0.1c0-0.1,0.1-0.1,0.2-0.2
					c0.1,0,0.3-0.1,0.6-0.2c0,0,0,0,0,0.1c0,0,0,0,0,0.1c0.5-0.1,0.8-0.2,0.8-0.2c1-0.3,2.1-0.5,3.3-0.6c0.2,0,0.4,0,0.6-0.1
					c0,0,0.1,0,0.1,0.1c0.1,0,0.2,0,0.2,0c0.1,0,0.1,0,0.1,0.1s0,0.1-0.1,0.1c0.1,0,0.1,0,0.2,0c0,0,0.1,0,0.1,0.1
					c0.3,0,0.5,0,0.7,0c0,0,0.1,0,0.1,0.1c0,0.1,0,0.1-0.1,0.1c-0.2,0.1-0.4,0.2-0.7,0.2c0.2,0,0.3,0,0.5,0c0,0,0.1,0,0.1,0.1
					C77.5,15.3,77.8,15.4,78.1,15.5z"/>
			</g>
			<g>
			</g>
			<g class="st0">
				<path d="M87.7,26.4h0.1v0.2l-0.1,0c-0.1,0-0.2,0-0.2,0c-0.3,0-0.5,0.1-0.6,0.1c-0.3,0-0.6,0.1-1,0.2c-0.5,0.1-0.9,0.1-1.1,0.1
					c-0.1,0-0.2,0.1-0.3,0.1c0,0-0.1,0-0.1,0c0,0-0.1,0-0.1,0v0.1h0h0c-0.1,0-0.1,0-0.1,0c0,0-0.1-0.1-0.2,0c-0.2,0-0.5,0.1-0.9,0.2
					c-0.8,0.2-1.4,0.4-1.9,0.5c-1.1,0.3-2.1,0.6-3,0.9c-0.3,0.1-0.9,0.3-1.5,0.6c-0.3,0.1-0.5,0.2-0.7,0.3c0,0,0,0-0.1,0l0,0h-0.1
					l0-0.1c0,0,0-0.1-0.1-0.1s-0.1-0.1-0.1-0.1l-0.2,0.1l0,0h0c0,0,0,0-0.1-0.1c0,0,0-0.1,0-0.1s-0.1,0-0.1,0c-0.1,0-0.2,0-0.3-0.1
					c0,0-0.1-0.1-0.2-0.1c0,0-0.1,0-0.1,0c-0.1,0-0.2-0.1-0.4-0.2c-0.1,0-0.1,0-0.1-0.1c-0.1-0.1-0.2-0.2-0.2-0.4v0h0
					c0,0,0.1,0,0.1-0.1c0.1-0.1,0.2-0.2,0.3-0.2c0.1,0,0.2-0.1,0.3-0.3c0,0,0-0.1,0-0.1c0-0.1,0-0.1,0-0.2c0.2-0.5,0.3-0.9,0.4-1.2
					c0.3-0.6,0.7-1.4,1.2-2.2c0,0,0.1-0.1,0.1-0.1l-0.2,0l0-0.1v0c0,0,0-0.1,0-0.1c0,0,0.1-0.2,0.2-0.3c0.3-0.4,0.5-0.7,0.6-0.9
					c0.4-0.6,1.1-1.4,1.9-2.5c0,0,0.3-0.3,0.7-0.9c0,0,0.1-0.1,0.2-0.2l0,0c0,0,0,0-0.1,0c-0.8,0.2-1.5,0.3-2,0.2
					c-0.6-0.1-1-0.2-1.3-0.3c-0.3-0.1-0.5-0.2-0.7-0.5c-0.1-0.1-0.1-0.3,0-0.5v0c0.1-0.1,0.1-0.1,0.1-0.2l0,0l0,0
					c0.1,0,0.1-0.1,0.1-0.3c0-0.2,0.1-0.3,0.1-0.3c0,0,0.1-0.1,0.1-0.3c0-0.1,0-0.2,0.1-0.2c0.1-0.2,0.2-0.3,0.4-0.3l0,0
					c0.1,0.2,0.4,0.4,0.9,0.5c0.2,0,0.4,0.1,0.8,0.1c0.1,0,0.2,0,0.3,0c0.3,0,0.8,0,1.3-0.1c0.8-0.2,1.6-0.4,2.3-0.7
					c0.2-0.1,0.4-0.2,0.5-0.4c0-0.1,0.1-0.2,0.3-0.3l0.1-0.1c0.2-0.2,0.4-0.3,0.6-0.3l0.1,0l0,0h0h0c0,0,0.1,0.1,0.1,0.1
					c0.1,0.1,0.2,0.1,0.3,0.1l0.1,0v0.1c0,0,0.1,0.1,0.2,0.1c0.1,0,0.1,0,0.2,0s0.1,0,0.2,0c0.1,0,0.2,0,0.2,0
					c0.1,0,0.3,0.1,0.6,0.1c0.1,0,0.2,0,0.3,0c0.1,0,0.2,0.1,0.3,0.2c0.1,0.1,0.1,0.1,0.1,0.2c0,0.1,0,0.1-0.1,0.2
					c-0.1,0.1-0.2,0.2-0.3,0.3c-0.1,0.1-0.2,0.1-0.2,0.1c-0.9,0.7-1.6,1.5-2.3,2.2L83.5,19c-1.1,1.3-1.9,2.3-2.5,2.9
					c-0.6,0.7-1.3,1.7-2.3,3c0,0.1-0.1,0.2-0.1,0.2c-0.2,0.3-0.4,0.6-0.5,0.7c0,0.1-0.1,0.2-0.2,0.2c0,0-0.1,0-0.1,0.1l0,0
					c0,0,0.1,0,0.1,0c1-0.4,2-0.7,3.1-0.7c0.3,0,0.7,0,1.2-0.1c0.9-0.1,1.8-0.1,2.7,0c0.1,0,0.2,0,0.4,0c0.3,0,0.5,0.1,0.6,0.1
					c0.4,0.1,0.7,0.3,1,0.5c0.1,0,0.2,0.1,0.3,0.1c0.2,0,0.3,0.1,0.4,0.2C87.6,26.4,87.6,26.4,87.7,26.4z"/>
			</g>
			<g class="st0">
				<path class="st1" d="M11.9,13.4c0.6,0.6,0.8,1.4,0.8,2.3c0,0.7-0.3,1.6-0.8,2.6c-0.6,1.1-1.3,2.2-2.2,3.2
					c-0.1,0.1-0.2,0.3-0.4,0.5c-0.4,0.5-0.7,0.8-0.9,1c-0.6,0.6-1.3,1.2-2,1.9c-0.6,0.5-1.2,1.1-2,1.8c-0.3,0.2-0.6,0.5-1.2,0.9
					l-0.3,0.2c0,0-0.1,0.1-0.2,0.1c0,0-0.1,0-0.1,0h0c-0.1,0-0.2-0.1-0.2-0.2c0-0.1,0-0.1,0-0.1c0,0-0.1,0-0.1-0.1
					c-0.1-0.1-0.1-0.1-0.2-0.1l0,0l0-0.2c-0.1,0-0.2-0.1-0.3-0.1C1.6,27,1.6,27,1.5,27l0,0v0c0-0.1,0-0.2-0.2-0.3
					c0,0-0.1-0.1-0.1-0.2c0,0-0.1-0.1-0.1-0.1c0,0-0.1,0-0.1,0c-0.1,0-0.1,0-0.1-0.1c0,0-0.1,0-0.1,0c0,0-0.1,0.1-0.1,0.1l0,0
					l-0.1-0.2l-0.3,0.2h0C0.1,26.4,0,26.3,0,26.1v0c0-0.7,0.2-1.6,0.5-2.8c0.1-0.4,0.2-0.9,0.3-1.5L1,21.4c0.2-0.8,0.4-1.5,0.5-1.9
					c0.3-0.9,0.7-2,1.2-3.5c0.1-0.3,0.2-0.7,0.5-1.2c0.1-0.2,0.2-0.4,0.2-0.5v-0.1l0.2,0.1l0.2-0.2h0c0,0,0.1,0,0.2,0
					c0.1,0,0.1-0.1,0.2-0.1c0.1,0,0.2,0,0.3-0.1c0.1,0,0.1,0,0.2-0.1h0l0.1,0.1L5,14l0.1,0.1c0,0,0,0,0,0c0,0,0,0,0,0
					c0.2-0.2,0.3-0.2,0.5-0.2l0,0c0.1,0,0.1,0,0.1,0c0,0,0.1,0.1,0.1,0c0,0,0,0,0.1,0c0,0,0,0,0.1,0l0.2-0.1v0.1c0,0,0,0.1-0.1,0.1
					c0,0.1,0,0.2-0.1,0.3c-0.1,0.2-0.2,0.4-0.3,0.8c-0.2,0.6-0.4,1-0.5,1.3c-0.2,0.5-0.4,1.1-0.7,2c-0.3,0.8-0.5,1.5-0.7,2.1
					c-0.1,0.4-0.4,1.1-0.6,2c-0.1,0.3-0.2,0.6-0.2,0.8c0,0.2-0.1,0.4-0.2,0.7l-0.1,0.2l0,0C3,24,3,23.9,3,23.9
					c0.1,0,0.2-0.2,0.4-0.3c0.5-0.5,0.9-0.8,1.2-1.1l0.2-0.2c0.8-0.8,1.4-1.4,1.8-1.8c1.5-1.6,2.6-3,3.3-4.4
					c0.1-0.1,0.2-0.3,0.3-0.5c0-0.1,0.1-0.2,0.1-0.3c0.2-0.4,0.2-0.8,0-1.2c-0.1-0.2-0.2-0.3-0.3-0.4c-0.8-0.5-1.5-0.7-2.3-0.6
					c-0.2,0-0.5,0.1-0.9,0.1c-0.4,0-0.6,0-0.8,0.1c-0.1,0-0.4,0.1-0.7,0.1c-0.2,0-0.4,0.1-0.5,0.1c-0.1,0-0.2,0-0.3,0
					c0,0-0.1,0-0.2,0H4.2l0.1-0.2l-0.5-0.3l0.1-0.1c-0.1,0-0.3-0.1-0.5-0.2l-0.1-0.1l0.2-0.1l-0.4-0.3l0.1-0.1l-0.5-0.2l0.1-0.1
					l-0.1-0.1l0.1-0.3h0c0.1,0,0.2,0,0.3-0.1c0.3,0,0.5-0.1,0.6-0.1c0.1,0,0.2,0,0.4-0.1c0.7-0.1,1.3-0.2,1.6-0.2l0.2,0
					c1.1-0.1,1.9-0.1,2.4,0c0.8,0.1,1.4,0.4,1.9,0.9c0.1,0.1,0.2,0.2,0.4,0.4C11.2,12.7,11.6,13.1,11.9,13.4z"/>
				<path class="st1" d="M21.6,11.9L21.6,11.9L21.6,11.9c0.1,0.1,0.1,0.1,0.1,0.1c0,0.1,0,0.2,0,0.2c-0.1,0.9-0.3,2-0.6,3.1
					c-0.2,0.8-0.5,1.8-0.8,3c-0.1,0.5-0.4,1.2-0.6,2.2c-0.2,0.7-0.3,1.1-0.4,1.4l-0.2,0.6c-0.3,1-0.5,1.7-0.6,2.2
					c-0.1,0.4-0.3,1.1-0.6,2.1c-0.1,0.3-0.1,0.5-0.1,0.6c0,0.1,0,0.2-0.1,0.3c0,0.1,0,0.2-0.1,0.3c0,0,0,0.1-0.1,0.1c0,0,0,0,0,0.1
					l0,0l-0.2-0.1l-0.5,0.3l-0.1-0.1c0,0-0.1,0.1-0.2,0.2c-0.1,0.1-0.2,0.1-0.2,0.2l0,0L16,28.7L15.6,29l0-0.1l-0.4,0.3l-0.1-0.1
					c0,0-0.1,0.1-0.1,0.1c0,0-0.1,0-0.2-0.1h-0.1l-0.1,0l0-0.4c0-0.3,0-0.6,0.1-0.7c0-0.7,0-1.2,0-1.7c0-0.1,0-0.2,0-0.3
					c0-0.3-0.1-0.6-0.1-0.8c-0.2-0.8-0.5-1.6-1-2.2c0,0,0,0,0,0c-0.8,1.3-1.4,2.5-1.9,3.5l0,0h0c-0.2,0-0.4,0-0.6,0.2l0,0L11,26.6
					l-0.5,0.3l-0.1-0.1L10.3,27c-0.2,0.1-0.4,0.2-0.5,0.3c-0.1,0-0.3,0.1-0.5,0c0,0-0.1,0-0.1,0H9.1V27l0,0l0,0c0,0,0.1,0,0.1,0
					c0-0.1,0.1-0.2,0.2-0.3c-0.1-0.1-0.2-0.3-0.1-0.5c0.3-0.4,0.6-0.9,0.9-1.4c0.3-0.5,0.7-1.1,1.1-1.6c0.4-0.6,0.7-1,0.9-1.4
					c-0.1-0.1-0.2-0.2-0.4-0.2l0,0c-0.1-0.1-0.3-0.2-0.6-0.3c-0.1,0-0.2-0.1-0.2-0.1l-0.4-0.2l0-0.1l0.3,0l-0.1-0.1l0.3-0.1
					c0.2-0.1,0.4-0.2,0.5-0.2c0.1,0,0.1,0,0.2-0.1c0.1,0,0.2-0.1,0.3-0.1c0.1-0.1,0.2-0.1,0.4-0.2c0.2,0,0.4-0.1,0.7-0.1
					c0.1,0,0.3,0,0.4,0h0c0.4-0.6,0.6-1,0.7-1.1c0.3-0.4,0.5-0.8,0.8-1.1l1.4-2c0.1-0.1,0.2-0.3,0.4-0.5c0.2-0.2,0.3-0.4,0.4-0.6
					c0.1-0.2,0.3-0.4,0.4-0.5c0.4-0.5,0.7-0.7,0.9-0.8c0,0,0,0,0.1,0c0.1,0,0.1,0,0.1-0.1c0.1,0,0.2-0.1,0.3,0c0,0,0.1,0,0.1,0
					c0.1,0,0.1,0,0.1-0.1c0.1,0,0.2-0.1,0.4-0.2c0,0,0.1,0,0.1-0.1c0,0,0.1,0,0.1,0h0h0c0,0,0.1,0,0.1,0s0,0,0,0c0,0,0.1-0.1,0.2,0
					c0,0,0.1,0,0.1-0.1c0-0.1,0.2-0.2,0.4-0.3c0,0,0.1,0,0.1,0c0,0,0,0,0.1,0c0.1,0,0.2,0,0.3,0C21.5,11.9,21.5,11.9,21.6,11.9z
					 M16.6,21.9C17,20.6,17.4,19,18,17l-2.7,3.5c0,0,0.1,0.1,0.1,0.1c0.2,0.1,0.3,0.2,0.4,0.3c0.1,0.1,0.3,0.3,0.5,0.5
					c0,0,0.1,0.1,0.2,0.2C16.5,21.8,16.5,21.8,16.6,21.9z"/>
				<path class="st1" d="M31.4,12.2c0,0.2,0,0.5,0,0.7v0c0,0.3-0.1,0.7-0.1,0.9c-0.1,0.6-0.2,1.3-0.4,2.1c0,0.1,0,0.4-0.1,0.8
					c0,0.4-0.1,0.6-0.1,0.8c0,0.1,0,0.3-0.1,0.5c0,0.3-0.1,0.4-0.1,0.6c0,0.1,0,0.3-0.1,0.7c0,0.2-0.1,0.3-0.1,0.5
					c0,0.2-0.1,0.6-0.2,1c-0.1,0.7-0.2,1.2-0.3,1.5c0,0.2-0.1,0.5-0.2,0.9c-0.1,0.4-0.2,0.8-0.2,1c-0.1,0.6-0.3,1.2-0.5,1.9
					c-0.2,0.5-0.3,0.9-0.5,1.2c-0.2,0.3-0.4,0.4-0.6,0.4c0,0,0,0-0.1,0c-0.2,0.1-0.5,0.2-0.7,0.3c0,0-0.1,0-0.1,0
					c-0.1,0-0.3,0-0.5,0.1c-0.1,0-0.2,0-0.3,0.1c-0.1,0-0.1,0-0.2,0c-0.1,0-0.3,0-0.4-0.1c-0.2-0.2-0.4-0.4-0.5-0.7
					c-0.3-0.6-0.5-1.1-0.7-1.5c-0.4-0.9-0.8-2.3-1.2-4c0,0,0-0.1,0-0.1L23,22c-0.7,2-1.3,3.5-1.8,4.4v0h-0.1c-0.2,0-0.3,0-0.5,0.1
					l0,0l-0.1-0.1c0,0,0,0-0.1,0.1c-0.1,0.1-0.2,0.1-0.2,0.1c0,0-0.1,0-0.1,0c0,0-0.1,0-0.1,0c-0.1,0-0.2,0.1-0.4,0.1
					c0,0-0.1,0-0.2,0.1c-0.2,0.1-0.3,0.1-0.5,0l0,0v0c0-0.1,0.1-0.2,0.1-0.3c0.1-0.3,0.2-0.5,0.2-0.6c0-0.2,0.1-0.4,0.2-0.6
					c0.3-0.8,0.5-1.4,0.6-1.8c0.2-0.6,0.4-1.3,0.5-1.9c0.2-0.9,0.5-1.8,0.7-2.9c0.1-0.5,0.2-1.2,0.4-2.2c0-0.2,0.1-0.5,0.1-0.7
					c0-0.8,0-1.4,0.1-1.9v-0.1c0.1-0.3,0.2-0.6,0.3-0.8l0,0l0.1,0.1l0.2-0.2h0.1l0.9-0.5l0.1,0.1l0.1-0.1l0.1,0l0,0
					c0,0,0.1-0.1,0.1-0.1c0.1-0.1,0.2-0.2,0.3-0.2c0,0,0.1,0,0.2-0.1c0,0,0,0,0.1-0.1h0.1l0.1,0.1l0.4-0.2l0,0.1l0,0
					c0,0.1,0,0.1,0,0.1c0,0.3,0,0.5-0.1,0.7c0,0.5-0.1,0.9-0.2,1.3c0,0.3-0.1,0.5-0.1,0.6c-0.1,0.3-0.1,0.6,0,1.1
					c0.1,0.5,0.2,1.1,0.3,1.9c0,0.2,0.1,0.6,0.2,1.2c0.1,0.4,0.1,0.7,0.2,0.9c0,0.1,0.1,0.3,0.1,0.5c0.1,0.3,0.1,0.6,0.1,0.7
					c0.1,0.5,0.2,1.1,0.4,1.7c0.1,0.3,0.2,0.8,0.4,1.4l0.1,0.5c0,0,0,0.1,0.1,0.2v0l0.1-0.4c0.1-0.8,0.2-1.3,0.2-1.7
					c0-0.1,0.1-0.7,0.2-1.6c0.2-1.3,0.3-2.2,0.4-2.7l0.1-0.7c0.1-0.7,0.1-1.2,0.2-1.5c0-0.2,0.1-0.5,0.1-0.9c0-0.4,0-0.6,0.1-0.7
					v-0.1l0-0.1l0,0l0-0.1c0,0,0-0.1,0-0.1s0-0.1,0-0.1c0-0.1,0.1-0.2,0.1-0.3c0,0,0.1-0.1,0.1-0.1s0.1,0,0.1,0.1v0.1
					c0,0,0.1,0.1,0,0.1c0,0,0,0,0,0.1c0,0,0,0.1,0,0.1c0-0.1,0.1-0.2,0.1-0.3c0-0.2,0.1-0.3,0.1-0.3c0-0.1,0.1-0.2,0.1-0.3
					c0.1-0.1,0.1-0.2,0.1-0.2c0,0,0.1-0.2,0.2-0.5s0.2-0.5,0.4-0.7c0,0,0.1-0.1,0.1,0c0,0,0.1,0,0.1,0.1c0,0.1,0,0.3,0,0.4
					c0-0.1,0.1-0.3,0.1-0.4c0,0,0.1-0.1,0.1-0.1c0.1,0,0.1,0,0.1,0.1c0,0,0,0.1,0,0.1c0-0.1,0.1-0.2,0.1-0.3s0.1-0.1,0.2-0.1
					c0.1,0.1,0.1,0.3,0.1,0.7c0,0,0,0,0,0c0,0,0.1,0,0.1,0c0.1,0,0.1,0.1,0.1,0.1c0,0.3,0,0.6-0.1,0.9c0.1-0.1,0.2-0.3,0.2-0.5
					c0.1-0.2,0.2-0.4,0.2-0.4C31.2,12.1,31.2,12.1,31.4,12.2C31.3,12.1,31.4,12.2,31.4,12.2z"/>
				<path class="st1" d="M39.1,12.7c0,0,0.1,0,0.1,0.1c0,0.1,0,0.1,0,0.1c-0.2,0-0.3,0.1-0.5,0.2c0.1,0,0.1,0.1,0.1,0.1
					c0.1,0,0.1,0,0.1,0.1c0,0.1,0,0.1-0.1,0.1c-0.1,0-0.3,0.1-0.4,0.1v0c0,0,0,0,0.1,0c0,0,0.1,0,0.1,0c0.1,0,0.1,0,0.1,0.1h0
					c0.1,0,0.1,0,0.1,0.1c0,0.1,0,0.1-0.1,0.1c-0.2,0.1-0.4,0.2-0.6,0.2c0.1,0,0.1,0,0.2,0c0,0,0.1,0,0.1,0c0,0,0,0.1,0,0.1
					c0,0,0,0,0.1,0s0,0,0.1,0c0,0,0.1,0,0.1,0.1c0,0.1,0,0.1-0.1,0.1c-0.4,0.1-0.9,0.2-1.3,0.2c-0.1,0.1-0.2,0.3-0.3,0.6
					c-0.1,0.2-0.2,0.5-0.3,0.8c-0.1,0.3-0.1,0.5-0.2,0.5c-0.2,0.6-0.5,1.2-0.8,1.8c0,0,0,0,0,0.1c-1,2.8-1.6,4.4-1.8,4.9
					c-0.1,0.3-0.3,0.8-0.6,1.6c0,0,0,0.1,0,0.2c0,0,0,0,0.1,0c0,0,0,0,0.1-0.1c0.1,0,0.2,0,0.3-0.1c0.1,0,0.1,0,0.1-0.1
					c0.1,0,0.2,0,0.3,0c0,0,0,0,0,0.1c0,0,0.1,0,0.2,0c0.1,0,0.1,0,0.1,0.1c0.1,0,0.1,0,0.2,0c0.1,0,0.1,0,0.2,0.1
					c0,0.1,0,0.1-0.1,0.1c0,0,0,0.1,0,0.1c0,0,0,0,0,0c0,0,0,0,0,0c0,0,0.1,0,0.1,0c0,0,0,0,0.1,0.1c0,0.1,0,0.1,0,0.2
					c0.1,0,0.1,0,0.1,0.1c0,0.2-0.1,0.4-0.3,0.6h0c0.1,0,0.1,0,0.1,0.1c0,0.1,0,0.1,0,0.1c-0.1,0.1-0.2,0.1-0.4,0.2
					c0,0,0.1,0.1,0.1,0.1c0,0,0.1,0.1,0.1,0.1c0,0.1,0,0.1-0.1,0.1c-0.1,0-0.2,0.1-0.4,0.1l0,0c0,0,0,0-0.1,0c0,0,0,0-0.1,0v0v0
					c-0.2,0-0.4,0-0.5,0.1c-0.2,0-0.5,0.1-0.7,0.1c-0.2,0-0.5,0.1-0.9,0.2c-0.4,0.1-0.6,0.1-0.7,0.2c-0.3,0.1-0.5,0-0.6-0.2
					c0,0,0-0.1-0.1-0.1c0,0-0.1-0.1-0.1-0.1c0,0,0-0.1-0.1-0.1c0,0-0.1-0.1-0.1-0.1c0,0-0.1-0.1-0.3-0.2c0,0,0-0.1,0.1-0.1
					c-0.1,0-0.2-0.1-0.1-0.1c-0.1-0.1-0.2-0.1-0.2-0.1c0,0-0.1,0-0.1-0.1c0,0,0-0.1,0-0.2c0-0.1,0-0.1-0.1-0.2l-0.2,0
					c0,0,0-0.1,0-0.1c0-0.1,0.1-0.2,0.3-0.3c0,0,0.2,0,0.5-0.1c0.3-0.1,0.5-0.1,0.6-0.2c0.2,0,0.3-0.1,0.3-0.3
					c0.6-2.2,1.3-4.6,2.2-7.1c0.2-0.4,0.4-1.1,0.8-2c0,0,0,0,0-0.1c0.1-0.2,0.2-0.4,0.2-0.7c0-0.1,0-0.1,0-0.2l0,0c0,0,0,0-0.1,0
					c-0.2,0.1-0.4,0.2-0.7,0.3c0,0,0,0.1,0,0.1h0c-0.1,0-0.1,0-0.1-0.1c-0.1,0-0.1,0-0.1-0.1s0-0.1,0.1-0.2c-0.1,0-0.2,0-0.3,0
					c0,0-0.1,0-0.1-0.1c0-0.1,0-0.1,0-0.1c0,0,0-0.1,0.1-0.1c0,0,0-0.1,0-0.1s0,0,0-0.1c0,0,0,0,0-0.1c0,0-0.1,0-0.1,0
					c0,0-0.1,0-0.1-0.1c0-0.1,0-0.1,0-0.1c0.1-0.1,0.2-0.3,0.3-0.5c0,0-0.1-0.1-0.1-0.1s0-0.1,0.1-0.1l0,0c0-0.1,0.1-0.2,0.2-0.3
					c0,0-0.1,0-0.1,0c0,0,0-0.1,0-0.1c0.3-0.2,0.9-0.4,1.8-0.6c0,0,0,0,0,0c0,0,0,0,0,0c0.5-0.1,1.1-0.2,1.6-0.3
					c0.4-0.1,0.9-0.1,1.4-0.2c0.1,0,0.1,0,0.1,0.1c0.1,0,0.2,0,0.2,0c0,0,0.1,0,0.1,0.1c0,0.1,0,0.1,0,0.1
					C38.9,12.7,39,12.7,39.1,12.7z"/>
				<path class="st1" d="M57.4,14l0.1,0l-0.1,0.1c-0.1,0.2-0.3,0.2-0.6,0.2c-0.2,0-0.4,0-0.6,0c-0.3,0-0.6,0-0.7,0
					c-0.8,0.1-1.6,0.2-2.5,0.4c-0.9,0.2-1.8,0.5-2.7,0.9c0,0,0,0-0.1,0c-0.3,0.1-0.6,0.2-1,0.3c-0.1,0.3-0.2,0.6-0.4,1.1
					s-0.3,0.8-0.4,1c0.6-0.2,1.2-0.3,1.7-0.5c1-0.4,2.1-0.7,3.2-1c0,0,0.1,0.1,0.2,0.1c0.6,0,1,0.1,1.3,0.2c-0.1,0.1-0.1,0.3,0,0.4
					c-0.2,0.3-0.4,0.5-0.6,0.6c-0.1,0-0.1,0.1-0.1,0.2c0,0,0,0,0,0.1s0,0,0,0c0,0,0,0-0.1,0c0,0.1,0,0.2-0.1,0.3
					c-0.3,0.2-0.6,0.4-1,0.6c-0.4,0.2-0.8,0.3-1.3,0.5c-0.5,0.2-0.9,0.3-1.1,0.4c-0.7,0.2-1.2,0.5-1.8,0.7c-0.6,0.3-1,0.5-1.2,0.6
					c-0.4,1.1-0.8,2.3-1.3,3.7c-0.1,0.4-0.3,0.9-0.5,1.5c-0.3,1.1-0.6,1.9-0.8,2.5l0,0.1h-0.1l-0.5,0.1l-0.6,0l0-0.1
					c0,0-0.1,0-0.1,0.1c-0.2,0.1-0.4,0.1-0.5,0.1h0l0-0.1L43,29.6l0-0.3c0-0.1,0-0.3,0-0.4c0-0.4,0-0.7,0.1-0.8
					c0.3-1.3,0.6-2.7,1.1-4.2c0.3-1,0.7-2,1.1-3.1c-0.1-0.1-0.1-0.2-0.2-0.3c0-0.1,0-0.2,0.1-0.2c0-0.1,0-0.2,0.1-0.2
					c0,0,0.1,0,0.1-0.1h-0.1c-0.1,0-0.2,0-0.3-0.1c-0.1-0.1,0-0.3,0.1-0.4c0.2-0.1,0.4-0.3,0.6-0.4c0,0,0.1-0.1,0.1-0.1
					c0,0,0,0,0.1,0c0,0,0,0,0.1,0c0.1-0.6,0.3-1.2,0.6-1.8c-0.2,0.1-0.5,0.3-0.9,0.5c-0.4,0.2-0.7,0.4-0.9,0.5
					c-0.1,0-0.1-0.1-0.1-0.3c0,0,0-0.1,0-0.2c-0.1-0.1-0.1-0.3,0-0.4l0.1-0.1c0-0.1,0-0.2,0-0.3c0.1-0.1,0.2-0.3,0.4-0.4
					c0-0.1,0-0.1,0.1-0.2s0.1-0.1,0.2-0.1c0.1,0,0.1-0.1,0.2-0.1s0.1-0.1,0.1-0.1c0,0,0.1-0.1,0.2-0.1c0.1,0,0.1-0.1,0.1-0.1
					c0-0.1,0-0.2,0.1-0.2c0.1-0.1,0.2-0.2,0.3-0.3c0-0.1,0-0.2,0-0.2c0-0.2,0.2-0.3,0.3-0.3c0.2-0.1,0.4-0.3,0.6-0.6l0,0v0
					c0,0,0,0,0.1,0c0.1-0.1,0.1-0.2,0.1-0.2c0-0.1,0.1-0.1,0.1-0.1c0.1,0,0.1,0.1,0.1,0.1v0v0c0.1-0.2,0.1-0.4,0.2-0.5
					c0,0,0-0.1,0.1-0.1c0,0,0.1,0,0.1,0c0,0,0.1-0.1,0.1-0.1s0.1,0,0.1,0.1c0-0.1,0.1-0.2,0.2-0.3c0.1-0.1,0.1-0.1,0.2,0v0.1
					c0,0,0,0.1,0,0.1l0-0.1c0-0.1,0.1-0.1,0.2-0.1c0,0,0,0.1,0,0.1c0,0,0,0,0,0.1s0,0,0,0.1v0c0,0,0-0.1,0.1-0.2
					c0,0,0.1-0.1,0.1-0.1c0,0,0.1,0,0.1,0c0,0,0.1-0.1,0.1,0c0-0.1,0-0.2,0-0.2c0,0,0.1-0.1,0.1-0.1c0,0,0.1,0,0.1,0
					c0,0,0.1,0,0.1,0.1c0,0,0,0.1,0,0.1s0,0.1,0,0.1c0,0,0,0.1,0,0.1c0,0,0,0.1,0,0.1c0.2,0,0.4-0.1,0.5-0.1h0
					c0.9-0.3,1.8-0.5,2.5-0.6c0.7-0.1,1.4-0.1,2.1-0.1c0.3,0,0.5,0,0.7,0.1c0.3,0,0.5,0.2,0.8,0.4c0,0,0.1,0.1,0.2,0.1
					c0.2,0.1,0.3,0.3,0.4,0.4c0,0,0.1,0,0.1,0c0,0,0,0,0.1,0c0.1,0.1,0.2,0.2,0.2,0.2C57.2,13.9,57.3,14,57.4,14z"/>
				<path class="st1" d="M65.1,13.4c0.6,0.6,0.8,1.4,0.8,2.3c0,0.7-0.3,1.6-0.8,2.6c-0.6,1.1-1.3,2.2-2.2,3.2
					c-0.1,0.1-0.2,0.3-0.4,0.5c-0.4,0.5-0.7,0.8-0.9,1c-0.6,0.6-1.3,1.2-2,1.9c-0.6,0.5-1.2,1.1-2,1.8c-0.3,0.2-0.6,0.5-1.2,0.9
					l-0.3,0.2c0,0-0.1,0.1-0.2,0.1c0,0-0.1,0-0.1,0h0c-0.1,0-0.2-0.1-0.2-0.2c0-0.1,0-0.1,0-0.1c0,0-0.1,0-0.1-0.1
					c-0.1-0.1-0.1-0.1-0.2-0.1l0,0l0-0.2c-0.1,0-0.2-0.1-0.3-0.1c-0.1,0-0.1-0.1-0.2-0.1l0,0v0c0-0.1,0-0.2-0.2-0.3
					c0,0-0.1-0.1-0.1-0.2c0,0-0.1-0.1-0.1-0.1c0,0-0.1,0-0.1,0c-0.1,0-0.1,0-0.1-0.1c0,0-0.1,0-0.1,0c0,0-0.1,0.1-0.1,0.1l0,0
					l-0.1-0.2l-0.3,0.2h0c-0.1-0.1-0.1-0.2-0.1-0.4v0c0-0.7,0.2-1.6,0.5-2.8c0.1-0.4,0.2-0.9,0.3-1.5l0.1-0.4
					c0.2-0.8,0.4-1.5,0.5-1.9c0.3-0.9,0.7-2,1.2-3.5c0.1-0.3,0.2-0.7,0.5-1.2c0.1-0.2,0.2-0.4,0.2-0.5v-0.1l0.2,0.1l0.2-0.2h0
					c0,0,0.1,0,0.2,0c0.1,0,0.1-0.1,0.2-0.1c0.1,0,0.2,0,0.3-0.1c0.1,0,0.1,0,0.2-0.1h0l0.1,0.1l0.1-0.1l0.1,0.1c0,0,0,0,0,0
					s0,0,0,0c0.2-0.2,0.3-0.2,0.5-0.2l0,0c0.1,0,0.1,0,0.1,0c0,0,0.1,0.1,0.1,0c0,0,0,0,0.1,0c0,0,0,0,0.1,0l0.2-0.1v0.1
					c0,0,0,0.1-0.1,0.1c0,0.1,0,0.2-0.1,0.3c-0.1,0.2-0.2,0.4-0.3,0.8c-0.2,0.6-0.4,1-0.5,1.3c-0.2,0.5-0.4,1.1-0.7,2
					c-0.3,0.8-0.5,1.5-0.7,2.1c-0.1,0.4-0.4,1.1-0.6,2c-0.1,0.3-0.2,0.6-0.2,0.8c0,0.2-0.1,0.4-0.2,0.7L56,24.1l0,0
					c0.1,0,0.2-0.1,0.2-0.1c0.1,0,0.2-0.2,0.4-0.3c0.5-0.5,0.9-0.8,1.2-1.1l0.2-0.2c0.8-0.8,1.4-1.4,1.8-1.8c1.5-1.6,2.6-3,3.3-4.4
					c0.1-0.1,0.2-0.3,0.3-0.5c0-0.1,0.1-0.2,0.1-0.3c0.2-0.4,0.2-0.8,0-1.2c-0.1-0.2-0.2-0.3-0.3-0.4c-0.8-0.5-1.5-0.7-2.3-0.6
					c-0.2,0-0.5,0.1-0.9,0.1c-0.3,0-0.6,0-0.8,0.1c-0.1,0-0.4,0.1-0.7,0.1c-0.2,0-0.4,0.1-0.5,0.1c-0.1,0-0.2,0-0.3,0
					c0,0-0.1,0-0.2,0h-0.1l0.1-0.2L57,12.9l0.1-0.1c-0.1,0-0.3-0.1-0.5-0.2l-0.1-0.1l0.2-0.1l-0.4-0.3l0.1-0.1l-0.5-0.2l0.1-0.1
					l-0.1-0.1l0.1-0.3h0c0.1,0,0.2,0,0.3-0.1c0.3,0,0.5-0.1,0.6-0.1c0.1,0,0.2,0,0.4-0.1c0.7-0.1,1.3-0.2,1.6-0.2l0.2,0
					c1.1-0.1,1.9-0.1,2.5,0c0.8,0.1,1.4,0.4,1.9,0.9c0.1,0.1,0.2,0.2,0.4,0.4C64.4,12.7,64.8,13.1,65.1,13.4z"/>
				<path class="st1" d="M75.8,17.1c0.1,0,0.1,0,0.1,0.1c0,0.1,0,0.1-0.1,0.1c0,0-0.1,0-0.1,0c-0.1,0-0.1,0-0.1,0c0,0,0,0.1,0,0.1
					c0,0,0,0.1-0.1,0.1c-0.4,0.1-0.7,0.1-0.9,0.2l0,0c0,0-0.1,0-0.1,0.1c0,0-0.1,0-0.1,0c0,0,0.2,0,0.5-0.1c0,0,0.1,0,0.1,0.1v0
					c0.1,0,0.1,0,0.1,0.1c0,0,0.1,0.1,0.1,0.1c0,0.1,0,0.1-0.1,0.1c0,0-0.2,0.1-0.4,0.1l-0.1,0h0c0,0,0.1,0,0.1,0.1l0,0.1
					c0,0-0.1,0-0.1,0c0,0-0.1,0-0.1,0.1c0.1,0.1,0.1,0.1,0,0.2c0,0,0,0-0.1,0c0.1,0,0.1,0,0.1,0.1c0,0.1,0,0.1-0.1,0.1
					c0,0-0.1,0-0.1,0.1c-0.1,0-0.1,0-0.1,0.1c0,0,0,0-0.1,0c-0.3,0.1-0.6,0.2-0.8,0.4c0,0,0,0.1,0,0.1l-0.9,0.2
					c-0.1,0-0.2,0-0.4,0.1S71.5,20,71.4,20c-0.3,0.1-0.5,0.2-0.8,0.2c0,0,0,0-0.1,0c-0.1,0-0.2,0.1-0.3,0.1c-0.1,0-0.2,0.1-0.3,0.1
					c-0.1,0-0.3,0.1-0.5,0.1s-0.3,0.1-0.5,0.2c-0.2,0.1-0.4,0.1-0.5,0.2c0,0-0.1,0-0.1,0.1c-0.1,0.1-0.3,0.6-0.6,1.4v0
					c0,0.1-0.1,0.2-0.1,0.3c0,0,0,0.1,0,0.1c0,0,0,0,0,0c-0.1,0.1-0.1,0.2-0.1,0.3c0,0,0,0.1,0,0.1c-0.1,0.1-0.1,0.2-0.1,0.3
					c0,0.1,0,0.1,0,0.2v0c0,0.1,0,0.2,0.1,0.2c0.2,0.1,0.5,0.1,0.9-0.1c0.6,0,1.5-0.3,2.8-0.8c0.3-0.1,0.6-0.3,0.9-0.4
					c0,0,0,0,0.1,0c0.4-0.1,0.7-0.2,1-0.3c0,0,0,0,0.1,0c0,0,0,0,0.1,0c0.3-0.1,0.6-0.2,1-0.2c0.1,0,0.2,0,0.2-0.1
					c0.1,0,0.1,0,0.2,0c0.2-0.1,0.3-0.2,0.4-0.2c0.1,0,0.2,0,0.3,0c0.1-0.1,0.3-0.1,0.4-0.1c0.1,0,0.1,0,0.2,0
					c0.1,0.1,0.1,0.1,0.1,0.2s-0.1,0.1-0.1,0.2c0,0.1,0,0.2-0.1,0.2c-0.1,0-0.2,0.1-0.3,0.1c0,0,0,0-0.1,0.1c0,0.1,0,0.2,0,0.3
					c0.1,0.2,0.1,0.4-0.1,0.5c0,0.1,0,0.2-0.1,0.2c0,0,0,0-0.1,0s0,0,0,0.1h0c-0.1,0.1-0.2,0.1-0.4,0.2c0,0.1,0,0.2-0.1,0.2
					s-0.1,0.1-0.2,0.1c0,0,0,0,0,0c0,0.2-0.1,0.3-0.2,0.4c-0.1,0-0.2,0.1-0.4,0.2c0,0-0.1,0.1-0.1,0.1c-0.2,0.2-0.5,0.3-0.8,0.2
					c-0.2,0-0.3,0.1-0.5,0.2c0,0,0,0,0,0.1c0,0-0.1,0.1-0.1,0.1c-0.1,0-0.2,0.1-0.4,0.1c0,0-0.1,0-0.1,0c0,0-0.1,0-0.2,0.1
					c-0.1,0-0.2,0.1-0.2,0.1c0,0-0.1,0-0.1,0c-0.8,0.3-1.6,0.5-2.4,0.7c-0.1,0-0.4,0.1-0.7,0.2c-0.3,0.1-0.6,0.2-0.8,0.2
					c-0.2,0.1-0.4,0.1-0.7,0.2c-0.3,0-0.5,0.1-0.8,0.1c-0.3,0-0.7-0.1-1-0.4c-0.3-0.2-0.5-0.5-0.5-0.9c0,0,0-0.1,0-0.2h0
					c0,0,0-0.1,0-0.1c0,0,0-0.1,0-0.1c0.1-0.3,0.2-0.6,0.2-0.8c0,0,0-0.1,0.1-0.1c0,0,0-0.1,0-0.1c0.1-0.3,0.2-0.5,0.2-0.7
					c0.2-0.7,0.4-1.4,0.8-2.1c0,0,0-0.1,0.1-0.1s0-0.1,0.1-0.1c-0.4,0.1-0.8,0.2-1.1,0.4c0,0,0.1-0.1,0.2-0.4s0.2-0.4,0.2-0.5
					c0.1-0.1,0.2-0.2,0.3-0.2c0.1,0,0.1-0.1,0.1-0.2c0,0,0-0.1,0-0.2c0-0.1,0-0.2,0.1-0.2c0.1,0,0.2-0.1,0.3-0.2
					c0.1-0.1,0.2-0.2,0.3-0.2c0.1-0.1,0.3-0.3,0.4-0.5c0,0,0-0.1,0.1-0.2l0,0c0.4-0.3,0.9-0.6,1.5-0.7c0.3-0.1,0.7-0.2,1.2-0.4
					c0.1,0,0.2-0.1,0.3-0.1c0.1,0,0.2-0.1,0.3-0.1c0.9-0.3,1.7-0.5,2.3-0.6c0.4-0.1,0.9-0.2,1.3-0.1c0,0,0,0,0.1,0
					c0.1,0,0.2,0,0.3-0.1c0.4-0.1,0.8-0.2,1.2-0.2c0,0,0.1,0,0.1,0c0,0.1,0,0.2-0.1,0.2c0,0,0,0-0.1,0
					C75.3,17.1,75.6,17.1,75.8,17.1z M78.1,13.5c0,0,0.1,0.1,0.1,0.1c0,0.1,0,0.1-0.1,0.1c0,0,0,0-0.1,0h0c-0.4,0-0.8,0.1-1.3,0.2v0
					c0.2,0,0.6,0,1.3-0.1c0,0,0.1,0,0.1,0.1c0,0.1,0,0.1-0.1,0.1c0,0-0.1,0-0.3,0.1c0,0.1,0,0.2-0.1,0.2c-0.2,0-0.4,0.1-0.7,0.1
					c0,0,0,0.1,0,0.1c-0.1,0.1-0.3,0.2-0.5,0.2c0,0,0,0-0.1,0l-0.1,0c-0.1,0-0.1,0-0.1,0h0c-0.9,0.2-1.5,0.3-1.8,0.3
					c-1.1,0.2-2.3,0.6-3.7,1.2c-0.2,0.1-0.4,0.2-0.7,0.3c-0.3,0.1-0.5,0.2-0.6,0.2c-0.4,0.1-0.8,0.3-1.2,0.6
					c-0.1,0.1-0.4,0.2-0.7,0.4c-0.2,0.1-0.4,0-0.5-0.2c-0.1-0.2-0.1-0.3,0-0.5c0.2-0.3,0.4-0.5,0.6-0.7c0,0,0.1-0.2,0.2-0.4
					c0,0,0-0.1,0.1-0.1c0,0,0-0.1,0-0.1c0,0,0-0.1,0.1-0.1c0-0.1,0-0.1,0.1-0.2c0.1-0.2,0.2-0.4,0.2-0.4c0.1,0,0.2-0.2,0.3-0.4
					c0.1-0.2,0.3-0.3,0.6-0.5c0.2-0.1,0.4-0.2,0.7-0.3c0.3-0.2,0.5-0.3,0.6-0.3c0.1,0,0.1-0.1,0.1-0.1c0-0.1,0.1-0.1,0.2-0.2
					c0.1,0,0.3-0.1,0.6-0.2c0,0,0,0,0,0.1c0,0,0,0,0,0.1c0.5-0.1,0.8-0.2,0.8-0.2c1-0.3,2.1-0.5,3.3-0.6c0.2,0,0.4,0,0.6-0.1
					c0,0,0.1,0,0.1,0.1c0.1,0,0.2,0,0.2,0c0.1,0,0.1,0,0.1,0.1s0,0.1-0.1,0.1c0.1,0,0.1,0,0.2,0c0,0,0.1,0,0.1,0.1
					c0.3,0,0.5,0,0.7,0c0,0,0.1,0,0.1,0.1c0,0.1,0,0.1-0.1,0.1c-0.2,0.1-0.4,0.2-0.7,0.2c0.2,0,0.3,0,0.5,0c0,0,0.1,0,0.1,0.1
					C77.5,13.3,77.8,13.4,78.1,13.5z"/>
			</g>
			<g>
			</g>
			<g class="st0">
				<path class="st1" d="M87.7,24.4h0.1v0.2l-0.1,0c-0.1,0-0.2,0-0.2,0c-0.3,0-0.5,0.1-0.6,0.1c-0.3,0-0.6,0.1-1,0.2
					c-0.5,0.1-0.9,0.1-1.1,0.1c-0.1,0-0.2,0.1-0.3,0.1c0,0-0.1,0-0.1,0c0,0-0.1,0-0.1,0v0.1h0h0c-0.1,0-0.1,0-0.1,0
					c0,0-0.1-0.1-0.2,0c-0.2,0-0.5,0.1-0.9,0.2c-0.8,0.2-1.4,0.4-1.9,0.5c-1.1,0.3-2.1,0.6-3,0.9c-0.3,0.1-0.9,0.3-1.5,0.6
					c-0.3,0.1-0.5,0.2-0.7,0.3c0,0,0,0-0.1,0l0,0h-0.1l0-0.1c0,0,0-0.1-0.1-0.1s-0.1-0.1-0.1-0.1l-0.2,0.1l0,0h0c0,0,0,0-0.1-0.1
					c0,0,0-0.1,0-0.1s-0.1,0-0.1,0c-0.1,0-0.2,0-0.3-0.1c0,0-0.1-0.1-0.2-0.1c0,0-0.1,0-0.1,0c-0.1,0-0.2-0.1-0.4-0.2
					c-0.1,0-0.1,0-0.1-0.1c-0.1-0.1-0.2-0.2-0.2-0.4v0h0c0,0,0.1,0,0.1-0.1c0.1-0.1,0.2-0.2,0.3-0.2c0.1,0,0.2-0.1,0.3-0.3
					c0,0,0-0.1,0-0.1c0-0.1,0-0.1,0-0.2c0.2-0.5,0.3-0.9,0.4-1.2c0.3-0.6,0.7-1.4,1.2-2.2c0,0,0.1-0.1,0.1-0.1l-0.2,0l0-0.1v0
					c0,0,0-0.1,0-0.1c0,0,0.1-0.2,0.2-0.4c0.3-0.4,0.5-0.7,0.6-0.9c0.4-0.6,1.1-1.4,1.9-2.5c0,0,0.3-0.3,0.7-0.9
					c0,0,0.1-0.1,0.2-0.2l0,0c0,0,0,0-0.1,0c-0.8,0.2-1.5,0.3-2,0.2c-0.6-0.1-1-0.2-1.3-0.3c-0.3-0.1-0.5-0.2-0.7-0.5
					c-0.1-0.1-0.1-0.3,0-0.5v0c0.1-0.1,0.1-0.1,0.1-0.2l0,0l0,0c0.1,0,0.1-0.1,0.1-0.3c0-0.2,0.1-0.3,0.1-0.3c0,0,0.1-0.1,0.1-0.3
					c0-0.1,0-0.2,0.1-0.2c0.1-0.2,0.2-0.3,0.4-0.3l0,0c0.1,0.2,0.4,0.4,0.9,0.5c0.2,0,0.4,0.1,0.8,0.1c0.1,0,0.2,0,0.3,0
					c0.3,0,0.8,0,1.3-0.1c0.8-0.2,1.6-0.4,2.3-0.7c0.2-0.1,0.4-0.2,0.5-0.4c0-0.1,0.1-0.2,0.3-0.3l0.1-0.1c0.2-0.2,0.4-0.3,0.6-0.3
					l0.1,0l0,0h0h0c0,0,0.1,0.1,0.1,0.1c0.1,0.1,0.2,0.1,0.3,0.1l0.1,0v0.1c0,0,0.1,0.1,0.2,0.1c0.1,0,0.1,0,0.2,0s0.1,0,0.2,0
					c0.1,0,0.2,0,0.2,0c0.1,0,0.3,0.1,0.6,0.1c0.1,0,0.2,0,0.3,0c0.1,0,0.2,0.1,0.3,0.2c0.1,0.1,0.1,0.1,0.1,0.2
					c0,0.1,0,0.1-0.1,0.2c-0.1,0.1-0.2,0.2-0.3,0.3c-0.1,0.1-0.2,0.1-0.2,0.1c-0.9,0.7-1.6,1.5-2.3,2.2L83.5,17
					c-1.1,1.3-1.9,2.3-2.5,2.9c-0.6,0.7-1.3,1.7-2.3,3c0,0.1-0.1,0.2-0.1,0.2c-0.2,0.3-0.4,0.6-0.5,0.7c0,0.1-0.1,0.2-0.2,0.2
					c0,0-0.1,0-0.1,0.1l0,0c0,0,0.1,0,0.1,0c1-0.4,2-0.7,3.1-0.7c0.3,0,0.7,0,1.2-0.1c0.9-0.1,1.8-0.1,2.7,0c0.1,0,0.2,0,0.4,0
					c0.3,0,0.5,0.1,0.6,0.1c0.4,0.1,0.7,0.3,1,0.5c0.1,0,0.2,0.1,0.3,0.1c0.2,0,0.3,0.1,0.4,0.2C87.6,24.4,87.6,24.4,87.7,24.4z"/>
			</g>
		</g>
	</g>
</g>
</svg>
