<svg xmlns="http://www.w3.org/2000/svg" xmlns:xlink="http://www.w3.org/1999/xlink" viewBox="0 0 168.9 49.5"><defs><style>.cls-1{fill:url(#Degradado_sin_nombre);}.cls-2{fill:url(#Degradado_sin_nombre_2);}.cls-3{fill:none;stroke:#000;stroke-miterlimit:10;stroke-width:2px;}</style><linearGradient id="Degradado_sin_nombre" x1="120.2" y1="14.85" x2="168.9" y2="14.85" gradientTransform="matrix(1, 0, 0, -1, 0, 53.4)" gradientUnits="userSpaceOnUse"><stop offset="0.64" stop-color="#1c1c1b"/><stop offset="0.99" stop-color="#fff" stop-opacity="0"/></linearGradient><linearGradient id="Degradado_sin_nombre_2" x1="90.35" y1="53.4" x2="90.35" y2="4.4" gradientTransform="matrix(1, 0, 0, -1, 0, 53.4)" gradientUnits="userSpaceOnUse"><stop offset="0" stop-color="#fff" stop-opacity="0"/><stop offset="0.17" stop-color="#1c1c1b"/><stop offset="1"/></linearGradient></defs><title>Recurso 1</title><g id="Capa_2" data-name="Capa 2"><g id="Capa_1-2" data-name="Capa 1"><path class="cls-1" d="M137.8,32.7,127.2,44.1h41.7V49H120.2V44.3L130.7,33H120.4V28.1h17.4v4.6Z"/><path d="M121.5,39.7H106.3a5.18,5.18,0,0,0,1.6,3.3,4.91,4.91,0,0,0,3.5,1.1,5.42,5.42,0,0,0,2.5-.6,3.75,3.75,0,0,0,1.6-1.7h5.7a9.52,9.52,0,0,1-3.6,5.2,10.51,10.51,0,0,1-6.3,2,10,10,0,0,1-7.6-3.1,11,11,0,0,1-3-7.9,10.87,10.87,0,0,1,3-7.8,10,10,0,0,1,7.6-3.1,9.59,9.59,0,0,1,7.5,3.1,11.23,11.23,0,0,1,2.9,7.8Zm-9.6-8a5,5,0,0,0-3.2,1.1,4.91,4.91,0,0,0-1.6,2.9h9.5a4.44,4.44,0,0,0-1.6-2.9A4.33,4.33,0,0,0,111.9,31.7Z"/><path class="cls-2" d="M95.2,31.1V0h5.5V49h-5V46.2c-1.3,1.9-3.5,2.8-6.4,2.8a8.76,8.76,0,0,1-6.8-2.9A10.62,10.62,0,0,1,80,38.8a10.62,10.62,0,0,1,2.5-7.3,9.48,9.48,0,0,1,10.4-2.2A8.36,8.36,0,0,1,95.2,31.1ZM93.8,42.7a6.7,6.7,0,0,0,0-8.2,5.08,5.08,0,0,0-7.4,0,6.7,6.7,0,0,0,0,8.2,4.57,4.57,0,0,0,3.7,1.6A5.06,5.06,0,0,0,93.8,42.7Z"/><path class="cls-3" d="M64,48.1V26.6h5.7V48.1Z"/><path class="cls-3" d="M49.3,27.1v2.6c1.1-2,3.2-3,6.2-3A7.16,7.16,0,0,1,61.2,29a9,9,0,0,1,2,6.1V48.2H57.5V35.6c0-2.7-1.2-4.1-3.6-4.1a4.22,4.22,0,0,0-3.2,1.2,4.62,4.62,0,0,0-1,3.4v12H44v-21Z"/><path class="cls-3" d="M38.8,27.1H44v21H38.8V45.5q-2.1,3-6.6,3a8.44,8.44,0,0,1-7-3.1,12,12,0,0,1-2.6-7.8,11.84,11.84,0,0,1,2.6-7.8,8.57,8.57,0,0,1,7-3.1c3,0,5.3,1,6.6,3ZM37.1,41.9a6.53,6.53,0,0,0,1.4-4.3,6.73,6.73,0,0,0-1.4-4.3,4.88,4.88,0,0,0-7.4,0,6.53,6.53,0,0,0-1.4,4.3,6.73,6.73,0,0,0,1.4,4.3,4.65,4.65,0,0,0,3.7,1.7A4.8,4.8,0,0,0,37.1,41.9Z"/><path class="cls-3" d="M16.8,29.4V14h5.7V48.1H17.3V45.5q-2.1,3-6.6,3a8.44,8.44,0,0,1-7-3.1A12.09,12.09,0,0,1,1,37.6a11.84,11.84,0,0,1,2.6-7.8,8.57,8.57,0,0,1,7-3.1,8.74,8.74,0,0,1,3.7.8A6.16,6.16,0,0,1,16.8,29.4ZM15.6,41.9A6.53,6.53,0,0,0,17,37.6a6.73,6.73,0,0,0-1.4-4.3,4.65,4.65,0,0,0-3.7-1.7,4.65,4.65,0,0,0-3.7,1.7,6.53,6.53,0,0,0-1.4,4.3,6.73,6.73,0,0,0,1.4,4.3,4.65,4.65,0,0,0,3.7,1.7A4.8,4.8,0,0,0,15.6,41.9Z"/><path class="cls-3" d="M69.2,19.4a3.39,3.39,0,0,1-4.6,0,3,3,0,0,1-.9-2.3,3.2,3.2,0,1,1,6.4,0A3,3,0,0,1,69.2,19.4Z"/><path d="M80.2,25.4h3.9v4.5H80.2V49.1H73.3V29.9H69.7V25.6h3.6v-4c0-3,.8-5.2,2.3-6.7a8.65,8.65,0,0,1,6.3-2.2l2,.1v5.9H82.8c-1.8,0-2.7.9-2.7,2.8v3.9Z"/></g></g></svg>