<?xml version="1.0" encoding="UTF-8"?>
<svg width="127px" height="70px" viewBox="0 0 127 70" version="1.1" xmlns="http://www.w3.org/2000/svg" xmlns:xlink="http://www.w3.org/1999/xlink">
    <!-- Generator: Sketch 54.1 (76490) - https://sketchapp.com -->
    <title>Group 6</title>
    <desc>Created with Sketch.</desc>
    <defs>
        <filter x="-5.3%" y="-9.8%" width="110.6%" height="119.7%" filterUnits="objectBoundingBox" id="filter-1">
            <feOffset dx="0" dy="1" in="SourceAlpha" result="shadowOffsetOuter1"></feOffset>
            <feGaussianBlur stdDeviation="1" in="shadowOffsetOuter1" result="shadowBlurOuter1"></feGaussianBlur>
            <feColorMatrix values="0 0 0 0 0   0 0 0 0 0   0 0 0 0 0  0 0 0 0.5 0" type="matrix" in="shadowBlurOuter1" result="shadowMatrixOuter1"></feColorMatrix>
            <feMerge>
                <feMergeNode in="shadowMatrixOuter1"></feMergeNode>
                <feMergeNode in="SourceGraphic"></feMergeNode>
            </feMerge>
        </filter>
        <polygon id="path-2" points="0.0016875 0.283666667 64.8973125 0.283666667 64.8973125 65.9988667 0.0016875 65.9988667"></polygon>
    </defs>
    <g id="Page-1" stroke="none" stroke-width="1" fill="none" fill-rule="evenodd">
        <g id="Artboard" transform="translate(-203.000000, -182.000000)">
            <g id="Group-6" filter="url(#filter-1)" transform="translate(205.000000, 183.000000)">
                <g id="Group-3">
                    <mask id="mask-3" fill="white">
                        <use xlink:href="#path-2"></use>
                    </mask>
                    <g id="Clip-2"></g>
                    <path d="M60.0429375,0.282533333 C62.0679375,3.47286667 63.2098125,5.92086667 64.8973125,10.3352 L58.3554375,12.3808667 C56.5329375,7.55286667 55.3854375,5.03686667 53.5685625,2.05053333 L60.0429375,0.282533333 Z M56.9379375,17.8775333 C56.1279375,19.2432 56.0604375,19.3792 55.0479375,22.5752 C47.8985625,43.8422 36.0916875,56.9548667 16.0554375,65.9988667 C13.8335625,61.9188667 11.6735625,59.1308667 8.1635625,55.7988667 C17.7429375,52.4725333 25.7079375,47.6502 31.0348125,41.8758667 C27.3223125,38.7478667 22.9404375,35.8238667 18.4854375,33.4495333 L25.5673125,24.8815333 C31.3048125,28.0095333 34.0048125,29.7038667 37.9816875,32.6335333 C40.4116875,28.8935333 42.5716875,24.2072 43.7810625,20.1952 L25.1004375,20.3312 C21.6579375,26.5135333 15.9204375,33.3815333 9.7160625,38.7478667 C6.8135625,35.4838667 3.9785625,33.2398667 0.0016875,31.0695333 C10.2560625,23.2552 17.8104375,12.5848667 20.7129375,2.05053333 L32.7898125,4.42486667 C32.1148125,5.71686667 31.1698125,7.62086667 29.8873125,10.3352 L45.5360625,10.2048667 L46.6835625,10.2048667 C45.8735625,8.36886667 44.9960625,6.66886667 43.6460625,4.49286667 L50.4635625,2.65686667 C52.5504375,5.98886667 53.9060625,8.9072 55.2504375,12.9192 L52.9610625,13.6048667 L56.9379375,17.8775333 Z" id="Fill-1" fill="#000000" mask="url(#mask-3)"></path>
                </g>
                <path d="M71.8070107,13 C74.9690133,13.3949293 76.8561054,13.4607509 82.3095768,13.4607509 L105.151254,13.4607509 C111.076498,13.4607509 113.435364,13.3345929 116.333398,13 L116.333398,25.0398586 C112.491818,24.7765724 110.739518,24.7107509 105.286046,24.7107509 L82.1804009,24.7107509 C77.1930861,24.7107509 74.1602595,24.842394 71.8070107,25.0398586 L71.8070107,13 Z M65,45.6913701 C69.0437688,46.1521209 69.9873148,46.2179425 76.24954,46.2179425 L111.076498,46.2179425 C117.810497,46.2179425 119.899777,46.1521209 123,45.6913701 L123,58 C120.03457,57.7312287 118.349666,57.6654071 111.278687,57.6654071 L76.0473516,57.6654071 C70.054711,57.6654071 67.6958458,57.7312287 65,58 L65,45.6913701 Z" id="Fill-4" fill="#000000"></path>
            </g>
        </g>
    </g>
</svg>