<?xml version="1.0" encoding="utf-8"?>
<!-- Generator: Adobe Illustrator 23.0.3, SVG Export Plug-In . SVG Version: 6.00 Build 0)  -->
<svg version="1.1" id="Capa_1" xmlns="http://www.w3.org/2000/svg" xmlns:xlink="http://www.w3.org/1999/xlink" x="0px" y="0px"
	 viewBox="0 0 54 16" style="enable-background:new 0 0 54 16;" xml:space="preserve">
<style type="text/css">
	.st0{fill:#FFFFFF;}
</style>
<g>
	<path class="st0" d="M8.1,14.8c-0.7,0.7-1.7,1.1-2.7,1.1c-2.1,0-3.9-1.7-3.9-3.9c0-2.1,1.7-3.9,3.9-3.9c1,0,2,0.4,2.7,1.1V3.1h2
		v12.6h-2V14.8z M4.3,13.4C4.7,13.8,5.1,14,5.7,14c0.5,0,1-0.2,1.4-0.6C7.4,13,7.6,12.5,7.6,12c0-0.5-0.2-1-0.6-1.4
		C6.7,10.2,6.2,10,5.7,10c-0.5,0-1,0.2-1.3,0.6C4,11,3.8,11.5,3.8,12C3.8,12.5,4,13,4.3,13.4z"/>
	<path class="st0" d="M17.7,8.4v7.3h-1.8v-0.7c-0.7,0.6-1.6,0.9-2.5,0.9c-2.1,0-3.9-1.7-3.9-3.9c0-2.1,1.7-3.9,3.9-3.9
		c0.9,0,1.8,0.3,2.5,0.9l0.2-0.7H17.7z M15.6,12c0-0.5-0.2-1-0.6-1.4c-0.4-0.4-0.8-0.6-1.3-0.6s-1,0.2-1.4,0.6
		C12,11,11.8,11.5,11.8,12c0,0.5,0.2,1,0.6,1.4c0.4,0.4,0.8,0.6,1.4,0.6s1-0.2,1.3-0.6C15.4,13,15.6,12.5,15.6,12z"/>
	<path class="st0" d="M19.5,9c0.6-0.5,1.3-0.8,2.1-0.8c2,0,3.6,1.7,3.6,3.9v3.6H23V12c0-1-0.7-2-1.8-2c-1,0-1.8,0.9-1.8,2v3.6h-2.1
		V8.4h1.7L19.5,9z"/>
	<path class="st0" d="M24.8,6.2V3.8h2.2v2.4H24.8z M24.8,15.6V8.4h2.2v7.3H24.8z"/>
	<path class="st0" d="M32.2,5.4C32.1,5.2,31.8,5,31.4,5c-1.2,0-1.3,1.5-1.3,2v1.4h2.2v2h-2.2v5.3h-2v-5.3h-1.4v-2h1.4V7
		c0-1.2,0.3-2.2,0.9-2.9C29.6,3.4,30.5,3,31.4,3c0.9,0,1.7,0.4,2.3,1.1L32.2,5.4z"/>
	<path class="st0" d="M37.9,14.8c-0.7,0.7-1.7,1.1-2.7,1.1c-2.1,0-3.9-1.7-3.9-3.9c0-2.1,1.7-3.9,3.9-3.9c1,0,2,0.4,2.7,1.1V3.1h2
		v12.6h-2V14.8z M34.2,13.4c0.4,0.4,0.8,0.6,1.3,0.6c0.5,0,1-0.2,1.4-0.6c0.4-0.4,0.6-0.9,0.6-1.4c0-0.5-0.2-1-0.6-1.4
		C36.5,10.2,36,10,35.5,10c-0.5,0-1,0.2-1.3,0.6c-0.4,0.4-0.6,0.9-0.6,1.4C33.6,12.5,33.8,13,34.2,13.4z"/>
	<path class="st0" d="M45.9,14.5c-0.7,0.8-1.8,1.4-2.9,1.4c-2.1,0-3.9-1.7-3.9-3.9c0-2.1,1.7-3.9,3.9-3.9s3.9,1.7,3.9,3.9
		c0,0.2,0,0.5-0.1,0.7h-5.4c0.1,0.3,0.2,0.5,0.4,0.7c0.4,0.4,0.8,0.6,1.3,0.6c0.5,0,0.9-0.2,1.2-0.5L45.9,14.5z M44.8,11.4
		c-0.1-0.3-0.2-0.6-0.5-0.8C44,10.2,43.5,10,43,10c-0.5,0-0.9,0.2-1.3,0.6c-0.2,0.2-0.4,0.5-0.5,0.8H44.8z"/>
	<path class="st0" d="M46,15.6v-0.5l3.6-4.9h-3.5V8.4h6.9v0.4l-3.6,5h3.4v1.9H46z"/>
</g>
<g>
	<path d="M8.1,12.8c-0.7,0.7-1.7,1.1-2.7,1.1c-2.1,0-3.9-1.7-3.9-3.9c0-2.1,1.7-3.9,3.9-3.9c1,0,2,0.4,2.7,1.1V1.1h2v12.6h-2V12.8z
		 M4.3,11.4C4.7,11.8,5.1,12,5.7,12c0.5,0,1-0.2,1.4-0.6C7.4,11,7.6,10.5,7.6,10c0-0.5-0.2-1-0.6-1.4C6.7,8.2,6.2,8,5.7,8
		c-0.5,0-1,0.2-1.3,0.6C4,9,3.8,9.5,3.8,10C3.8,10.5,4,11,4.3,11.4z"/>
	<path d="M17.7,6.4v7.3h-1.8v-0.7c-0.7,0.6-1.6,0.9-2.5,0.9c-2.1,0-3.9-1.7-3.9-3.9c0-2.1,1.7-3.9,3.9-3.9c0.9,0,1.8,0.3,2.5,0.9
		l0.2-0.7H17.7z M15.6,10c0-0.5-0.2-1-0.6-1.4C14.7,8.2,14.2,8,13.7,8s-1,0.2-1.4,0.6C12,9,11.8,9.5,11.8,10c0,0.5,0.2,1,0.6,1.4
		c0.4,0.4,0.8,0.6,1.4,0.6s1-0.2,1.3-0.6C15.4,11,15.6,10.5,15.6,10z"/>
	<path d="M19.5,7c0.6-0.5,1.3-0.8,2.1-0.8c2,0,3.6,1.7,3.6,3.9v3.6H23V10c0-1-0.7-2-1.8-2c-1,0-1.8,0.9-1.8,2v3.6h-2.1V6.4h1.7
		L19.5,7z"/>
	<path d="M24.8,4.2V1.8h2.2v2.4H24.8z M24.8,13.6V6.4h2.2v7.3H24.8z"/>
	<path d="M32.2,3.4C32.1,3.2,31.8,3,31.4,3c-1.2,0-1.3,1.5-1.3,2v1.4h2.2v2h-2.2v5.3h-2V8.3h-1.4v-2h1.4V5c0-1.2,0.3-2.2,0.9-2.9
		C29.6,1.4,30.5,1,31.4,1c0.9,0,1.7,0.4,2.3,1.1L32.2,3.4z"/>
	<path d="M37.9,12.8c-0.7,0.7-1.7,1.1-2.7,1.1c-2.1,0-3.9-1.7-3.9-3.9c0-2.1,1.7-3.9,3.9-3.9c1,0,2,0.4,2.7,1.1V1.1h2v12.6h-2V12.8z
		 M34.2,11.4c0.4,0.4,0.8,0.6,1.3,0.6c0.5,0,1-0.2,1.4-0.6c0.4-0.4,0.6-0.9,0.6-1.4c0-0.5-0.2-1-0.6-1.4C36.5,8.2,36,8,35.5,8
		c-0.5,0-1,0.2-1.3,0.6C33.8,9,33.6,9.5,33.6,10C33.6,10.5,33.8,11,34.2,11.4z"/>
	<path d="M45.9,12.5c-0.7,0.8-1.8,1.4-2.9,1.4c-2.1,0-3.9-1.7-3.9-3.9c0-2.1,1.7-3.9,3.9-3.9s3.9,1.7,3.9,3.9c0,0.2,0,0.5-0.1,0.7
		h-5.4c0.1,0.3,0.2,0.5,0.4,0.7c0.4,0.4,0.8,0.6,1.3,0.6c0.5,0,0.9-0.2,1.2-0.5L45.9,12.5z M44.8,9.4c-0.1-0.3-0.2-0.6-0.5-0.8
		C44,8.2,43.5,8,43,8c-0.5,0-0.9,0.2-1.3,0.6c-0.2,0.2-0.4,0.5-0.5,0.8H44.8z"/>
	<path d="M46,13.6v-0.5l3.6-4.9h-3.5V6.4h6.9v0.4l-3.6,5h3.4v1.9H46z"/>
</g>
</svg>
