<?xml version="1.0" encoding="UTF-8"?>
<svg width="58px" height="13px" viewBox="0 0 58 13" version="1.1" xmlns="http://www.w3.org/2000/svg" xmlns:xlink="http://www.w3.org/1999/xlink">
    <!-- Generator: Sketch 53 (72520) - https://sketchapp.com -->
    <title>logo-hover</title>
    <desc>Created with Sketch.</desc>
    <g id="logo-hover" stroke="none" stroke-width="1" fill="none" fill-rule="evenodd">
        <g id="Logo" fill="#FFFFFF" fill-rule="nonzero" stroke="#000000" stroke-width="0.1">
            <path d="M6.6,11.7 C5.9,12.4 4.9,12.8 3.9,12.8 C1.8,12.8 0,11.1 0,8.9 C0,6.8 1.7,5 3.9,5 C4.9,5 5.9,5.4 6.6,6.1 L6.6,0 L8.6,0 L8.6,12.6 L6.6,12.6 L6.6,11.7 Z M2.8,10.3 C3.2,10.7 3.6,10.9 4.2,10.9 C4.7,10.9 5.2,10.7 5.6,10.3 C5.9,9.9 6.1,9.4 6.1,8.9 C6.1,8.4 5.9,7.9 5.5,7.5 C5.2,7.1 4.7,6.9 4.2,6.9 C3.7,6.9 3.2,7.1 2.9,7.5 C2.5,7.9 2.3,8.4 2.3,8.9 C2.3,9.4 2.5,9.9 2.8,10.3 Z" id="Shape"></path>
            <path d="M17.2,5.3 L17.2,12.6 L15.4,12.6 L15.4,11.9 C14.7,12.5 13.8,12.8 12.9,12.8 C10.8,12.8 9,11.1 9,8.9 C9,6.8 10.7,5 12.9,5 C13.8,5 14.7,5.3 15.4,5.9 L15.6,5.2 L17.2,5.2 L17.2,5.3 Z M15.1,8.9 C15.1,8.4 14.9,7.9 14.5,7.5 C14.2,7.1 13.7,6.9 13.2,6.9 C12.7,6.9 12.2,7.1 11.8,7.5 C11.5,7.9 11.3,8.4 11.3,8.9 C11.3,9.4 11.5,9.9 11.9,10.3 C12.3,10.7 12.7,10.9 13.3,10.9 C13.9,10.9 14.3,10.7 14.6,10.3 C14.9,9.9 15.1,9.4 15.1,8.9 Z" id="Shape"></path>
            <path d="M20.2,6 C20.8,5.5 21.5,5.2 22.3,5.2 C24.3,5.2 25.9,6.9 25.9,9.1 L25.9,12.7 L23.7,12.7 L23.7,9 C23.7,8 23,7 21.9,7 C20.9,7 20.1,7.9 20.1,9 L20.1,12.6 L18,12.6 L18,5.4 L19.7,5.4 L20.2,6 Z" id="Path"></path>
            <path d="M26,3.2 L26,0.8 L28.2,0.8 L28.2,3.2 L26,3.2 Z M26,12.6 L26,5.4 L28.2,5.4 L28.2,12.7 L26,12.7 L26,12.6 Z" id="Shape"></path>
            <path d="M34.5,2.4 C34.4,2.2 34.1,2 33.7,2 C32.5,2 32.4,3.5 32.4,4 L32.4,5.4 L34.6,5.4 L34.6,7.4 L32.4,7.4 L32.4,12.7 L30.4,12.7 L30.4,7.3 L29,7.3 L29,5.3 L30.4,5.3 L30.4,4 C30.4,2.8 30.7,1.8 31.3,1.1 C31.9,0.4 32.8,0 33.7,0 C34.6,0 35.4,0.4 36,1.1 L34.5,2.4 Z" id="Path"></path>
            <path d="M40.6,11.8 C39.9,12.5 38.9,12.9 37.9,12.9 C35.8,12.9 34,11.2 34,9 C34,6.9 35.7,5.1 37.9,5.1 C38.9,5.1 39.9,5.5 40.6,6.2 L40.6,0.1 L42.6,0.1 L42.6,12.7 L40.6,12.7 L40.6,11.8 Z M36.9,10.4 C37.3,10.8 37.7,11 38.2,11 C38.7,11 39.2,10.8 39.6,10.4 C40,10 40.2,9.5 40.2,9 C40.2,8.5 40,8 39.6,7.6 C39.2,7.2 38.7,7 38.2,7 C37.7,7 37.2,7.2 36.9,7.6 C36.5,8 36.3,8.5 36.3,9 C36.3,9.5 36.5,10 36.9,10.4 Z" id="Shape"></path>
            <path d="M49.8,11.5 C49.1,12.3 48,12.9 46.9,12.9 C44.8,12.9 43,11.2 43,9 C43,6.9 44.7,5.1 46.9,5.1 C49.1,5.1 50.8,6.8 50.8,9 C50.8,9.2 50.8,9.5 50.7,9.7 L45.3,9.7 C45.4,10 45.5,10.2 45.7,10.4 C46.1,10.8 46.5,11 47,11 C47.5,11 47.9,10.8 48.2,10.5 L49.8,11.5 Z M48.7,8.4 C48.6,8.1 48.5,7.8 48.2,7.6 C47.9,7.2 47.4,7 46.9,7 C46.4,7 46,7.2 45.6,7.6 C45.4,7.8 45.2,8.1 45.1,8.4 L48.7,8.4 Z" id="Shape"></path>
            <polygon id="Path" points="51 12.6 51 12.1 54.6 7.2 51.1 7.2 51.1 5.4 58 5.4 58 5.8 54.4 10.8 57.8 10.8 57.8 12.7 51 12.7"></polygon>
        </g>
    </g>
</svg>