<?xml version="1.0" encoding="utf-8"?>
<!-- Generator: Adobe Illustrator 23.0.3, SVG Export Plug-In . SVG Version: 6.00 Build 0)  -->
<svg version="1.1" id="Capa_1" xmlns="http://www.w3.org/2000/svg" xmlns:xlink="http://www.w3.org/1999/xlink" x="0px" y="0px"
	 viewBox="0 0 146.1 42.1" style="enable-background:new 0 0 146.1 42.1;" xml:space="preserve">
<style type="text/css">
	.st0{display:none;fill:#1D1D1B;}
</style>
<g>
	<g>
		<g>
			<g>
				<path d="M138.5,21.9l-10.6,11.4h10.5v4.9h-17.5v-4.7L133.2,20h-12.1v-2.7h17.4V21.9L138.5,21.9z"/>
				<path d="M94,20.6V3.5h5.4v34.7h-4.9v-2.8c-1.3,1.9-3.4,2.8-6.3,2.8c-2.8,0-5-1-6.7-2.9S79,31,79,28.1s0.8-5.3,2.5-7.2
					c1.7-1.9,3.8-2.9,6.7-2.9c1.3,0,2.5,0.2,3.5,0.7C92.6,19.4,93.4,20,94,20.6z"/>
				<path class="st0" d="M75.2,39.2H69l0.1-36.1h22v6H75.2l0.1,9.7h7.8v5.7h-7.9V39.2z"/>
			</g>
		</g>
		<g>
			<path class="st0" d="M87.6,15.8h3.2v4.9h-3.2v17.9h-5.7V20.7h-3v-4.9h3V14c0-2.7,0.6-4.7,1.9-6s3-2,5.2-2l1.7,0.1v5.3
				c-0.2,0-0.5,0-0.9,0c-1.5,0-2.2,0.8-2.2,2.5V15.8z"/>
		</g>
		<path d="M66.3,38.1V16.5H72v21.6H66.3z"/>
		<path d="M52.2,17v2.6c1.1-2,3.2-3,6.2-3c2.5,0,4.4,0.8,5.7,2.3s2,3.5,2,6.1v13.1h-5.7V25.5c0-2.7-1.2-4.1-3.6-4.1
			c-1.4,0-2.4,0.4-3.2,1.2s-1,2-1,3.4v12h-5.7V17H52.2z"/>
		<path d="M41.4,17h5.2v21h-5.2v-2.6c-1.4,2-3.6,3-6.6,3s-5.3-1-7-3.1s-2.6-4.7-2.6-7.8s0.9-5.8,2.6-7.8c1.7-2.1,4.1-3.1,7-3.1
			c3,0,5.3,1,6.6,3V17z"/>
		<path d="M19.2,19.3V3.9h5.7V38h-5.2v-2.6c-1.4,2-3.6,3-6.6,3s-5.3-1-7-3.1s-2.7-4.7-2.7-7.8s0.9-5.8,2.6-7.8
			c1.7-2.1,4.1-3.5,7-3.5c1.4,0,2.6,0.7,3.7,1.2S18.6,18.5,19.2,19.3z"/>
	</g>
	<path d="M71.5,9.4c-0.6,0.6-1.4,0.9-2.3,0.9s-1.7-0.3-2.3-0.9S66,8.1,66,7.1c0-0.9,0.3-1.7,0.9-2.3s1.4-0.9,2.3-0.9
		s1.7,0.3,2.3,0.9c0.6,0.6,0.9,1.4,0.9,2.3C72.4,8.1,72.1,8.8,71.5,9.4z"/>
	<g>
		<path d="M78.9,16.2h59.6v4.1H78.9v17.8h-6.6V20.3H14.1v-4.1h58.3v-4.4c0-2.9,0.8-5,2.2-6.4c1.4-1.4,3.5-2.1,6-2.1H86v5.6
			c-0.2,0-4,0.1-4.5,0.1c-1.7,0-2.6,0.9-2.6,2.7v3.7V16.2z"/>
	</g>
	<g>
		<path d="M120.6,29.2h-15.3c0.2,1.4,0.7,2.5,1.6,3.3c0.9,0.8,2,1.1,3.5,1.1c0.9,0,1.7-0.2,2.5-0.6c0.7-0.4,1.3-1,1.6-1.7h5.7
			c-0.6,2.1-1.8,3.8-3.6,5.2c-1.8,1.3-3.9,2-6.3,2c-3.1,0-5.6-1-7.6-3.1c-2-2-3-4.7-3-7.9c0-3.1,1-5.7,3-7.8s4.5-3.1,7.5-3.1
			s5.5,1,7.5,3.1c1.9,2.1,2.9,4.7,2.9,7.8V29.2z"/>
	</g>
</g>
</svg>
