<?xml version="1.0" encoding="UTF-8"?>
<svg width="88px" height="20px" viewBox="0 0 186 43" version="1.1" xmlns="http://www.w3.org/2000/svg" xmlns:xlink="http://www.w3.org/1999/xlink">
    <title>DaniFernandez</title>
    <desc>Created with Sketch.</desc>
    <g id="Page-1" stroke="none" stroke-width="1" fill="none" fill-rule="evenodd">
        <g id="Artboard" transform="translate(-8.000000, -4.000000)" fill="#000000" fill-rule="nonzero">
            <path d="M8.7,43.75 C8.85,43.65 8.95,43.55 9.05,43.45 C10.65,42.2 12.05,40.75 13.45,39.25 C13.55,39.15 13.65,39.1 13.75,38.9 C13.75,39.4 13.8,39.75 13.75,40.2 C13.7,40.25 13.65,40.25 13.65,40.3 C13.35,40.45 13.3,40.6 13.45,40.9 C13.5,41 13.55,41.1 13.65,41.2 C13.85,41.45 13.95,41.55 14.15,41.5 C14.35,41.5 14.45,41.3 14.45,40.95 C14.45,40.1 14.45,39.3 14.4,38.5 C14.4,38.3 14.45,38.15 14.6,38 C14.8,37.8 15,37.6 15.15,37.35 C17.2,35 19.2,32.6 20.9,30.05 C21.9,28.6 22.75,27.1 23.4,25.45 C23.75,24.4 24.05,23.25 24,22.1 C24,20.45 23.35,19.1 22,18.1 C21.25,17.55 20.45,17.2 19.6,16.95 C18.3,16.6 17,16.5 15.7,16.55 C15.4,16.5 15.15,16.5 14.85,16.55 C14.9,16.4 14.95,16.35 14.95,16.25 C14.95,16.15 15,15.95 15.05,15.85 C15,15.4 15.05,14.95 15,14.5 L15,14.25 L15,14.25 C14.95,14.1 14.75,13.95 14.6,13.95 C14.4,13.95 14.3,14.05 14.25,14.25 C14.25,14.3 14.25,14.4 14.2,14.5 C14.25,15.05 14.25,15.55 14.2,16.1 C14.25,16.25 14.2,16.4 14.2,16.6 C13.65,16.65 13.1,16.7 12.6,16.8 C11.35,17.05 10.1,17.35 8.95,17.85 C8.85,17.85 8.7,17.95 8.6,18.05 C8.5,18.15 8.4,18.3 8.45,18.45 C8.55,18.65 8.7,18.75 8.9,18.7 L9.1,18.7 L9.1,18.7 C9.7,18.55 10.25,18.4 10.85,18.25 C11.05,18.2 11.2,18.15 11.25,17.95 C11.35,17.8 11.45,17.75 11.6,17.7 L13.7,17.25 L13.7,17.25 L14.2,17.25 L14.2,17.25 C14.2,17.5 14.25,17.7 14.2,17.9 C14.15,18.8 14.15,19.65 14.15,20.55 C14.05,21.85 14.05,23.15 14,24.45 C13.95,25.7 13.95,27 13.85,28.25 C13.85,29.65 13.8,31 13.8,32.4 C13.8,34.2 13.75,36 13.75,37.75 C13.75,38.05 13.7,38.2 13.55,38.45 C12.4,39.5 11.4,40.7 10.15,41.65 C9.6,42 9.05,42.5 8.55,43 C8.45,43.05 8.35,43.15 8.25,43.25 C8.1,43.4 8.15,43.6 8.3,43.65 C8.4,43.8 8.55,43.8 8.7,43.75 Z M14.4,37.4 C14.25,30.6 14.65,23.9 14.85,17.25 C14.95,17.2 15,17.2 15.1,17.15 C16.55,17.05 18,17.1 19.45,17.5 C20.4,17.8 21.3,18.2 22.05,18.9 C22.85,19.55 23.25,20.35 23.4,21.4 C23.6,22.7 23.35,23.95 22.95,25.2 C22.4,26.7 21.6,28.05 20.8,29.35 C19.3,31.65 17.55,33.8 15.8,35.85 C15.45,36.3 15.05,36.7 14.7,37.15 C14.65,37.2 14.55,37.3 14.4,37.4 Z M23.65,33.1 C23.95,33 24.2,32.8 24.4,32.6 C24.95,32.1 25.45,31.6 25.95,31.05 C26.7,30.2 27.4,29.3 28.1,28.45 L28.6,27.95 L28.6,27.95 C28.65,28.2 28.75,28.4 28.8,28.6 C28.95,29.25 29.05,29.9 29.25,30.55 C29.35,31.05 29.5,31.55 29.8,31.95 C30.25,32.6 30.85,32.85 31.65,32.6 C31.85,32.55 32.05,32.45 32.3,32.3 C32.6,32.15 32.95,31.95 33.2,31.7 C34.85,30.4 36,28.75 36.9,26.85 C36.9,26.8 36.95,26.75 36.95,26.65 C37,26.5 36.9,26.3 36.75,26.2 C36.6,26.15 36.4,26.15 36.25,26.3 C36.2,26.4 36.1,26.55 36.05,26.65 C35.7,27.25 35.4,27.9 35.05,28.5 C34.3,29.6 33.45,30.55 32.35,31.35 C32.05,31.6 31.7,31.8 31.3,31.95 C30.95,32.05 30.65,31.95 30.45,31.65 C30.3,31.4 30.15,31.15 30.05,30.85 C29.9,30.3 29.75,29.75 29.6,29.15 C29.5,28.8 29.45,28.45 29.35,28.1 C29.25,27.75 29.15,27.35 28.75,27.25 C28.3,27.15 28.05,27.45 27.8,27.7 C27.65,27.85 27.55,28.05 27.4,28.2 C26.55,29.15 25.75,30.15 24.9,31.1 C24.55,31.5 24.15,31.85 23.8,32.2 C23.65,32.35 23.5,32.4 23.3,32.55 C23.3,32.3 23.25,32.2 23.25,32.05 C23.35,31.65 23.45,31.25 23.6,30.9 C24.2,29.5 24.95,28.2 25.95,27.1 C26.3,26.65 26.7,26.25 27.15,25.9 C27.35,25.7 27.65,25.55 27.95,25.45 C28.4,25.25 28.85,25.4 29.2,25.75 C29.45,26.05 29.6,26.4 29.7,26.75 C29.85,27.25 29.9,27.75 30,28.25 C30.05,28.55 30.1,28.8 30.2,29.05 C30.3,29.35 30.55,29.45 30.75,29.35 C31,29.3 31.1,29.05 31,28.8 C30.95,28.5 30.9,28.2 30.8,27.95 C30.65,27.4 30.55,26.85 30.35,26.3 C30.2,25.8 29.95,25.4 29.5,25.05 C29.05,24.7 28.5,24.55 27.95,24.7 C27.65,24.8 27.35,24.95 27.1,25.1 C26.6,25.4 26.15,25.8 25.75,26.25 C24.55,27.6 23.6,29.2 22.9,30.9 C22.8,31.15 22.7,31.4 22.65,31.65 C22.6,31.95 22.55,32.25 22.6,32.5 C22.65,33.15 23.1,33.35 23.65,33.1 Z M35.7,34.5 C35.85,34.35 35.95,34.15 36.05,33.95 C36.25,33.5 36.5,33.05 36.7,32.6 C37.45,30.95 38.35,29.3 39.35,27.8 C39.5,27.6 39.65,27.45 39.75,27.25 C39.8,27.25 39.85,27.3 39.85,27.3 C39.95,27.5 40,27.75 40.05,28 C40.15,28.5 40.25,29 40.5,29.45 C40.85,30.15 41.45,30.65 42.25,30.75 C42.75,30.85 43.3,30.75 43.75,30.5 C44.85,30.1 45.8,29.4 46.6,28.55 C46.9,28.15 47.2,27.75 47.45,27.3 C47.55,27.1 47.5,26.9 47.35,26.75 C47.2,26.65 46.95,26.65 46.8,26.85 C46.65,27.05 46.55,27.25 46.45,27.4 C46.2,27.7 45.95,28.05 45.65,28.35 C45.1,28.95 44.45,29.35 43.75,29.75 C43.55,29.85 43.3,29.95 43.05,30 C42.15,30.25 41.45,29.9 41.05,29.1 C40.95,28.9 40.85,28.65 40.8,28.4 C40.75,28.2 40.7,27.95 40.65,27.7 C40.6,27.5 40.55,27.3 40.5,27.15 C40.25,26.45 39.75,26.35 39.25,26.85 C39.1,27 38.95,27.2 38.85,27.4 C38.5,27.9 38.2,28.35 37.9,28.85 C37.1,30.2 36.4,31.6 35.75,33 L35.6,33.3 L35.6,33.3 C35.6,33.05 35.6,32.8 35.65,32.55 C36,30.3 36.5,28.05 36.7,25.75 C36.7,25.65 36.75,25.55 36.85,25.5 C37.05,25.35 37.1,25.15 37.05,24.95 C37.05,24.7 37,24.5 36.95,24.3 C36.9,24.05 36.75,23.9 36.55,23.9 C36.35,23.9 36.2,24.05 36.15,24.3 C36.1,24.5 36.1,24.7 36.1,24.85 C35.95,26.35 35.8,27.8 35.55,29.3 C35.3,30.6 35.1,31.95 34.9,33.25 C34.85,33.55 34.85,33.9 34.9,34.25 C34.9,34.45 35,34.6 35.2,34.65 C35.4,34.7 35.55,34.65 35.7,34.5 Z M47.4,23.45 C47.8,23.45 48.1,23.25 48.25,22.9 C48.4,22.65 48.35,22.4 48.15,22.2 C47.95,22 47.75,21.95 47.45,22 C47.35,22 47.25,22.1 47.2,22.15 C47.05,22.35 46.95,22.5 46.9,22.7 C46.7,23.1 47,23.5 47.4,23.45 Z M53.25,35.4 C54.4,35.2 55.55,34.9 56.65,34.5 C58.6,33.9 60.55,33.3 62.5,32.65 C64.25,32.1 66.05,31.55 67.85,31.05 C70.1,30.45 72.35,30 74.7,29.75 C75.65,29.65 76.55,29.55 77.5,29.55 C78.05,29.55 78.6,29.55 79.15,29.6 C79.55,29.65 79.95,29.7 80.35,29.8 C80.6,29.85 80.85,29.95 81.1,30.05 C81.2,30.1 81.35,30.15 81.4,30.25 L81.3,30.35 L81.3,30.35 C81.25,30.4 81.2,30.4 81.2,30.45 C81.1,30.55 81.1,30.65 81.15,30.8 C81.2,30.9 81.3,30.95 81.45,30.9 C81.65,30.9 81.95,30.6 82,30.4 C82,30.25 82,30.15 81.9,30.05 L81.6,29.75 L81.6,29.75 C81.4,29.7 81.2,29.6 81,29.55 C80.5,29.4 80,29.35 79.55,29.35 C78.3,29.25 77.1,29.25 75.9,29.35 C75.55,29.35 75.25,29.4 74.9,29.4 C74,29.55 73.05,29.65 72.1,29.8 C70.75,30.05 69.4,30.35 68.05,30.65 C66.3,31.1 64.6,31.6 62.9,32.15 C60.7,32.85 58.55,33.5 56.4,34.15 C55.05,34.6 53.7,34.9 52.35,35.1 C51.6,35.2 50.85,35.25 50.1,35.15 C49.4,35.05 48.75,34.8 48.2,34.3 C47.7,33.8 47.4,33.25 47.2,32.6 C47.05,32.1 47,31.6 46.95,31.1 C46.95,30.55 47,30.05 47,29.5 C47.1,28.55 47.3,27.55 47.55,26.6 C47.55,26.55 47.6,26.45 47.6,26.35 C47.65,26.25 47.6,26.15 47.5,26.05 C47.4,25.95 47.3,25.95 47.15,25.95 C47,26 46.9,26.15 46.9,26.3 C46.85,26.55 46.8,26.85 46.75,27.15 C46.6,27.85 46.55,28.5 46.5,29.2 C46.4,30.05 46.4,30.95 46.5,31.8 C46.6,32.35 46.75,32.85 46.95,33.35 C47.45,34.4 48.25,35.1 49.35,35.45 C49.75,35.55 50.2,35.65 50.6,35.65 C51.5,35.7 52.35,35.55 53.25,35.4 Z M105.85,44.2 C106.05,44.1 106.25,43.85 106.4,43.65 C106.6,43.35 106.75,43.05 106.95,42.75 C107.75,41.05 108.25,39.3 108.55,37.5 C108.6,37.1 108.65,36.7 108.65,36.35 C108.6,35.05 107.85,34.15 106.55,33.9 C106.45,33.85 106.3,33.8 106.15,33.8 C105.35,33.7 104.55,33.8 103.7,34 C103.3,34.15 102.85,34.25 102.35,34.4 C102.35,34.3 102.3,34.2 102.3,34.15 C102.3,33.25 102.25,32.25 102.25,31.35 C102.2,31.1 102.3,31 102.55,30.85 C104.45,29.65 106.55,28.6 108.65,27.7 C109.25,27.4 109.9,27.2 110.55,26.95 C110.55,27 110.55,27 110.6,27.05 C110.5,27.05 110.45,27.1 110.35,27.2 C110.2,27.3 110.15,27.45 110.25,27.65 C110.35,27.8 110.45,27.85 110.65,27.8 C110.75,27.8 110.8,27.75 110.85,27.7 C111.3,27.5 111.7,27.3 112.1,27 C112.2,26.95 112.35,26.9 112.45,26.8 C112.55,26.7 112.65,26.5 112.55,26.3 C112.5,26.15 112.3,26.1 112.15,26.05 C111.95,26.1 111.8,26.1 111.6,26.15 C110.8,26.25 110,26.55 109.25,26.85 C106.95,27.8 104.8,28.95 102.7,30.2 C102.55,30.25 102.45,30.3 102.25,30.4 C102.3,30.25 102.25,30.15 102.25,30.05 C102.3,29.6 102.25,29.1 102.3,28.6 C102.45,25.4 102.65,22.15 102.85,18.9 C102.9,18.6 102.95,18.5 103.2,18.35 C106.3,16.65 109.5,15.2 112.9,14.2 C113.55,14 114.3,13.9 115.05,13.8 C115.15,13.7 115.3,13.75 115.45,13.8 C115.3,14 115.15,14.1 115,14.3 C114.9,14.4 114.9,14.6 115,14.75 C115.15,14.85 115.3,14.85 115.45,14.8 C115.75,14.55 116.05,14.3 116.2,13.9 C116.3,13.6 116.15,13.3 115.8,13.2 C115.6,13.15 115.4,13.1 115.15,13.15 C114.6,13.2 114,13.3 113.4,13.4 C112.05,13.8 110.7,14.25 109.4,14.8 C107.3,15.6 105.3,16.55 103.35,17.6 C103.25,17.65 103.1,17.7 102.95,17.75 C103,17.6 103,17.55 102.95,17.45 C103.05,16.5 103.15,15.6 103.25,14.65 C103.4,13.9 103.5,13.05 103.7,12.25 C103.7,12.05 103.8,11.9 103.8,11.75 C103.95,11.95 104,12.05 104.1,12.2 C104.15,12.4 104.4,12.5 104.6,12.45 C104.75,12.35 104.9,12.2 104.8,11.95 C104.7,11.6 104.6,11.25 104.4,10.9 C104.2,10.55 103.75,10.55 103.5,10.9 C103.35,11.05 103.25,11.35 103.15,11.55 C103.05,12.05 102.9,12.6 102.8,13.1 C102.65,14.65 102.5,16.2 102.35,17.75 C102.35,18.05 102.25,18.2 102,18.35 C101.25,18.75 100.55,19.25 99.8,19.7 C98.6,20.5 97.5,21.3 96.5,22.4 C96.25,22.6 96.05,22.85 95.9,23.15 C95.65,23.55 95.85,24 96.4,23.95 C96.7,23.95 96.9,23.95 97.05,23.7 C97.15,23.45 97,23.25 96.85,23.15 C97.5,22.1 101.3,19.2 102.25,18.95 L102.25,19.15 L102.25,19.15 C102,22.9 101.8,26.6 101.8,30.3 C101.8,30.6 101.65,30.8 101.45,31 C100.15,31.75 98.85,32.6 97.7,33.6 C97.05,34.15 96.5,34.65 95.85,35.25 C95.65,35.5 95.5,35.8 95.35,36.05 C95.05,36.7 95.35,37.15 96,37.2 C96.5,37.25 96.85,37.15 97.25,37 C98.45,36.55 99.65,36.1 100.85,35.6 C101.15,35.5 101.5,35.35 101.9,35.25 L101.9,35.4 L101.9,35.4 C101.95,35.55 101.95,35.6 101.95,35.7 C102.15,37.6 102.4,39.45 102.85,41.3 C103,41.9 103.25,42.6 103.5,43.2 C103.65,43.55 103.85,43.85 104.1,44.1 C104.6,44.65 105.25,44.7 105.85,44.2 Z M95.95,36.5 C95.95,36.5 95.9,36.5 95.9,36.45 C96,36.3 96,36.15 96.15,36 C96.35,35.7 96.6,35.4 96.9,35.1 C97.95,34.05 99.2,33.1 100.45,32.25 C100.85,31.95 101.3,31.65 101.75,31.35 C101.8,32.45 101.8,33.45 101.9,34.5 C101.7,34.6 101.45,34.65 101.25,34.75 C99.9,35.25 98.6,35.7 97.35,36.2 C97,36.3 96.65,36.4 96.35,36.5 C96.2,36.55 96.1,36.5 95.95,36.5 Z M104.2,43.4 C103.85,42.9 103.6,42.3 103.4,41.65 C102.8,39.55 102.5,37.4 102.4,35.25 L102.4,35.1 L102.4,35.1 C102.7,35 103.05,34.9 103.35,34.85 C104.15,34.6 105,34.45 105.85,34.5 C106.15,34.5 106.5,34.55 106.75,34.6 C107.4,34.85 107.75,35.3 107.9,35.95 C108,36.45 107.95,36.95 107.9,37.45 C107.65,39.15 107.2,40.8 106.4,42.4 C106.25,42.8 106.05,43.2 105.8,43.5 C105.25,44.2 104.7,44.15 104.2,43.4 Z M115.2,33.25 C115.95,33.1 116.6,32.8 117.2,32.35 C118.55,31.5 119.75,30.4 120.8,29.2 C121.1,28.8 121.35,28.45 121.6,28.05 C121.75,27.85 121.85,27.6 121.9,27.35 C122,27.05 122,26.75 121.9,26.4 C121.8,26.2 121.55,26 121.4,26.15 C121.25,26.3 121.15,27.35 120.85,27.75 C120.65,28.1 120.4,28.45 120.15,28.75 C119.15,29.9 118.05,30.95 116.8,31.8 C116.3,32.15 115.8,32.45 115.2,32.6 C114.55,32.75 114.15,32.5 113.9,31.9 C113.75,31.5 113.7,31.1 113.7,30.7 C113.75,30.45 113.75,30.2 113.8,29.9 C114.05,28.35 114.6,26.9 115.45,25.55 C115.75,25.15 116.05,24.75 116.4,24.4 C116.55,24.25 116.75,24.1 116.9,24 C117.2,23.9 117.3,23.95 117.3,24.25 C117.3,24.5 117.25,24.75 117.15,25 C116.75,26.05 116.15,26.95 115.4,27.75 C115.2,27.95 115,28.15 114.65,28.1 C114.4,28.1 114.25,28.3 114.2,28.5 C114.2,28.75 114.35,28.95 114.6,29 C114.85,29.05 115.1,29 115.25,28.85 C115.5,28.65 115.8,28.45 116,28.2 C116.7,27.5 117.25,26.65 117.65,25.75 C117.8,25.4 117.9,25.05 118.05,24.75 C118.1,24.4 118.1,24.1 118,23.8 C117.8,23.35 117.4,23.1 116.95,23.25 C116.65,23.35 116.4,23.5 116.2,23.65 C115.85,24 115.5,24.35 115.25,24.75 C114.35,25.9 113.8,27.25 113.45,28.65 C113.3,29.25 113.2,29.85 113.1,30.5 C113.05,31.1 113.1,31.7 113.4,32.3 C113.7,33.05 114.4,33.4 115.2,33.25 Z M121.65,35.35 C121.9,35.35 122.05,35.2 122.15,34.95 C122.2,34.85 122.25,34.7 122.3,34.55 C122.4,34 122.5,33.5 122.6,33 C122.8,31.5 123,30 123.4,28.55 C123.55,27.8 123.85,27.1 124.05,26.4 C124.15,26.15 124.25,25.9 124.55,25.7 C124.7,26 124.85,26.2 125,26.45 C125.25,26.85 125.45,27.3 125.8,27.7 C126.65,28.75 127.75,29.25 129.15,28.9 C130.15,28.65 130.85,28.05 131.35,27.2 C131.5,26.95 131.45,26.7 131.25,26.6 C131.05,26.45 130.85,26.5 130.65,26.75 C130.65,26.8 130.6,26.85 130.55,26.9 C130.4,27.1 130.3,27.3 130.1,27.45 C129.45,28.1 128.7,28.4 127.75,28.15 C127.05,28 126.5,27.55 126.1,26.95 C125.9,26.6 125.75,26.25 125.5,25.9 C125.35,25.65 125.2,25.45 125.05,25.25 C124.7,24.9 124.3,24.9 123.95,25.2 C123.8,25.35 123.65,25.55 123.55,25.75 C123.35,26.2 123.15,26.65 123,27.1 C122.55,28.5 122.25,29.95 122.05,31.45 C122,31.9 121.9,32.3 121.85,32.75 C121.85,30.05 122,27.35 122.25,24.65 C122.8,24.6 122.95,24.4 122.8,23.9 C122.65,23.35 122.6,22.8 122.55,22.25 C122.55,22.1 122.55,21.95 122.5,21.8 C122.45,21.65 122.35,21.55 122.2,21.55 C122,21.55 121.9,21.65 121.85,21.8 C121.8,21.9 121.8,22 121.8,22.15 C121.75,22.35 121.75,22.55 121.75,22.75 C121.6,24.5 121.45,26.2 121.35,27.9 C121.25,29 121.2,30.1 121.15,31.2 C121.1,32.2 121.1,33.2 121.1,34.2 C121.1,34.45 121.15,34.65 121.2,34.9 C121.25,35.2 121.45,35.35 121.65,35.35 Z M130.4,34.5 C130.55,34.35 130.65,34.15 130.75,33.95 C130.95,33.5 131.2,33.05 131.4,32.6 C132.15,30.95 133.05,29.3 134.05,27.8 C134.2,27.6 134.35,27.45 134.45,27.25 C134.5,27.25 134.55,27.3 134.55,27.3 C134.65,27.5 134.7,27.75 134.75,28 C134.85,28.5 134.95,29 135.2,29.45 C135.55,30.15 136.15,30.65 136.95,30.75 C137.45,30.85 138,30.75 138.45,30.5 C139.55,30.1 140.5,29.4 141.3,28.55 C141.6,28.15 141.9,27.75 142.15,27.3 C142.25,27.1 142.2,26.9 142.05,26.75 C141.9,26.65 141.65,26.65 141.5,26.85 C141.35,27.05 141.25,27.25 141.15,27.4 C140.9,27.7 140.65,28.05 140.35,28.35 C139.8,28.95 139.15,29.35 138.45,29.75 C138.25,29.85 138,29.95 137.75,30 C136.85,30.25 136.15,29.9 135.75,29.1 C135.65,28.9 135.55,28.65 135.5,28.4 C135.45,28.2 135.4,27.95 135.35,27.7 C135.3,27.5 135.25,27.3 135.2,27.15 C134.95,26.45 134.45,26.35 133.95,26.85 C133.8,27 133.65,27.2 133.55,27.4 C133.2,27.9 132.9,28.35 132.6,28.85 C131.8,30.2 131.1,31.6 130.45,33 L130.3,33.3 L130.3,33.3 C130.3,33.05 130.3,32.8 130.35,32.55 C130.7,30.3 131.2,28.05 131.4,25.75 C131.4,25.65 131.45,25.55 131.55,25.5 C131.75,25.35 131.8,25.15 131.75,24.95 C131.75,24.7 131.7,24.5 131.65,24.3 C131.6,24.05 131.45,23.9 131.25,23.9 C131.05,23.9 130.9,24.05 130.85,24.3 C130.8,24.5 130.8,24.7 130.8,24.85 C130.65,26.35 130.5,27.8 130.25,29.3 C130,30.6 129.8,31.95 129.6,33.25 C129.55,33.55 129.55,33.9 129.6,34.25 C129.6,34.45 129.7,34.6 129.9,34.65 C130.1,34.7 130.25,34.65 130.4,34.5 Z M140.05,33.1 C140.35,33 140.6,32.8 140.8,32.6 C141.35,32.1 141.85,31.6 142.35,31.05 C143.1,30.2 143.8,29.3 144.5,28.45 L145,27.95 L145,27.95 C145.05,28.2 145.15,28.4 145.2,28.6 C145.35,29.25 145.45,29.9 145.65,30.55 C145.75,31.05 145.9,31.55 146.2,31.95 C146.65,32.6 147.25,32.85 148.05,32.6 C148.25,32.55 148.45,32.45 148.7,32.3 C149,32.15 149.35,31.95 149.6,31.7 C151.25,30.4 152.4,28.75 153.3,26.85 C153.3,26.8 153.35,26.75 153.35,26.65 C153.4,26.5 153.3,26.3 153.15,26.2 C153,26.15 152.8,26.15 152.65,26.3 C152.6,26.4 152.5,26.55 152.45,26.65 C152.1,27.25 151.8,27.9 151.45,28.5 C150.7,29.6 149.85,30.55 148.75,31.35 C148.45,31.6 148.1,31.8 147.7,31.95 C147.35,32.05 147.05,31.95 146.85,31.65 C146.7,31.4 146.55,31.15 146.45,30.85 C146.3,30.3 146.15,29.75 146,29.15 C145.9,28.8 145.85,28.45 145.75,28.1 C145.65,27.75 145.55,27.35 145.15,27.25 C144.7,27.15 144.45,27.45 144.2,27.7 C144.05,27.85 143.95,28.05 143.8,28.2 C142.95,29.15 142.15,30.15 141.3,31.1 C140.95,31.5 140.55,31.85 140.2,32.2 C140.05,32.35 139.9,32.4 139.7,32.55 C139.7,32.3 139.65,32.2 139.65,32.05 C139.75,31.65 139.85,31.25 140,30.9 C140.6,29.5 141.35,28.2 142.35,27.1 C142.7,26.65 143.1,26.25 143.55,25.9 C143.75,25.7 144.05,25.55 144.35,25.45 C144.8,25.25 145.25,25.4 145.6,25.75 C145.85,26.05 146,26.4 146.1,26.75 C146.25,27.25 146.3,27.75 146.4,28.25 C146.45,28.55 146.5,28.8 146.6,29.05 C146.7,29.35 146.95,29.45 147.15,29.35 C147.4,29.3 147.5,29.05 147.4,28.8 C147.35,28.5 147.3,28.2 147.2,27.95 C147.05,27.4 146.95,26.85 146.75,26.3 C146.6,25.8 146.35,25.4 145.9,25.05 C145.45,24.7 144.9,24.55 144.35,24.7 C144.05,24.8 143.75,24.95 143.5,25.1 C143,25.4 142.55,25.8 142.15,26.25 C140.95,27.6 140,29.2 139.3,30.9 C139.2,31.15 139.1,31.4 139.05,31.65 C139,31.95 138.95,32.25 139,32.5 C139.05,33.15 139.5,33.35 140.05,33.1 Z M152.1,34.5 C152.25,34.35 152.35,34.15 152.45,33.95 C152.65,33.5 152.9,33.05 153.1,32.6 C153.85,30.95 154.75,29.3 155.75,27.8 C155.9,27.6 156.05,27.45 156.15,27.25 C156.2,27.25 156.25,27.3 156.25,27.3 C156.35,27.5 156.4,27.75 156.45,28 C156.55,28.5 156.65,29 156.9,29.45 C157.25,30.15 157.85,30.65 158.65,30.75 C159.15,30.85 159.7,30.75 160.15,30.5 C161.25,30.1 162.2,29.4 163,28.55 C163.3,28.15 163.6,27.75 163.85,27.3 C163.95,27.1 163.9,26.9 163.75,26.75 C163.6,26.65 163.35,26.65 163.2,26.85 C163.05,27.05 162.95,27.25 162.85,27.4 C162.6,27.7 162.35,28.05 162.05,28.35 C161.5,28.95 160.85,29.35 160.15,29.75 C159.95,29.85 159.7,29.95 159.45,30 C158.55,30.25 157.85,29.9 157.45,29.1 C157.35,28.9 157.25,28.65 157.2,28.4 C157.15,28.2 157.1,27.95 157.05,27.7 C157,27.5 156.95,27.3 156.9,27.15 C156.65,26.45 156.15,26.35 155.65,26.85 C155.5,27 155.35,27.2 155.25,27.4 C154.9,27.9 154.6,28.35 154.3,28.85 C153.5,30.2 152.8,31.6 152.15,33 L152,33.3 L152,33.3 C152,33.05 152,32.8 152.05,32.55 C152.4,30.3 152.9,28.05 153.1,25.75 C153.1,25.65 153.15,25.55 153.25,25.5 C153.45,25.35 153.5,25.15 153.45,24.95 C153.45,24.7 153.4,24.5 153.35,24.3 C153.3,24.05 153.15,23.9 152.95,23.9 C152.75,23.9 152.6,24.05 152.55,24.3 C152.5,24.5 152.5,24.7 152.5,24.85 C152.35,26.35 152.2,27.8 151.95,29.3 C151.7,30.6 151.5,31.95 151.3,33.25 C151.25,33.55 151.25,33.9 151.3,34.25 C151.3,34.45 151.4,34.6 151.6,34.65 C151.8,34.7 151.95,34.65 152.1,34.5 Z M170.2,40.35 C170.35,40.35 170.45,40.25 170.5,40.1 C170.6,39.95 170.6,39.75 170.4,39.6 C170.25,39.5 170.2,39.35 170.15,39.15 C170.1,38.9 170.05,38.65 170,38.35 C169.75,36.8 169.6,35.25 169.5,33.7 C169.3,31.25 169.15,28.8 169.25,26.35 C169.3,24.2 169.4,22.1 169.5,19.95 C169.6,17.85 169.7,15.75 170,13.7 C170.25,11.95 170.5,10.2 170.7,8.5 C170.8,7.5 170.95,6.5 171.05,5.5 C171.1,5.3 171.05,5.15 171.05,4.95 C171,4.8 170.9,4.7 170.75,4.7 C170.6,4.65 170.45,4.7 170.35,4.85 C170.3,4.95 170.25,5.05 170.25,5.15 C170.15,5.45 170.1,5.7 170.05,5.95 C169.75,7.7 169.6,9.5 169.5,11.25 C169.4,12 169.4,12.7 169.3,13.45 C169.15,14.65 168.95,15.85 168.75,17.05 C168.35,19.65 167.8,22.25 167.05,24.75 C167.05,24.9 167,25.05 166.95,25.15 C166.85,25.1 166.75,25.05 166.65,25.05 C166.25,24.9 165.85,24.85 165.45,25 C165.1,25.1 164.8,25.3 164.55,25.55 C164.05,25.95 163.7,26.4 163.35,26.9 C162.45,28.3 161.9,29.8 161.5,31.35 C161.35,32.1 161.2,32.8 161.25,33.5 C161.25,33.95 161.3,34.4 161.5,34.75 C161.75,35.25 162.25,35.4 162.75,35.15 C162.9,35.1 163.1,34.95 163.25,34.8 C163.45,34.6 163.7,34.35 163.9,34.1 C164.45,33.4 164.85,32.65 165.25,31.85 C166,30.35 166.6,28.8 167.1,27.2 C167.15,27.1 167.2,27 167.25,26.8 C167.4,27.05 167.45,27.2 167.5,27.35 C167.6,27.55 167.7,27.8 167.8,28 C167.95,28.35 168.2,28.4 168.5,28.2 C168.55,28.15 168.6,28.15 168.65,28.15 L168.65,28.45 L168.65,28.45 C168.7,30.95 168.85,33.5 169.15,35.95 C169.25,37.15 169.45,38.3 169.6,39.45 C169.65,39.65 169.75,39.9 169.8,40.05 C169.9,40.3 170.05,40.4 170.2,40.35 Z M168.6,27.7 C168.55,27.5 168.45,27.4 168.4,27.3 C168.15,26.85 167.95,26.35 167.65,25.9 C167.6,25.8 167.6,25.7 167.6,25.55 C168,24.05 168.4,22.5 168.75,20.95 C168.8,20.9 168.8,20.9 168.85,20.8 C168.75,23.1 168.7,25.35 168.6,27.7 Z M162.1,34.35 C162,34 161.95,33.65 161.85,33.35 C161.95,32.35 162.15,31.35 162.45,30.45 C162.8,29.35 163.3,28.25 163.95,27.3 C164.2,26.85 164.55,26.45 164.95,26.1 C165.2,25.95 165.4,25.8 165.65,25.7 C165.95,25.55 166.25,25.65 166.55,25.85 C166.65,25.95 166.7,26.05 166.65,26.2 C166.55,26.5 166.45,26.85 166.35,27.15 C165.8,28.9 165.15,30.65 164.2,32.25 C163.9,32.85 163.5,33.35 163.1,33.9 C162.95,34.15 162.75,34.3 162.5,34.5 C162.3,34.65 162.15,34.6 162.1,34.35 Z M173.9,33.25 C174.65,33.1 175.3,32.8 175.9,32.35 C177.25,31.5 178.45,30.4 179.5,29.2 C179.8,28.8 180.05,28.45 180.3,28.05 C180.45,27.85 180.55,27.6 180.6,27.35 C180.7,27.05 180.7,26.75 180.6,26.4 C180.5,26.2 180.25,26 180.1,26.15 C179.95,26.3 179.85,27.35 179.55,27.75 C179.35,28.1 179.1,28.45 178.85,28.75 C177.85,29.9 176.75,30.95 175.5,31.8 C175,32.15 174.5,32.45 173.9,32.6 C173.25,32.75 172.85,32.5 172.6,31.9 C172.45,31.5 172.4,31.1 172.4,30.7 C172.45,30.45 172.45,30.2 172.5,29.9 C172.75,28.35 173.3,26.9 174.15,25.55 C174.45,25.15 174.75,24.75 175.1,24.4 C175.25,24.25 175.45,24.1 175.6,24 C175.9,23.9 176,23.95 176,24.25 C176,24.5 175.95,24.75 175.85,25 C175.45,26.05 174.85,26.95 174.1,27.75 C173.9,27.95 173.7,28.15 173.35,28.1 C173.1,28.1 172.95,28.3 172.9,28.5 C172.9,28.75 173.05,28.95 173.3,29 C173.55,29.05 173.8,29 173.95,28.85 C174.2,28.65 174.5,28.45 174.7,28.2 C175.4,27.5 175.95,26.65 176.35,25.75 C176.5,25.4 176.6,25.05 176.75,24.75 C176.8,24.4 176.8,24.1 176.7,23.8 C176.5,23.35 176.1,23.1 175.65,23.25 C175.35,23.35 175.1,23.5 174.9,23.65 C174.55,24 174.2,24.35 173.95,24.75 C173.05,25.9 172.5,27.25 172.15,28.65 C172,29.25 171.9,29.85 171.8,30.5 C171.75,31.1 171.8,31.7 172.1,32.3 C172.4,33.05 173.1,33.4 173.9,33.25 Z M180.1,46.7 C180.45,46.6 180.8,46.5 181.1,46.3 C181.5,46.05 181.9,45.75 182.25,45.4 C184.2,43.5 185.5,41.2 186.15,38.6 C186.5,37.25 186.65,35.95 186.45,34.6 C186.45,34.4 186.55,34.25 186.65,34.1 L190.45,30.3 L190.45,30.3 C191,29.7 191.6,29.1 192.1,28.5 C192.45,28.1 192.7,27.7 193,27.3 C193.15,27.1 193.25,26.85 193.25,26.65 C193.35,26.2 193,25.9 192.6,26.05 C192.45,26.1 192.3,26.2 192.15,26.25 C191.7,26.55 191.7,26.8 192.15,27.1 C192.15,27.1 192.15,27.15 192.2,27.2 C192.1,27.3 192.05,27.4 191.95,27.5 C191.55,28 191.15,28.5 190.75,28.95 C189.3,30.45 187.85,31.95 186.45,33.45 C186.4,33.5 186.35,33.5 186.3,33.55 C186.15,33.2 186,32.85 185.8,32.55 C185.3,31.65 184.55,31.15 183.55,31 C183.15,30.95 182.8,31 182.4,31 L181.8,31 L181.8,31 C181.85,30.8 181.9,30.65 181.95,30.55 C182,30.35 182.1,30.1 182.2,29.9 C182.65,29 183.1,28.05 183.55,27.1 C183.9,26.45 184.2,25.75 184.35,25 C184.45,24.65 184.5,24.25 184.4,23.9 C184.3,23.4 184,23.15 183.5,23.2 C183.25,23.25 183,23.3 182.8,23.4 C181.8,23.95 180.9,24.65 180.1,25.5 C179.95,25.65 179.85,25.85 179.75,26.05 C179.6,26.45 179.7,26.85 179.95,27.1 C180.15,27.25 180.4,27.25 180.55,27.1 C180.7,27 180.8,26.75 180.55,26.55 C180.45,26.4 180.45,26.25 180.55,26.15 C180.65,26.05 180.7,25.9 180.8,25.8 C181.45,25.1 182.15,24.55 182.95,24.05 C183.05,24 183.2,23.9 183.3,23.9 C183.65,23.75 183.8,23.85 183.85,24.2 C183.85,24.45 183.8,24.7 183.75,24.95 C183.55,25.8 183.15,26.6 182.75,27.45 C182.35,28.3 181.9,29.15 181.5,30.05 C181.4,30.25 181.3,30.4 181.25,30.65 C181.05,31.25 181.35,31.6 182,31.65 C182.25,31.65 182.55,31.6 182.85,31.6 C184,31.5 184.85,31.95 185.4,32.95 L185.7,33.7 L185.7,33.7 C185.85,34 185.75,34.15 185.55,34.4 C184.4,35.6 183.3,36.9 182.3,38.25 C181.2,39.65 180.2,41.15 179.45,42.75 C179.15,43.4 178.9,44.05 178.8,44.75 C178.75,45.1 178.7,45.5 178.8,45.85 C179,46.45 179.5,46.8 180.1,46.7 Z M185.95,34.95 C186,35.75 185.95,36.45 185.85,37.15 C185.35,40.2 184,42.85 181.8,45 C181.5,45.3 181.15,45.5 180.8,45.75 C180.6,45.9 180.4,45.95 180.2,46 C179.75,46.15 179.45,45.95 179.45,45.45 C179.4,45.25 179.45,45 179.45,44.8 C179.6,44.15 179.8,43.55 180.1,42.95 C180.8,41.5 181.65,40.2 182.55,38.95 C183.55,37.65 184.6,36.4 185.7,35.2 C185.75,35.1 185.8,35.05 185.95,34.95 Z M146.621132,15.42 C146.801132,15.42 146.921132,15.48 146.981132,15.6 C147.041132,15.72 147.101132,15.84 147.101132,15.9 C147.161132,16.2 147.101132,16.5 147.041132,16.8 C146.921132,17.28 146.681132,17.64 146.441132,18.06 C145.781132,19.02 144.941132,19.8 143.801132,20.16 C143.681132,20.22 143.501132,20.34 143.381132,20.34 L143.323354,20.4555556 C143.287798,20.5266667 143.261132,20.58 143.261132,20.58 C143.021132,20.76 142.841132,20.76 142.661132,20.64 C142.541132,20.58 142.481132,20.46 142.361132,20.34 C142.241132,20.04 142.361132,19.8 142.661132,19.74 C142.661132,19.68 142.721132,19.74 142.781132,19.74 C143.081132,19.74 143.381132,19.62 143.741132,19.5 C144.701132,19.02 145.481132,18.24 145.961132,17.34 C146.261132,16.98 146.321132,16.5 146.261132,16.02 L146.261132,15.66 C146.321132,15.54 146.501132,15.42 146.621132,15.42 Z" id="DaniFernandez"></path>
        </g>
    </g>
</svg>