<?xml version="1.0" encoding="utf-8"?>
<!-- Generator: Adobe Illustrator 23.0.3, SVG Export Plug-In . SVG Version: 6.00 Build 0)  -->
<svg version="1.1" xmlns="http://www.w3.org/2000/svg" xmlns:xlink="http://www.w3.org/1999/xlink" x="0px" y="0px"
	 viewBox="0 0 284.4 62.6" style="enable-background:new 0 0 284.4 62.6;" xml:space="preserve">
<style type="text/css">
	.st0{display:none;}
	.st1{fill:url(#SVGID_1_);}
	.st2{fill:url(#SVGID_2_);}
	.st3{display:none;stroke:#FFFFFF;stroke-miterlimit:10;}
	.st4{fill:none;stroke:#000000;stroke-width:2;stroke-miterlimit:10;}
</style>
<g id="Capa_2" class="st0">
</g>
<g id="Capa_1">
	<g>
		<g>
			<g>
				<linearGradient id="SVGID_1_" gradientUnits="userSpaceOnUse" x1="123.4807" y1="43.8811" x2="250.8378" y2="43.8811">
					<stop  offset="0.3974" style="stop-color:#1C1C1B"/>
					<stop  offset="0.9906" style="stop-color:#FFFFFF;stop-opacity:0"/>
				</linearGradient>
				<path class="st1" d="M141.1,38l-10.6,11.4h120.3v4.9H123.5v-4.7L134,38.3h-10.3v-4.9h17.4V38z"/>
				<path d="M124.8,45h-15.2c0.2,1.4,0.7,2.5,1.6,3.3c0.9,0.8,2,1.1,3.5,1.1c0.9,0,1.7-0.2,2.5-0.6c0.7-0.4,1.3-1,1.6-1.7h5.7
					c-0.6,2.1-1.8,3.9-3.6,5.2c-1.8,1.3-3.9,2-6.3,2c-3.1,0-5.6-1-7.6-3.1c-2-2.1-3-4.7-3-7.9c0-3.1,1-5.7,3-7.8
					c2-2.1,4.5-3.1,7.6-3.1c3.1,0,5.6,1,7.5,3.1c1.9,2.1,2.9,4.7,2.9,7.8L124.8,45z M115.2,37c-1.3,0-2.3,0.4-3.2,1.1
					c-0.8,0.7-1.4,1.7-1.6,2.9h9.5c-0.2-1.2-0.7-2.2-1.6-2.9C117.6,37.4,116.5,37,115.2,37z"/>
				<linearGradient id="SVGID_2_" gradientUnits="userSpaceOnUse" x1="93.5769" y1="5.3435" x2="93.5769" y2="54.3611">
					<stop  offset="0" style="stop-color:#FFFFFF;stop-opacity:0"/>
					<stop  offset="0.1724" style="stop-color:#1C1C1B"/>
					<stop  offset="1" style="stop-color:#000000"/>
				</linearGradient>
				<path class="st2" d="M98.5,36.4V5.3h5.5v49h-5v-2.8c-1.3,1.9-3.5,2.8-6.4,2.8c-2.8,0-5.1-1-6.8-2.9c-1.7-1.9-2.5-4.4-2.5-7.3
					c0-2.9,0.8-5.4,2.5-7.3c1.7-1.9,3.9-2.9,6.8-2.9c1.3,0,2.5,0.2,3.6,0.7C97.1,35.1,97.9,35.7,98.5,36.4z M97.1,48
					c0.9-1.1,1.4-2.4,1.4-4.1c0-1.7-0.5-3-1.4-4.1c-0.9-1.1-2.2-1.6-3.7-1.6c-1.5,0-2.8,0.5-3.7,1.6c-0.9,1.1-1.4,2.4-1.4,4.1
					c0,1.7,0.5,3,1.4,4.1c0.9,1.1,2.2,1.6,3.7,1.6C94.9,49.6,96.1,49,97.1,48z"/>
				<path class="st0" d="M80.6,54.4h-6.2l0.1-36.1h22v6H80.6l0.1,9.7h7.8v5.7h-7.9L80.6,54.4z"/>
			</g>
		</g>
		<g>
			<path class="st3" d="M87.6,31.1h3.2V36h-3.2v17.9h-5.7V36h-3v-4.9h3v-1.8c0-2.7,0.6-4.7,1.9-6c1.3-1.3,3-2,5.2-2l1.7,0.1v5.3
				c-0.2,0-0.5,0-0.9,0c-1.5,0-2.2,0.8-2.2,2.5V31.1z"/>
		</g>
		<path class="st4" d="M67.3,53.4V31.9h5.7v21.5H67.3z"/>
		<path class="st4" d="M52.6,32.4V35c1.1-2,3.2-3,6.2-3c2.5,0,4.4,0.8,5.7,2.3c1.3,1.5,2,3.5,2,6.1v13.1h-5.7V40.9
			c0-2.7-1.2-4.1-3.6-4.1c-1.4,0-2.4,0.4-3.2,1.2S53,40,53,41.4v12h-5.7v-21H52.6z"/>
		<path class="st4" d="M42.1,32.4h5.2v21h-5.2v-2.6c-1.4,2-3.6,3-6.6,3c-3,0-5.3-1-7-3.1s-2.6-4.7-2.6-7.8c0-3.1,0.9-5.8,2.6-7.8
			c1.7-2.1,4.1-3.1,7-3.1c3,0,5.3,1,6.6,3V32.4z M40.4,47.2c0.9-1.1,1.4-2.5,1.4-4.3c0-1.7-0.5-3.2-1.4-4.3
			c-0.9-1.1-2.2-1.7-3.7-1.7c-1.5,0-2.8,0.6-3.7,1.7c-0.9,1.1-1.4,2.5-1.4,4.3c0,1.7,0.5,3.2,1.4,4.3c0.9,1.1,2.2,1.7,3.7,1.7
			C38.2,48.9,39.4,48.3,40.4,47.2z"/>
		<path class="st4" d="M20.1,34.7V19.3h5.7v34.1h-5.2v-2.6c-1.4,2-3.6,3-6.6,3c-3,0-5.3-1-7-3.1S4.3,46,4.3,42.9
			c0-3.1,0.9-5.8,2.6-7.8c1.7-2.1,4.1-3.1,7-3.1c1.4,0,2.6,0.3,3.7,0.8S19.5,33.9,20.1,34.7z M18.9,47.2c0.9-1.1,1.4-2.5,1.4-4.3
			c0-1.7-0.5-3.2-1.4-4.3c-0.9-1.1-2.2-1.7-3.7-1.7c-1.5,0-2.8,0.6-3.7,1.7c-0.9,1.1-1.4,2.5-1.4,4.3c0,1.7,0.5,3.2,1.4,4.3
			c0.9,1.1,2.2,1.7,3.7,1.7C16.7,48.9,17.9,48.3,18.9,47.2z"/>
	</g>
	<path class="st4" d="M72.5,24.7c-0.6,0.6-1.4,0.9-2.3,0.9c-0.9,0-1.7-0.3-2.3-0.9c-0.6-0.6-0.9-1.3-0.9-2.3c0-0.9,0.3-1.7,0.9-2.3
		c0.6-0.6,1.4-0.9,2.3-0.9c0.9,0,1.7,0.3,2.3,0.9c0.6,0.6,0.9,1.4,0.9,2.3C73.4,23.4,73.1,24.1,72.5,24.7z"/>
	<g>
		<path d="M83.5,30.7h3.9v4.5h-3.9v19.2h-6.9V35.2h-3.6v-4.3l3.6,0v-4c0-3,0.8-5.2,2.3-6.7c1.5-1.5,3.7-2.2,6.3-2.2l2,0.1v5.9
			c-0.2,0-0.6,0-1.1,0c-1.8,0-2.7,0.9-2.7,2.8V30.7z"/>
	</g>
</g>
</svg>
