<?xml version="1.0" encoding="utf-8"?>
<!-- Generator: Adobe Illustrator 23.0.3, SVG Export Plug-In . SVG Version: 6.00 Build 0)  -->
<svg version="1.1" id="Capa_1" xmlns="http://www.w3.org/2000/svg" xmlns:xlink="http://www.w3.org/1999/xlink" x="0px" y="0px"
	 viewBox="0 0 53 15" style="enable-background:new 0 0 53 15;" xml:space="preserve">
<g>
	<path d="M7.1,12.8c-0.7,0.7-1.7,1.1-2.7,1.1c-2.1,0-3.9-1.7-3.9-3.9c0-2.1,1.7-3.9,3.9-3.9c1,0,2,0.4,2.7,1.1V1.1h2v12.6h-2V12.8z
		 M3.3,11.4C3.7,11.8,4.1,12,4.7,12c0.5,0,1-0.2,1.4-0.6C6.4,11,6.6,10.5,6.6,10c0-0.5-0.2-1-0.6-1.4C5.7,8.2,5.2,8,4.7,8
		c-0.5,0-1,0.2-1.3,0.6C3,9,2.8,9.5,2.8,10C2.8,10.5,3,11,3.3,11.4z"/>
	<path d="M16.7,6.4v7.3h-1.8v-0.7c-0.7,0.6-1.6,0.9-2.5,0.9c-2.1,0-3.9-1.7-3.9-3.9c0-2.1,1.7-3.9,3.9-3.9c0.9,0,1.8,0.3,2.5,0.9
		l0.2-0.7H16.7z M14.6,10c0-0.5-0.2-1-0.6-1.4C13.7,8.2,13.2,8,12.7,8s-1,0.2-1.4,0.6C11,9,10.8,9.5,10.8,10c0,0.5,0.2,1,0.6,1.4
		c0.4,0.4,0.8,0.6,1.4,0.6s1-0.2,1.3-0.6C14.4,11,14.6,10.5,14.6,10z"/>
	<path d="M18.5,7c0.6-0.5,1.3-0.8,2.1-0.8c2,0,3.6,1.7,3.6,3.9v3.6H22V10c0-1-0.7-2-1.8-2c-1,0-1.8,0.9-1.8,2v3.6h-2.1V6.4h1.7
		L18.5,7z"/>
	<path d="M23.8,4.2V1.8h2.2v2.4H23.8z M23.8,13.6V6.4h2.2v7.3H23.8z"/>
	<path d="M31.2,3.4C31.1,3.2,30.8,3,30.4,3c-1.2,0-1.3,1.5-1.3,2v1.4h2.2v2h-2.2v5.3h-2V8.3h-1.4v-2h1.4V5c0-1.2,0.3-2.2,0.9-2.9
		C28.6,1.4,29.5,1,30.4,1c0.9,0,1.7,0.4,2.3,1.1L31.2,3.4z"/>
	<path d="M36.9,12.8c-0.7,0.7-1.7,1.1-2.7,1.1c-2.1,0-3.9-1.7-3.9-3.9c0-2.1,1.7-3.9,3.9-3.9c1,0,2,0.4,2.7,1.1V1.1h2v12.6h-2V12.8z
		 M33.2,11.4c0.4,0.4,0.8,0.6,1.3,0.6c0.5,0,1-0.2,1.4-0.6c0.4-0.4,0.6-0.9,0.6-1.4c0-0.5-0.2-1-0.6-1.4C35.5,8.2,35,8,34.5,8
		c-0.5,0-1,0.2-1.3,0.6C32.8,9,32.6,9.5,32.6,10C32.6,10.5,32.8,11,33.2,11.4z"/>
	<path d="M44.9,12.5c-0.7,0.8-1.8,1.4-2.9,1.4c-2.1,0-3.9-1.7-3.9-3.9c0-2.1,1.7-3.9,3.9-3.9s3.9,1.7,3.9,3.9c0,0.2,0,0.5-0.1,0.7
		h-5.4c0.1,0.3,0.2,0.5,0.4,0.7c0.4,0.4,0.8,0.6,1.3,0.6c0.5,0,0.9-0.2,1.2-0.5L44.9,12.5z M43.8,9.4c-0.1-0.3-0.2-0.6-0.5-0.8
		C43,8.2,42.5,8,42,8c-0.5,0-0.9,0.2-1.3,0.6c-0.2,0.2-0.4,0.5-0.5,0.8H43.8z"/>
	<path d="M45,13.6v-0.5l3.6-4.9h-3.5V6.4h6.9v0.4l-3.6,5h3.4v1.9H45z"/>
</g>
</svg>
