<?xml version="1.0" encoding="utf-8"?>
<!-- Generator: Adobe Illustrator 23.0.3, SVG Export Plug-In . SVG Version: 6.00 Build 0)  -->
<svg version="1.1" id="Capa_1" xmlns="http://www.w3.org/2000/svg" xmlns:xlink="http://www.w3.org/1999/xlink" x="0px" y="0px"
	 viewBox="0 0 251.2 42.1" style="enable-background:new 0 0 251.2 42.1;" xml:space="preserve">
<style type="text/css">
	.st0{fill:url(#SVGID_1_);}
	.st1{display:none;fill:#1D1D1B;}
</style>
<g>
	<g>
		<g>
			<g>
				<linearGradient id="SVGID_1_" gradientUnits="userSpaceOnUse" x1="123.5925" y1="28.209" x2="250.8925" y2="28.209">
					<stop  offset="0.467" style="stop-color:#000000"/>
					<stop  offset="0.4959" style="stop-color:#181818;stop-opacity:0.9458"/>
					<stop  offset="0.5759" style="stop-color:#545454;stop-opacity:0.7957"/>
					<stop  offset="0.6555" style="stop-color:#888888;stop-opacity:0.6465"/>
					<stop  offset="0.7327" style="stop-color:#B3B3B3;stop-opacity:0.5015"/>
					<stop  offset="0.8072" style="stop-color:#D4D4D4;stop-opacity:0.3618"/>
					<stop  offset="0.8781" style="stop-color:#ECECEC;stop-opacity:0.2288"/>
					<stop  offset="0.944" style="stop-color:#FAFAFA;stop-opacity:0.1051"/>
					<stop  offset="1" style="stop-color:#FFFFFF;stop-opacity:0"/>
				</linearGradient>
				<path class="st0" d="M141.2,22.4l-10.6,11.4h120.3v4.9H123.6V34l12.3-13.1l-12.1,0v-3.1h17.4L141.2,22.4L141.2,22.4z"/>
				<path d="M98.1,21V3.9h5.4v34.7h-4.9v-2.8c-1.3,1.9-3.4,2.8-6.3,2.8c-2.8,0-5-1-6.7-2.9c-1.7-1.9-2.5-4.3-2.5-7.2
					c0-2.9,0.8-5.3,2.5-7.2c1.7-1.9,3.8-2.9,6.7-2.9c1.3,0,2.5,0.2,3.5,0.7C96.7,19.8,97.5,20.4,98.1,21z M96.7,32.5
					c0.9-1.1,1.4-2.4,1.4-4c0-1.7-0.5-3-1.4-4s-2.2-1.6-3.6-1.6c-1.5,0-2.8,0.5-3.6,1.6c-0.9,1.1-1.4,2.4-1.4,4c0,1.7,0.5,3,1.4,4
					c0.9,1.1,2.2,1.6,3.6,1.6C94.5,34,95.7,33.4,96.7,32.5z"/>
				<path class="st1" d="M79.4,39.3h-6.2l0.1-36.1h22v6H79.4l0.1,9.7h7.8v5.7h-7.9V39.3z"/>
			</g>
		</g>
		<g>
			<path class="st1" d="M87.6,16h3.2v4.9h-3.2v17.9h-5.7V20.9h-3V16h3v-1.8c0-2.7,0.6-4.7,1.9-6c1.3-1.3,3-2,5.2-2l1.7,0.1v5.3
				c-0.2,0-0.5,0-0.9,0c-1.5,0-2.2,0.8-2.2,2.5V16z"/>
		</g>
		<path d="M67.8,38.4V16.8h5.7v21.6H67.8z"/>
		<path d="M52.6,17.3v2.6c1.1-2,3.2-3,6.2-3c2.5,0,4.4,0.8,5.7,2.3c1.3,1.5,2,3.5,2,6.1v13.1h-5.7V25.8c0-2.7-1.2-4.1-3.6-4.1
			c-1.4,0-2.4,0.4-3.2,1.2s-1,2-1,3.4v12h-5.7v-21H52.6z"/>
		<path d="M41.4,17.2h5.2v21h-5.2v-2.6c-1.4,2-3.6,3-6.6,3s-5.3-1-7-3.1s-2.6-4.7-2.6-7.8s0.9-5.8,2.6-7.8c1.7-2.1,4.1-3.1,7-3.1
			c3,0,5.3,1,6.6,3V17.2z M39.7,32c0.9-1.1,1.4-2.5,1.4-4.3c0-1.7-0.5-3.2-1.4-4.3s-2.2-1.7-3.7-1.7s-2.8,0.6-3.7,1.7
			c-0.9,1.1-1.4,2.5-1.4,4.3c0,1.7,0.5,3.2,1.4,4.3c0.9,1.1,2.2,1.7,3.7,1.7S38.7,33.1,39.7,32z"/>
		<path d="M19.2,19.5V4.1h5.7v34.1h-5.2v-2.6c-1.4,2-3.6,3-6.6,3s-5.3-1-7-3.1s-2.7-4.7-2.7-7.8s0.9-5.8,2.6-7.8
			c1.7-2.1,4.1-3.1,7-3.1c1.4,0,2.6,0.3,3.7,0.8S18.6,18.7,19.2,19.5z M17.9,32.1c0.9-1.1,1.4-2.5,1.4-4.3c0-1.7-0.5-3.2-1.4-4.3
			s-2.2-1.7-3.7-1.7s-2.8,0.6-3.7,1.7c-0.9,1.1-1.4,2.5-1.4,4.3c0,1.7,0.5,3.2,1.4,4.3c0.9,1.1,2.2,1.7,3.7,1.7S16.9,33.2,17.9,32.1
			z"/>
	</g>
	<path d="M73,9.4c-0.6,0.6-1.4,0.9-2.3,0.9S69,10,68.4,9.4c-0.6-0.6-0.9-1.3-0.9-2.3c0-0.9,0.3-1.7,0.9-2.3c0.6-0.6,1.4-0.9,2.3-0.9
		s1.7,0.3,2.3,0.9c0.6,0.6,0.9,1.4,0.9,2.3C73.9,8.1,73.6,8.8,73,9.4z"/>
	<g>
		<path d="M82.1,16.8h59v4.1h-59v17.8h-6.6V20.9H13.7v-4.1h61.9v-4.4c0-2.9,0.8-5,2.2-6.4c1.4-1.4,3.5-2.1,6-2.1h5.4v5.6
			c-0.2,0-4,0.1-4.5,0.1c-1.7,0-2.6,0.9-2.6,2.7V16L82.1,16.8z"/>
	</g>
	<g>
		<path d="M124.8,29.4h-15.1c0.2,1.4,0.7,2.5,1.6,3.3c0.9,0.8,2,1.1,3.5,1.1c0.9,0,1.7-0.2,2.5-0.6c0.7-0.4,1.3-1,1.6-1.7h5.7
			c-0.6,2.1-1.8,3.8-3.6,5.2c-1.8,1.3-3.9,2-6.3,2c-3.1,0-5.6-1-7.6-3.1c-2-2-3-4.7-3-7.9c0-3.1,1-5.7,3-7.8c2-2.1,4.5-3.1,7.5-3.1
			s5.5,1,7.5,3.1c1.9,2.1,2.9,4.7,2.9,7.8L124.8,29.4z M114.4,21.4c-1.3,0-2.3,0.4-3.1,1.1c-0.8,0.7-1.4,1.7-1.6,2.9h9.5
			c-0.2-1.2-0.7-2.2-1.6-2.9C116.8,21.7,115.7,21.4,114.4,21.4z"/>
	</g>
</g>
</svg>
